<svg xmlns="http://www.w3.org/2000/svg" width="736" height="358" viewBox="0 0 736 358">
    <path fill="#7E1B1F" fill-rule="evenodd" d="M77.393 352.709v-14.404l26.367-1.465c14.486-.814 23.193-2.197 26.123-4.15 2.93-1.954 4.883-5.534 5.86-10.743 1.952-8.626 2.929-24.74 2.929-48.34v-12.695c-62.989 0-107.503.814-133.545 2.442L.732 248.705c26.368-46.224 47.77-82.845 64.21-109.863 16.438-27.019 42.317-67.79 77.636-122.315 8.626-2.441 19.857-6.917 33.692-13.427l6.835 2.93c-1.139 19.042-1.79 52.001-1.953 98.876V230.15c21.16 0 39.388-.976 54.688-2.93-.977 7.813-1.465 13.184-1.465 16.114 0 2.116.488 8.789 1.465 20.02-17.416-1.628-35.645-2.442-54.688-2.442 0 39.714 1.302 62.052 3.907 67.017 2.604 4.964 11.149 7.934 25.634 8.91l25.147 1.466v14.404c-30.762-1.14-57.129-1.709-79.102-1.709-8.626 0-35.074.57-79.345 1.709zm61.279-296.875c-35.645 51.758-70.8 109.863-105.469 174.316 18.718.651 35.482.977 50.293.977 13.835 0 32.227-.326 55.176-.977V55.834zm127.441 123.535c0-62.663 10.458-108.154 31.372-136.474C318.4 14.575 346.354.415 381.348.415c21.484 0 39.795 5.33 54.931 15.99 15.137 10.661 26.896 26.856 35.279 48.584 8.382 21.729 12.573 53.345 12.573 94.849 0 72.266-10.417 123.29-31.25 153.076-20.834 29.785-48.584 44.678-83.252 44.678-23.926 0-43.864-7.04-59.815-21.118-15.95-14.08-27.669-33.976-35.156-59.693-5.696-19.694-8.545-52.164-8.545-97.412zm42.48-6.592c0 66.57 6.918 112.224 20.753 136.963 11.067 20.183 27.018 30.274 47.851 30.274 19.857 0 34.912-9.278 45.166-27.832 12.858-23.275 19.287-66 19.287-128.174 0-66.081-6.835-111.165-20.507-135.254-11.556-20.508-27.832-30.762-48.829-30.762-19.694 0-35.237 10.132-46.63 30.396-11.394 20.263-17.09 61.726-17.09 124.39zm268.8 179.932v-14.404l26.367-1.465c14.486-.814 23.193-2.197 26.123-4.15 2.93-1.954 4.883-5.534 5.86-10.743 1.952-8.626 2.929-24.74 2.929-48.34v-12.695c-62.989 0-107.503.814-133.545 2.442l-4.395-14.649c26.368-46.224 47.77-82.845 64.21-109.863 16.438-27.019 42.317-67.79 77.636-122.315 8.626-2.441 19.857-6.917 33.692-13.427l6.835 2.93c-1.139 19.042-1.79 52.001-1.953 98.876V230.15c21.16 0 39.388-.976 54.688-2.93-.977 7.813-1.465 13.184-1.465 16.114 0 2.116.488 8.789 1.465 20.02-17.416-1.628-35.645-2.442-54.688-2.442 0 39.714 1.302 62.052 3.907 67.017 2.604 4.964 11.149 7.934 25.634 8.91l25.147 1.466v14.404c-30.762-1.14-57.129-1.709-79.102-1.709-8.626 0-35.074.57-79.345 1.709zm61.279-296.875c-35.645 51.758-70.8 109.863-105.469 174.316 18.718.651 35.482.977 50.293.977 13.835 0 32.227-.326 55.176-.977V55.834z"/>
</svg>
