<svg xmlns="http://www.w3.org/2000/svg" width="280" height="138" viewBox="0 0 280 138">
    <path fill="#7E1B1F" fill-rule="evenodd" d="M0 106.63l4.787-2.721 2.347 4.224c4.255 7.634 7.07 12.108 8.448 13.422 1.814 1.815 4.583 3.348 8.307 4.6 3.723 1.251 8.025 1.877 12.906 1.877 10.45 0 18.601-3.05 24.452-9.152 5.851-6.1 8.776-14.877 8.776-26.329 0-10.012-2.706-17.881-8.119-23.607-5.413-5.726-12.562-8.589-21.448-8.589-5.131 0-9.73 1.002-13.798 3.004-4.068 2.003-7.666 5.131-10.795 9.387l-4.036-1.315c.876-10.888 1.314-24.78 1.314-41.676 0-10.575-.438-19.774-1.314-27.596l1.596-.939c9.824.876 19.9 1.314 30.224 1.314 12.516 0 24.53-.438 36.045-1.314l1.126.939c-.563 3.129-.845 5.57-.845 7.321 0 1.627.282 4.162.845 7.603l-1.126 1.033a391.569 391.569 0 0 0-20.557-.563c-13.141 0-25.688.188-37.64.563-.563 4.756-1.064 17.772-1.502 39.048 4.631-3.63 9.043-6.18 13.235-7.65 4.193-1.47 8.98-2.206 14.362-2.206 11.639 0 21.01 3.473 28.112 10.42 7.103 6.945 10.654 15.987 10.654 27.126 0 13.955-5.585 26.189-16.755 36.701-11.17 10.513-24.39 15.77-39.658 15.77-3.88 0-7.243-.36-10.09-1.08-2.848-.72-6.18-2.112-9.997-4.177-1.064-3.63-2.003-6.508-2.816-8.635L0 106.63zm100.06-37.827c0-24.092 4.02-41.582 12.062-52.47C120.163 5.444 130.911 0 144.365 0c8.26 0 15.3 2.05 21.12 6.148 5.82 4.099 10.34 10.325 13.563 18.68 3.223 8.353 4.834 20.509 4.834 36.466 0 27.784-4.005 47.402-12.015 58.854-8.01 11.451-18.679 17.177-32.008 17.177-9.199 0-16.864-2.707-22.997-8.12-6.132-5.412-10.638-13.062-13.516-22.95-2.19-7.571-3.286-20.055-3.286-37.452zm16.333-2.534c0 25.594 2.66 43.147 7.978 52.658 4.256 7.76 10.388 11.64 18.398 11.64 7.634 0 13.423-3.567 17.365-10.701 4.944-8.949 7.415-25.375 7.415-49.28 0-25.406-2.628-42.74-7.884-52-4.443-7.885-10.7-11.828-18.773-11.828-7.572 0-13.548 3.896-17.929 11.687-4.38 7.79-6.57 23.732-6.57 47.824zm79.785 2.534c0-24.092 4.02-41.582 12.062-52.47C216.281 5.444 227.029 0 240.483 0c8.26 0 15.3 2.05 21.12 6.148 5.82 4.099 10.34 10.325 13.563 18.68C278.389 33.18 280 45.336 280 61.293c0 27.784-4.005 47.402-12.015 58.854-8.01 11.451-18.679 17.177-32.008 17.177-9.199 0-16.864-2.707-22.997-8.12-6.132-5.412-10.638-13.062-13.516-22.95-2.19-7.571-3.286-20.055-3.286-37.452zm16.333-2.534c0 25.594 2.66 43.147 7.978 52.658 4.256 7.76 10.388 11.64 18.398 11.64 7.634 0 13.423-3.567 17.365-10.701 4.944-8.949 7.415-25.375 7.415-49.28 0-25.406-2.628-42.74-7.884-52-4.443-7.885-10.7-11.828-18.773-11.828-7.572 0-13.548 3.896-17.929 11.687-4.38 7.79-6.57 23.732-6.57 47.824z"/>
</svg>
