<svg xmlns="http://www.w3.org/2000/svg" width="64" height="60" viewBox="0 0 64 60">
    <g fill="#FFFFFE" fill-rule="nonzero">
        <path d="M28.659 28.839h25.694c.593 0 .988-.396.988-.99 0-.593-.395-.99-.988-.99H28.659c-.593 0-.988.397-.988.99 0 .594.395.99.988.99zM54.353 34.775H42.494c-.593 0-.988.396-.988.99 0 .593.395.99.988.99h11.859c.593 0 .988-.397.988-.99 0-.594-.395-.99-.988-.99zM28.659 36.754h8.894c.593 0 .988-.396.988-.99 0-.593-.395-.989-.988-.989h-8.894c-.593 0-.988.396-.988.99 0 .593.395.99.988.99zM28.659 44.67h25.694c.593 0 .988-.396.988-.99 0-.593-.395-.989-.988-.989H28.659c-.593 0-.988.396-.988.99 0 .593.395.989.988.989z"/>
        <path d="M19.765 24.88v21.373c0 2.968 2.47 6.332 5.731 6.332h19.172l8.005 7.026c.198.197.395.197.692.197.099 0 .296 0 .395-.099.395-.197.593-.494.593-.89v-6.234h2.866c2.965 0 6.028-3.166 6.028-6.332V24.88c0-3.265-3.162-4.947-6.028-4.947H25.496c-3.36 0-5.731 2.078-5.731 4.948zm41.506 0v21.373c0 2.078-2.175 4.354-4.052 4.354h-3.854c-.593 0-.989.395-.989.989v5.046l-6.72-5.838c-.197-.197-.395-.197-.691-.197H25.496c-1.877 0-3.755-2.177-3.755-4.354V24.88c0-2.078 1.878-2.969 3.755-2.969H57.22c1.976 0 4.052 1.089 4.052 2.969zM34.588 8.06H7.906c-.593 0-.988.396-.988.99 0 .593.395.99.988.99h26.682c.593 0 .988-.397.988-.99 0-.594-.395-.99-.988-.99zM21.741 16.965c0-.593-.395-.99-.988-.99H7.906c-.593 0-.988.397-.988.99 0 .594.395.99.988.99h12.847c.593 0 .988-.396.988-.99zM34.588 15.976h-7.906c-.593 0-.988.396-.988.99 0 .593.395.989.988.989h7.906c.593 0 .988-.396.988-.99 0-.593-.395-.99-.988-.99zM7.906 23.891c-.593 0-.988.396-.988.99 0 .593.395.99.988.99H16.8c.593 0 .988-.397.988-.99 0-.594-.395-.99-.988-.99H7.906z"/>
        <path d="M6.028 32.796h2.866v7.718c0 .396.198.792.593.89.099.1.297.1.395.1.198 0 .494-.1.692-.297l6.127-5.64a1.06 1.06 0 0 0 .099-1.385 1.058 1.058 0 0 0-1.384-.1l-4.545 4.156v-6.43c0-.595-.396-.99-.989-.99H6.028c-1.976 0-4.052-2.276-4.052-4.255V5.191c0-1.88 2.076-3.067 4.052-3.067h31.723c1.778 0 3.755.989 3.755 3.067v10.785c0 .593.395.99.988.99s.988-.397.988-.99V5.19c0-2.968-2.371-5.046-5.731-5.046H6.028C3.064.145 0 2.025 0 5.19v21.273c0 3.265 2.965 6.332 6.028 6.332z"/>
    </g>
</svg>
