<svg xmlns="http://www.w3.org/2000/svg" width="28" height="18" viewBox="0 0 28 18">
    <g fill="#6D777C" fill-rule="nonzero">
        <path d="M14 18c-4.265 0-8.301-1.807-11.367-5.088a1 1 0 0 1 1.462-1.365C6.778 14.419 10.295 16 14 16c4.763 0 9.149-2.605 11.84-7C23.15 4.605 18.763 2 14 2 9.062 2 4.528 4.801 1.87 9.493a1 1 0 1 1-1.74-.986C3.147 3.18 8.333 0 14 0c5.668 0 10.853 3.18 13.87 8.507a1 1 0 0 1 0 .985C24.853 14.819 19.668 18 14 18z"/>
        <path d="M14 14c-2.757 0-5-2.243-5-5s2.243-5 5-5 5 2.243 5 5-2.243 5-5 5zm0-8c-1.654 0-3 1.346-3 3s1.346 3 3 3 3-1.346 3-3-1.346-3-3-3z"/>
    </g>
</svg>
