<?xml version="1.0" encoding="UTF-8"?>
<svg width="30px" height="30px" viewBox="0 0 30 30" version="1.1" xmlns="http://www.w3.org/2000/svg" xmlns:xlink="http://www.w3.org/1999/xlink">
    <!-- Generator: Sketch 58 (84663) - https://sketch.com -->
    <title>icon/filter</title>
    <desc>Created with Sketch.</desc>
    <g id="makets" stroke="none" stroke-width="1" fill="none" fill-rule="evenodd">
        <g id="афиша/афиша" transform="translate(-1255.000000, -444.000000)" fill="#3F4649">
            <g id="category" transform="translate(92.000000, 444.000000)">
                <g id="icon/filter" transform="translate(1163.000000, 0.000000)">
                    <g id="options">
                        <path fill="#7e1b1f" d="M4.375,7.55625 L4.375,0 L3.125,0 L3.125,7.55625 C1.3525,7.854375 0,9.3925 0,11.25 C0,13.1075 1.3525,14.645625 3.125,14.94375 L3.125,30 L4.375,30 L4.375,14.94375 C6.1475,14.645625 7.5,13.1075 7.5,11.25 C7.5,9.3925 6.1475,7.854375 4.375,7.55625 Z M4.375,13.66125 C4.174375,13.713125 3.9675,13.75 3.75,13.75 C3.5325,13.75 3.325625,13.713125 3.125,13.66125 C2.049375,13.381875 1.25,12.41125 1.25,11.25 C1.25,10.08875 2.049375,9.118125 3.125,8.83875 C3.325625,8.786875 3.5325,8.75 3.75,8.75 C3.9675,8.75 4.174375,8.786875 4.375,8.83875 C5.450625,9.118125 6.25,10.08875 6.25,11.25 C6.25,12.41125 5.450625,13.381875 4.375,13.66125 Z M26.875,10.05625 L26.875,0 L25.625,0 L25.625,10.05625 C23.8525,10.354375 22.5,11.8925 22.5,13.75 C22.5,15.6075 23.8525,17.145625 25.625,17.44375 L25.625,30 L26.875,30 L26.875,17.44375 C28.6475,17.145625 30,15.6075 30,13.75 C30,11.8925 28.6475,10.354375 26.875,10.05625 Z M26.875,16.16125 C26.674375,16.213125 26.4675,16.25 26.25,16.25 C26.0325,16.25 25.825625,16.213125 25.625,16.16125 C24.549375,15.881875 23.75,14.91125 23.75,13.75 C23.75,12.58875 24.549375,11.618125 25.625,11.33875 C25.825625,11.286875 26.0325,11.25 26.25,11.25 C26.4675,11.25 26.674375,11.286875 26.875,11.33875 C27.950625,11.618125 28.75,12.58875 28.75,13.75 C28.75,14.91125 27.950625,15.881875 26.875,16.16125 Z M15.625,16.93125 L15.625,0 L14.375,0 L14.375,16.93125 C12.6025,17.229375 11.25,18.7675 11.25,20.625 C11.25,22.4825 12.6025,24.020625 14.375,24.31875 L14.375,30 L15.625,30 L15.625,24.31875 C17.3975,24.020625 18.75,22.4825 18.75,20.625 C18.75,18.7675 17.3975,17.229375 15.625,16.93125 Z M15.625,23.03625 C15.424375,23.088125 15.2175,23.125 15,23.125 C14.7825,23.125 14.575625,23.088125 14.375,23.03625 C13.299375,22.756875 12.5,21.78625 12.5,20.625 C12.5,19.46375 13.299375,18.493125 14.375,18.21375 C14.575625,18.161875 14.7825,18.125 15,18.125 C15.2175,18.125 15.424375,18.161875 15.625,18.21375 C16.700625,18.493125 17.5,19.463125 17.5,20.625 C17.5,21.78625 16.700625,22.756875 15.625,23.03625 Z" id="Shape" fill-rule="nonzero"></path>
                    </g>
                </g>
            </g>
        </g>
    </g>
</svg>