<svg xmlns="http://www.w3.org/2000/svg" width="357" height="497" viewBox="0 0 357 497">
    <path fill="#9AA6AC" fill-rule="evenodd" d="M226.267 51.116a3.465 3.465 0 0 1 1.017 2.457c0 .962-.39 1.826-1.017 2.463a3.46 3.46 0 0 1-2.457 1.012c-.962 0-1.83-.385-2.469-1.012a3.506 3.506 0 0 1-1.011-2.463c0-.967.39-1.83 1.011-2.457h.006a3.47 3.47 0 0 1 4.92 0zm2.848 1.28a5.46 5.46 0 0 1-.715 6.828 5.462 5.462 0 0 1-3.86 1.6 5.462 5.462 0 0 1-5.348-4.38c.22.351.478.675.775.972a5.418 5.418 0 0 0 7.68 0h.006a5.413 5.413 0 0 0 1.588-3.843c0-.4-.044-.797-.126-1.176zM95.233 39.83c-.006-1.951.764-3.2 1.896-3.985 1.617-1.133 3.997-1.463 6.02-1.567 2.996-.165 7.081.583 11.386 1.875 4.447 1.336 9.11 3.254 13.056 5.354a17.6 17.6 0 0 0 .715 4.602c.182.599.396 1.198.643 1.78a317.802 317.802 0 0 0-8.213-3.616 274.195 274.195 0 0 0-10.094-4.025l-.852-.324c-4.32-1.655-9.747-3.733-14.018-.55a5.37 5.37 0 0 0-.54.456zm33.832-14.777c1.077.649 2.22 1.32 3.26 1.968.467.297.945.56 1.424.797-1.743.984-3.25 2.771-4.332 5.003-2.48-.89-4.96-1.952-7.378-2.985-2.375-1.017-4.69-2.001-6.966-2.82-3.55-1.276-8.015-2.045-11.847-1.6-1.88.214-3.623.72-5.058 1.589-.01-.039-.016-.072-.032-.11-.088-.27-.176-.616 0-1 .247-.54.912-1.205 2.385-2.03 4.772-2.682 10.061-3.347 14.92-2.952 5.603.462 10.611 2.32 13.624 4.14zm1.407-7.955c.522-1.677 1.545-3.524 3.414-5.338.286-.275.544-.467.78-.594.204-.104.386-.16.55-.181.809-.077 1.765.209 2.705.775.995.594 1.957 1.49 2.705 2.578.737 1.072 1.26 2.32 1.397 3.65.137 1.326-.121 2.733-.952 4.118-.153.264-.324.5-.494.732-1.105 1.45-2.502 2.094-4.003 2.138-1.594.055-3.348-.544-5.035-1.556a16.08 16.08 0 0 1-1.281-.846c-.27-1.028-.544-3.068.214-5.476zm6.383 9.824c1.995-.126 3.832-1.006 5.272-2.902.214-.275.418-.578.621-.913 1.061-1.776 1.397-3.601 1.215-5.316-.17-1.671-.813-3.233-1.732-4.563a11.382 11.382 0 0 0-1.885-2.106c.621.149 1.198.341 1.72.572 1.534.687 2.628 1.699 3.365 2.853.742 1.16 1.133 2.48 1.242 3.76.138 1.518-.104 2.958-.588 4.058-.566 1.259-1.259 2.26-2.056 3.001a6.689 6.689 0 0 1-4.079 1.842 8.555 8.555 0 0 1-2.238-.099c-.17-.033-.527-.11-.692-.154-.055-.005-.11-.022-.165-.033zm9.483-14.425c1.776.654 3.574 1.429 5.338 2.193.577.248 1.16.5 1.732.742.033.17.104.33.225.473 1.562 1.803 2.177 3.766 2.106 5.723-.083 2.309-1.1 4.624-2.622 6.658-6.048 8.076-13.898 7.724-21.831 5.173 1.369-2.71 3.397-4.558 5.585-4.53 1.1.242 2.2.319 3.255.225a8.644 8.644 0 0 0 5.245-2.37c.978-.928 1.825-2.127 2.49-3.628.616-1.374.918-3.166.759-5.013-.138-1.578-.622-3.2-1.545-4.651a8.932 8.932 0 0 0-.737-.995zm52.42-.33c-1.194-.352-2.381-.704-3.569-1.04C186.685 8.703 169 4.15 158.862 6.07c-1.226.23-2.469.511-3.684.808 1.32.764 2.683 1.578 4.096 2.43 2.38 1.418 1.138 1.352 2.391-.198a5.014 5.014 0 0 1 7.317-.473 4.997 4.997 0 0 1 1.26 5.377c-.803 2.16-3.568 3.826-5.745 4.14-2.342.33-5.047-.363-7.944-1.452a9.702 9.702 0 0 1 1.143 4.987c-.093 2.743-1.264 5.437-3.013 7.773-6.866 9.17-15.52 8.67-24.167 5.817-1.094 3.111-1.275 7.108-.335 10.274 1.275 4.25 4.568 8.032 10.83 9.517 3.854.907 8.84.516 12.628-.561 2.171-.616 4.409-1.583 6.762-3.079 2.04-1.297 3.573-1.852 4.65-1.863.853-.011 1.48.291 1.903.824.38.495.544 1.15.506 1.919-.083 1.407-.869 3.375-2.216 5.47-.34.539-4.612 8.274-6.426 17.026-.93 4.508-1.193 9.258.082 13.376.764 2.435 2.221 4.535 4.101 6.041 1.836 1.463 4.068 2.359 6.427 2.414a18.88 18.88 0 0 0 1.583-.022c4.002-.231 6.806-1.754 8.631-4.134 1.853-2.425 2.733-5.75 2.82-9.511.017-.775.006-1.572-.043-2.397-.176-3.084-.055-6.03.604-8.708.677-2.738 1.908-5.184 3.964-7.202 2.375-2.331 5.195-3.958 8.543-4.217 1.419-.104 2.892.028 4.42.424.528-1.089 1.11-2.09 1.793-2.997 1.44-1.896 3.216-3.21 5.497-3.941 2.419-.775 5.965-.935 7.977.912a10.668 10.668 0 0 1 2.501-3.974 10.565 10.565 0 0 1 7.5-3.101c2.918 0 5.568 1.182 7.487 3.1a10.648 10.648 0 0 1 2.919 5.51c.93.802 1.699 1.082 2.281.945.523-.121.968-.627 1.309-1.452.423-1 .654-2.397.66-4.084.016-6.828-3.629-17.977-13.189-27.417-.6.902-1.105 1.88-1.704 2.771-.539.792-1.182 1.506-2.05 1.908-2.458 1.127-5.608-1.012-6.63-3.244-.705-1.528-.347-3.166.367-4.601.589-1.199 1.298-2.056 1.958-2.853 1.088-1.314 2.023-2.447 1.682-4.915-.32-2.342-2.732-4.937-5.168-5.03-1.71-.061-3.64.467-4.86 1.71-1.077 1.088-1.32 2.462-.95 3.908.307 1.198.879 2.067 1.643 2.716.786.676 1.809 1.138 2.958 1.506.995.308 1.583.814 1.544 1.704-.022.561-.384 1.166-1.204 1.864-1 .858-3.738 1.182-5.085 1.078-1.88-.149-3.392-.825-4.552-1.842-1.292-1.133-2.127-2.672-2.556-4.36-.66-2.562-.484-5.129.467-7.35a22.93 22.93 0 0 0-2.732 2.48.985.985 0 0 1-1.056.346zM162.94 10.68a3.054 3.054 0 0 1 4.464-.825c.522.402.912.968 1.088 1.65.165.632.127 1.27-.082 1.83-.566 1.518-2.837 2.706-4.338 2.887-3.073.374-7.246-1.43-11.616-3.32-2.59-1.122-5.25-2.271-7.845-3.046-1.314-.495-3.409-.764-4.821-.836a16.64 16.64 0 0 0-3.002-.209c4.54-3.238 10.764.143 16.25 3.123 3.145 1.71 6.075 3.304 8.55 3.606 1.49.187 2.809-.099 3.963-1.077.676-.572 2.073-2.095 1.616-3.035-.22-.45-.725-.753-1.28-.517-.523.22-3.59 1.072-2.947-.23zm79.967 59.962a4.994 4.994 0 0 0-4.997 4.893 4.3 4.3 0 0 1 3.6-1.957c2.376 0 4.3 1.924 4.3 4.294 0 .808-.22 1.56-.616 2.21a5.01 5.01 0 0 0 2.716-4.442 5.002 5.002 0 0 0-5.003-4.998zm-20.868 9.352a3.447 3.447 0 0 1 1.022 2.457c0 .962-.39 1.83-1.022 2.457v.006a3.423 3.423 0 0 1-2.458 1.017c-.962 0-1.83-.39-2.457-1.023a3.465 3.465 0 0 1-1.017-2.457 3.465 3.465 0 0 1 2.358-3.287c.308-.088.616-.149.94-.187.06 0 .116-.006.176-.006.962 0 1.83.396 2.458 1.023zm2.83 1.204a6.154 6.154 0 0 1 1.408 3.93c0 1.705-.687 3.25-1.809 4.365a6.135 6.135 0 0 1-4.37 1.82 6.148 6.148 0 0 1-4.376-1.82 6.158 6.158 0 0 1-1.809-4.365c0-.66.1-1.292.292-1.885a5.409 5.409 0 0 0 1.533 3.045l.006.006a5.41 5.41 0 0 0 3.837 1.589c1.501 0 2.859-.605 3.843-1.59a5.399 5.399 0 0 0 1.594-3.842c0-.429-.05-.852-.148-1.253zm15.966 29.175l.005.006c.429.428.698 1.028.698 1.693 0 .66-.269 1.259-.703 1.693a2.372 2.372 0 0 1-1.688.698c-.66 0-1.264-.264-1.699-.698a2.408 2.408 0 0 1-.698-1.693c0-.66.27-1.265.704-1.693l-.006-.006a2.421 2.421 0 0 1 1.699-.698c.665 0 1.259.27 1.688.698zm-1.688-2.655a4.33 4.33 0 0 0-2.985 1.193 4.973 4.973 0 0 1 1.27-2.16 4.974 4.974 0 0 1 7.048 0 4.942 4.942 0 0 1 1.462 3.523c0 1.38-.555 2.623-1.462 3.524a4.968 4.968 0 0 1-2.2 1.287 4.342 4.342 0 0 0 1.216-3.013c0-1.199-.49-2.287-1.276-3.079h-.005a4.325 4.325 0 0 0-3.068-1.275zm-27.416.995a4.07 4.07 0 0 1 1.198 2.897 4.09 4.09 0 0 1-4.096 4.096 4.09 4.09 0 0 1-4.096-4.096 4.07 4.07 0 0 1 1.2-2.897 4.084 4.084 0 0 1 5.794 0zm2.495.126c.143.121.28.253.418.39a7.164 7.164 0 0 1 0 10.15 7.182 7.182 0 0 1-10.148 0 7.182 7.182 0 0 1-2.1-5.075c0-.82.143-1.61.39-2.348a6.007 6.007 0 0 0 1.77 3.931 6.033 6.033 0 0 0 4.277 1.776 6.036 6.036 0 0 0 4.283-1.776 6.01 6.01 0 0 0 1.776-4.277c0-1-.242-1.946-.666-2.77zm22.953 7.565c-.22 2.292-.737 4.541-1.897 6.685-1.303 2.397-3.414 4.684-6.839 6.79-2.182 1.34-4.76 1.742-7.476 1.313-2.276-.351-4.657-1.275-6.993-2.699l.17-.05c.115-.032.225-.065.335-.11a12.166 12.166 0 0 0 3.486-1.852c1.517 1.215 3.111 1.864 4.684 2.056 1.644.198 3.254-.093 4.739-.748 1.457-.632 2.787-1.621 3.897-2.82 1.749-1.885 2.964-4.332 3.271-6.811.17-1.413.27-2.722.33-3.986.418.555.885 1.072 1.408 1.534.286.247.582.478.885.698zm-6.663-14.838c-.913 3.398-.764 6.223-.632 8.78.17 3.353.318 6.195-2.375 9.148-.495.434-1.303.571-2.188.516a7.679 7.679 0 0 1-2.788-.742c.132-.604.215-1.22.253-1.841 3.43.241 4.761-1.6 5.305-4.657.286-1.61.314-3.59.341-5.794.017-1.738.039-3.618.21-5.53.626.054 1.253.093 1.874.12zm3.408-.022a51.992 51.992 0 0 0-.517 3.678 9.712 9.712 0 0 0-.461 3.425c.005.126.01.253.022.38.027.33.06.648.12.967l-.049 1.38c-.06 2.072-.126 4.123-.429 6.547-.253 2.078-1.275 4.129-2.754 5.723-.929 1.006-2.04 1.831-3.249 2.359-1.171.517-2.44.747-3.716.588-1.15-.143-2.32-.594-3.453-1.435a12.602 12.602 0 0 0 2.045-2.914c.176-.357.341-.714.484-1.088.995.44 2.144.742 3.238.808 1.397.083 2.732-.203 3.662-1.066.032-.028.065-.066.098-.105 3.228-3.546 3.063-6.756 2.87-10.544-.137-2.524-.28-5.333.71-8.659.467-.005.928-.022 1.38-.044zm1.27 40.852c.583.578.951 1.386.951 2.287 0 .897-.368 1.705-.95 2.293v-.006a3.237 3.237 0 0 1-2.293.946c-.616 0-1.193-.17-1.683-.467l-.038-.039a6.21 6.21 0 0 1-1.495-2.386 2.316 2.316 0 0 1-.022-.34c0-.902.368-1.71.95-2.288v-.005a3.21 3.21 0 0 1 2.288-.946c.896 0 1.71.358 2.292.951zm-2.292-2.913a5.222 5.222 0 0 0-3.057.995 6.412 6.412 0 0 1 1.336-1.957 6.266 6.266 0 0 1 4.442-1.842c1.737 0 3.31.704 4.442 1.842a6.266 6.266 0 0 1 1.842 4.442 6.27 6.27 0 0 1-1.842 4.447 6.247 6.247 0 0 1-4.442 1.842c-.082 0-.154-.006-.23-.006a5.393 5.393 0 0 0 1.187-.896 5.16 5.16 0 0 0 1.517-3.667 5.185 5.185 0 0 0-1.517-3.677 5.18 5.18 0 0 0-3.678-1.523zm-31.127 2.76a4.088 4.088 0 0 1 1.203 2.902 4.084 4.084 0 0 1-1.203 2.897 4.084 4.084 0 0 1-5.795 0 4.062 4.062 0 0 1-1.204-2.897c0-1.138.456-2.16 1.204-2.902a4.09 4.09 0 0 1 2.897-1.199 4.08 4.08 0 0 1 2.898 1.199zm.857 7.652a7.15 7.15 0 0 1-5.976 3.2 7.17 7.17 0 0 1-5.074-2.1 7.155 7.155 0 0 1-2.095-5.075 7.164 7.164 0 0 1 9.363-6.833 6.047 6.047 0 0 0-4.26 1.776 6.041 6.041 0 0 0-1.771 4.282c0 1.672.676 3.183 1.77 4.283a6.064 6.064 0 0 0 4.288 1.77c1.419 0 2.727-.49 3.755-1.303zm24.156-9.043a.897.897 0 0 0-.093.11c-3.013 4.178-4.415 8.185-5.63 11.67-1.693 4.844-3.001 8.6-8.086 9.963-4.877 1.313-7.455-.308-12.7-4.261.693-.412 1.342-.89 1.935-1.424 3.425 1.974 6.284 3.562 9.445 2.842 5.212-1.187 7.383-6.36 9.632-11.71 1.633-3.886 3.304-7.883 6.18-10.176a11.953 11.953 0 0 0-.556 2.024c-.06.318-.1.643-.127.962zm.968 5.789a.925.925 0 0 0-.236.467c-1.138 5.492-2.53 9.961-4.536 13.38-1.94 3.321-4.48 5.652-7.95 6.96-3.078 1.16-7.822 1.2-12.363-.631-3.14-1.27-6.174-3.436-8.456-6.762a12.039 12.039 0 0 0 4.09-.776c6.323 4.8 9.154 6.828 15.18 5.207 6.08-1.633 7.542-5.817 9.428-11.21.967-2.793 2.067-5.932 4.04-9.175.176.89.446 1.737.803 2.54zm12.523-14.52c1.287-1.38 1.424-3.842 1.11-6.619-.197-1.737-.576-3.628-.934-5.41-.16-.796-.319-1.566-.45-2.314.714.22 1.467.358 2.232.407l.027.215c.89 6.635 1.512 11.27.715 13.293-.314.797-1.023 1.055-2.315.709a1.04 1.04 0 0 0-.357-.27l-.028-.01zm-6.289-.247a23.908 23.908 0 0 0 2.678-3.71c.88-1.513 1.456-3.349 1.847-5.427.077-.429.154-.874.22-1.32.275 1.43.555 2.903.709 4.3.33 2.93.132 5.371-1.803 5.59a.967.967 0 0 0-.352.105 8.768 8.768 0 0 0-3.172.424l-.127.038zm-13.375 6.416c.126.01.253.016.379.027.247.011.456.017.71.017a12.282 12.282 0 0 0 2.902-.429c-2.26 2.562-3.711 6.003-5.118 9.373-2.05 4.888-4.036 9.605-8.252 10.567-2.331.533-4.761-.743-7.647-2.392.489-.61.923-1.264 1.286-1.957 1.045.748 2.122 1.149 3.2 1.259 1.215.12 2.413-.132 3.557-.676 1.1-.528 2.15-1.33 3.111-2.326 3.03-3.144 5.338-8.394 5.872-13.463zm-4.365-.979c.824.28 1.643.511 2.43.682v.022c-.473 4.678-2.584 9.516-5.35 12.38-.802.842-1.66 1.501-2.54 1.92-.83.395-1.676.582-2.517.494-.863-.088-1.738-.456-2.606-1.166.214-.648.38-1.314.484-2.006.962.34 1.885.511 2.748.506 1.342-.011 2.546-.43 3.58-1.265.989-.792 1.797-1.963 2.418-3.513.797-2.012 1.27-4.69 1.353-8.054zm19.373-2.59a8.23 8.23 0 0 0-5.35 1.969c.562-.67 2.172-2.276 4.426-2.996a6.77 6.77 0 0 1 3.904-.094.99.99 0 0 0 .406.308c3.178 1.248 4.932.687 5.79-1.5.978-2.485.33-7.329-.594-14.261l-.006-.028c.429-.055.852-.143 1.26-.247 1.165 6.119 1.742 15.525 2 19.813.083 1.32.138 2.177.176 2.391a9.502 9.502 0 0 1-1.457 7.164 9.514 9.514 0 0 1-6.047 4.035c-.033.006-.071.011-.11.022a9.569 9.569 0 0 1-3.997-.099 8.241 8.241 0 0 0 7.84-8.235 8.238 8.238 0 0 0-8.241-8.241zM176.492 178.1a4.09 4.09 0 0 1 1.199 2.897 4.07 4.07 0 0 1-1.199 2.897 4.084 4.084 0 0 1-5.794 0 4.075 4.075 0 0 1-1.204-2.897c0-1.127.462-2.155 1.204-2.897a4.07 4.07 0 0 1 2.897-1.199 4.08 4.08 0 0 1 2.897 1.199zm.863 7.647a6.75 6.75 0 0 1-.907 1.1 7.128 7.128 0 0 1-5.068 2.105 7.132 7.132 0 0 1-5.075-2.106 7.128 7.128 0 0 1-2.105-5.069c0-1.984.802-3.776 2.105-5.074a7.15 7.15 0 0 1 5.075-2.1c.758 0 1.495.116 2.188.336a6.032 6.032 0 0 0-4.256 1.78 6.01 6.01 0 0 0-1.775 4.278c0 1.677.676 3.188 1.775 4.282a6.042 6.042 0 0 0 8.043.467zm51.502-10.54c.582.59.95 1.397.95 2.293 0 .896-.362 1.71-.945 2.287h-.005a3.225 3.225 0 0 1-2.287.951c-.897 0-1.71-.362-2.293-.95a3.191 3.191 0 0 1-.946-2.288c0-.896.358-1.704.946-2.292a3.243 3.243 0 0 1 4.58 0zm-2.287-2.902a5.172 5.172 0 0 0-3.673 1.518h-.005a5.23 5.23 0 0 0-1.012 1.429 6.27 6.27 0 0 1 1.836-4.398 6.27 6.27 0 0 1 4.448-1.842c1.732 0 3.304.704 4.436 1.842a6.257 6.257 0 0 1 1.842 4.442 6.257 6.257 0 0 1-1.842 4.442 6.19 6.19 0 0 1-2.44 1.517l.082-.082a5.196 5.196 0 0 0 0-7.35 5.182 5.182 0 0 0-3.672-1.518zm-67.967 13.381a36.2 36.2 0 0 0 .539 2.557c2.44 9.796 8.675 16.443 16.267 20.302 7.636 3.881 16.641 4.959 24.58 3.612a34.394 34.394 0 0 0 2.655-.55c.028-.01.055-.016.083-.027l.22.956-.22-.95c15.47-3.563 16.278-13.695 17.157-24.718.143-1.841.292-3.705.512-5.596.016-.127.033-.352.038-.578l.017-.208a11.956 11.956 0 0 1-2.414-4.706 205.078 205.078 0 0 0-.385 3.831c-.984 10.347-2.122 22.266-11.99 26.724-6.53 2.952-14.805 3.189-22.309 1.083-7.108-2.006-13.546-6.124-17.158-12.056a.974.974 0 0 1 .797-1.699c.275.044.561.077.864.105.285.022.571.033.874.033 2.858 0 5.442-1.155 7.311-3.03a10.28 10.28 0 0 0 1.947-2.693c-.05.055-.105.11-.154.154a9.09 9.09 0 0 1-6.454 2.677 9.103 9.103 0 0 1-6.46-2.677 9.08 9.08 0 0 1-2.677-6.455 9.113 9.113 0 0 1 2.677-6.46 9.182 9.182 0 0 1 3.54-2.204 10.348 10.348 0 0 0-10.077 10.347c0 .374.017.714.05 1.039.033.346.088.692.148 1.017a1.6 1.6 0 0 1 .022.17zm76.818-23.27c.302-.309.566-.683.797-1.1.55-1.012.923-2.326 1.132-3.728.204-1.374.259-2.848.187-4.194.913.055 1.847 0 2.793-.165.104 3.221-.264 6.272-1.012 8.361-.313.864-.67 1.534-1.066 1.93-.264.264-.539.39-.814.33a.834.834 0 0 1-.154-.05 1.058 1.058 0 0 0-.258-.307 11.417 11.417 0 0 0-.968-.699 21.763 21.763 0 0 0-.637-.379zm-5.168-1.502a25.448 25.448 0 0 0 1.71-4.447c.417-1.523.665-3.04.714-4.492.902.5 1.875.88 2.881 1.122a19.41 19.41 0 0 1-.148 4.205c-.17 1.188-.473 2.276-.907 3.073-.341.622-.76 1.034-1.243 1.078l-.044.006a11.66 11.66 0 0 0-2.963-.545zm-5.998 1.243c.137-.226.28-.451.418-.682 1.935-3.315 3.326-7.504 4.453-12.556.467.615 1 1.176 1.589 1.682-.006.044-.006.082-.006.126.094 1.639-.132 3.414-.627 5.217a23.247 23.247 0 0 1-2.089 5.058c-.698.1-1.39.253-2.067.468-.571.186-1.132.417-1.671.687zm-6.438 8.763c-3.688 1.787-8.466 1.907-13.155.918-5.212-1.105-10.275-3.568-13.596-6.658a21.912 21.912 0 0 1-3.64-4.365 22.602 22.602 0 0 1-2.424-5.184c-.626-1.974-1.127-4.112-1.258-6.245-.127-2.007.071-4.008.786-5.822a10.587 10.587 0 0 1 2.15-3.123 10.298 10.298 0 0 1 6.59-3.001 9.121 9.121 0 0 0-5.745 8.483 9.121 9.121 0 0 0 9.132 9.13 9.098 9.098 0 0 0 6.73-2.951 10.533 10.533 0 0 1-2.079 2.974 10.327 10.327 0 0 1-8.774 2.925.985.985 0 0 0-1.1.835.967.967 0 0 0 .144.66c.033.071.071.148.12.23 2.595 4.492 6.34 7.329 10.248 8.907 5.008 2.017 10.313 1.957 13.777.649a17.206 17.206 0 0 0 3.073-1.523 11.803 11.803 0 0 0-.979 3.16zm-3.7 3.183c.76-.127 1.501-.302 2.216-.522-.247 1.841-.434 3.815-.627 5.849-.934 9.819-2.012 21.133-10.852 25.124-6.102 2.76-13.892 2.974-20.968.984-6.074-1.715-11.61-5.047-15.074-9.775a12.423 12.423 0 0 0 4.129-.736l.05.104c1.704 3.86 5.75 6.46 10.577 7.713 4.717 1.215 10.203 1.16 14.92-.28.869-.27 1.704-.577 2.485-.924 9.923-4.387 11.044-12.743 12.226-21.572.27-1.99.545-4.002.919-5.965zm-5.475.253c1.165.077 2.32.071 3.447-.011-.335 1.836-.583 3.661-.825 5.464-1.11 8.269-2.16 16.097-11.077 20.044-.737.325-1.501.605-2.265.842-4.382 1.336-9.478 1.396-13.865.258-4.277-1.11-7.84-3.348-9.28-6.603l-.06-.143a13.02 13.02 0 0 0 1.5-.978c2.194 3.337 5.932 5.058 9.95 5.525 4.064.478 8.456-.335 11.804-2.045.363-.187.693-.368.99-.544 6.278-3.805 7.663-11.177 9.005-18.34.22-1.182.44-2.353.676-3.47zm-5.547-.874c.385.093.78.181 1.17.27.81.164 1.617.301 2.42.411-.226 1.1-.434 2.2-.638 3.299-1.264 6.74-2.567 13.678-8.092 17.02-.308.187-.6.352-.88.49-3.013 1.544-6.987 2.276-10.687 1.841-3.585-.417-6.889-1.951-8.703-4.92.308-.324.594-.665.863-1.023 2.546 2.854 5.668 3.98 8.626 4.041 2.974.06 5.789-.962 7.713-2.375.209-.16.423-.33.621-.506 2.656-2.32 4.426-5.816 5.624-9.527.984-3.051 1.584-6.25 1.963-9.021zm-4.827-1.59c.957.391 1.935.743 2.92 1.05-.364 2.755-.94 5.95-1.92 8.967-1.093 3.409-2.693 6.598-5.04 8.654a8.197 8.197 0 0 1-.495.395c-1.617 1.193-4.003 2.057-6.52 2.007-2.507-.055-5.14-1.028-7.301-3.49-.088-.11-.182-.215-.27-.33.154-.292.292-.589.424-.902a4.99 4.99 0 0 0 1.726 1.742c1.05.622 2.232.797 3.359.759a9.882 9.882 0 0 0 2.298-.357c4.178-1.133 6.701-3.97 8.307-7.73 1.33-3.117 2.017-6.855 2.512-10.764zm50.05 44.086a4.092 4.092 0 0 1 1.198 2.903v.197a7.11 7.11 0 0 1-.55 1.859 4.09 4.09 0 0 1-3.546 2.04 4.08 4.08 0 0 1-2.897-1.2 4.097 4.097 0 0 1 2.897-6.998c1.128 0 2.156.462 2.898 1.199zm-2.897-3.156a6.041 6.041 0 0 0-6.053 6.059 6.06 6.06 0 0 0 1.77 4.282 6.08 6.08 0 0 0 3.348 1.699 7.12 7.12 0 0 1-2.067.302 7.124 7.124 0 0 1-5.069-2.1 7.132 7.132 0 0 1-2.105-5.074c0-1.98.802-3.771 2.105-5.069a7.128 7.128 0 0 1 5.069-2.105c1.985 0 3.777.802 5.074 2.105.138.132.27.275.396.423a6.055 6.055 0 0 0-2.468-.522zm-25.13-14.447c.918-3.519 1.226-7.384 1.54-11.353.132-1.589.253-3.194.428-4.794.556.44 1.16.83 1.815 1.171.055.033.11.06.17.083.979.489 1.99.835 3.013 1.044-.039.116-.05.248-.039.374.358 3.947-3.122 8.5-6.382 12.76l-.545.715zm26.493-115.268a8.754 8.754 0 0 0 1.314-.434c.775 4.552.797 8.604.17 11.523-.285 1.303-.692 2.364-1.22 3.111-.45.655-.979 1.062-1.589 1.177a2.39 2.39 0 0 1-.962-.028.823.823 0 0 0-.23-.022 1.104 1.104 0 0 0-.309-.082 9.826 9.826 0 0 0-1.435-.05c1.793-2.072 2.87-4.37 3.502-6.838.666-2.617.809-5.416.76-8.357zm-3.255.231c.21.022.418.039.627.05.226.005.457.005.682 0 .033 2.677-.116 5.233-.71 7.597-.588 2.31-1.621 4.453-3.37 6.355-.51.561-.796.864-1.522 1.22-1.616.782-4.3 1.117-7.29 1.095a.981.981 0 0 0-.22-.006 45.143 45.143 0 0 1-3.298-.175c-2.782-.253-6.845-.935-9.594-2.117a16.136 16.136 0 0 1-3.727-2.315c-1.424-1.187-2.595-2.627-3.155-4.222-.066-.253-.132-.5-.198-.742a9.344 9.344 0 0 1-.363-2.584c0-1.187.22-2.32.621-3.359-.039.325-.06.655-.06.995 0 2.249.912 4.283 2.385 5.75a8.114 8.114 0 0 0 5.762 2.387 8.092 8.092 0 0 0 5.756-2.386 8.11 8.11 0 0 0 2.38-5.75 8.096 8.096 0 0 0-1.567-4.811c.22.187.435.38.633.583a9.267 9.267 0 0 1 2.737 6.591 9.17 9.17 0 0 1-.66 3.453 9.323 9.323 0 0 1-1.896 2.963c-.12.132-.418.34-.643.467a.998.998 0 0 0-.67.616.98.98 0 0 0 .23 1.023.999.999 0 0 0 .533.285c2.469.875 4.602 1.22 6.438 1.16 2.457-.082 4.382-.885 5.871-2.155 1.463-1.248 2.485-2.94 3.161-4.815.809-2.26 1.127-4.8 1.127-7.153zm-2.495-.616c.181.077.357.138.538.198.039 2.27-.23 4.75-1.006 6.91-.571 1.573-1.402 2.975-2.595 3.992-1.165.99-2.688 1.622-4.667 1.688-1.204.038-2.573-.127-4.14-.55a11.178 11.178 0 0 0 1.496-2.144c1.138.522 2.22.748 3.232.715a5.703 5.703 0 0 0 3.255-1.155c.918-.676 1.682-1.622 2.292-2.76.973-1.858 1.54-4.26 1.595-6.894zm-2.925-1.863c.313.291.638.555.967.797v.022c.088 2.721-.406 5.2-1.368 7.026-.473.885-1.05 1.605-1.716 2.105a3.83 3.83 0 0 1-2.16.765c-.726.027-1.529-.149-2.408-.556.313-.934.5-1.924.555-2.946.286.126.566.22.836.269 1.055.209 1.99-.083 2.782-.77.692-.599 1.253-1.495 1.67-2.611.435-1.149.721-2.556.842-4.101zm4.31 128a9.08 9.08 0 0 0-6.454 2.677 9.09 9.09 0 0 0-2.677 6.454 9.093 9.093 0 0 0 2.677 6.46 9.08 9.08 0 0 0 6.454 2.677c.39 0 .77-.022 1.143-.072a10.35 10.35 0 0 1-6.827.594 9.849 9.849 0 0 1-2.392-.94c-.05-.022-.099-.038-.148-.06a.938.938 0 0 0-.358-.193c-4.024-1.17-8.691-4.024-12.094-7.746-2.799-3.051-4.717-6.68-4.668-10.407.033-2.545 2.6-5.899 5.316-9.456 3.475-4.546 7.191-9.406 6.768-14.1a12.038 12.038 0 0 0 3.524-.408c.066 5.509-2.969 9.654-5.811 13.546-2.831 3.876-5.503 7.521-5.168 12.177.105 1.529.808 3.101 1.781 4.497 1.089 1.567 2.54 2.953 3.87 3.832.155.121.347.198.55.215h.017a.99.99 0 0 0 .885-.446c.126-.198.17-.428.148-.648a10.282 10.282 0 0 1 3.03-7.197 10.344 10.344 0 0 1 13.628-.885 9.042 9.042 0 0 0-3.194-.572zm-26.124-100.743a10.37 10.37 0 0 1 4.04 5.349c.89 2.716.6 5.536-.593 7.894a10.332 10.332 0 0 1-5.377 4.937c-.676.27-1.347.467-2.056.588-.38.066-.649.083-1 .132a.947.947 0 0 0-.655.39.975.975 0 0 0 .209 1.364c3.205 2.342 6.58 3.854 9.802 4.354 3.178.5 6.207.022 8.813-1.578 2.54-1.561 4.43-3.238 5.838-4.997-.104.22-.214.429-.33.627-1.775 3.04-3.974 5.206-6.173 6.68-2.678 1.786-5.339 2.534-7.246 2.528-.16 0-.325-.005-.479-.01-1.627-.094-3.463-.573-5.349-1.32-.06-.028-.12-.055-.181-.077-2.238-.907-4.53-2.2-6.597-3.678-2.205-1.583-4.129-3.36-5.415-5.096a19.055 19.055 0 0 1-2.188-3.953 16.769 16.769 0 0 1-1.171-4.744v-.077a10.078 10.078 0 0 1 .253-3.129v.006a9.108 9.108 0 0 0 2.671 6.454 9.113 9.113 0 0 0 6.46 2.677 9.103 9.103 0 0 0 6.46-2.677 9.108 9.108 0 0 0 2.672-6.454 9.123 9.123 0 0 0-2.408-6.19zm-67.565 16.888a3.741 3.741 0 0 1 0 5.3 3.744 3.744 0 0 1-5.3 0h.005a3.738 3.738 0 0 1-.005-5.3h.005a3.727 3.727 0 0 1 2.645-1.094 3.74 3.74 0 0 1 2.65 1.094zm8.383-17.834c.528.412 1.067.78 1.633 1.116a16.51 16.51 0 0 0 1.567.836c-3.32 1.5-6.383 3.32-8.45 5.547-1.633 1.748-2.66 3.722-2.754 5.96a7.654 7.654 0 0 0-.869-.452c.33-2.023 1.457-4.15 2.914-6.2 1.633-2.304 3.678-4.509 5.492-6.35.077-.072.264-.259.467-.457zm-5.178-6.322c1.017 1.996 2.276 3.672 3.694 5.047-.16.148-.297.291-.374.363-1.875 1.902-3.986 4.172-5.695 6.586-1.54 2.171-2.755 4.47-3.194 6.729a5.744 5.744 0 0 0-.616-.1c.313-.807.693-1.594 1.116-2.468.544-1.127 1.154-2.375 1.792-4.03 1.11-2.891 2.111-5.926 2.743-8.939.226-1.066.407-2.133.534-3.188zm-6.702-2.128l-.038.006c-.468.093-1.034.198-1.309.258-4.662 1.034-9.307 2.733-13.024 5.79-3.754 3.083-6.542 7.525-7.427 14.007-.247 1.792-.236 3.337-.082 4.69.005 1.995-.698 3.325-1.671 4.04-.468.346-1.001.555-1.545.638a3.52 3.52 0 0 1-1.622-.138c-1.012-.335-1.864-1.17-2.172-2.446-.709-3.013.297-7.785 2.414-12.6 2.001-4.514 4.97-9.027 8.455-12.14 1.66-1.28 3.425-2.566 5.261-3.814 4.178-2.837 8.747-5.481 13.277-7.477.06 2.446-.066 4.92-.319 7.383-.06.6-.126 1.204-.198 1.803zm-60.132 57.769c-.05.071-.105.137-.154.214-.89 1.298-.995 2.458-.572 3.376.259.566.715 1.006 1.309 1.314.516.263 1.149.423 1.841.456 1.023.038 2.221-.193 3.398-.759-1.078 1.05-2.403 1.985-3.238 2.546-1.375.918-2.551 1.621-3.563 2.138-1.077.555-1.935.902-2.622 1.083-.517.127-.935.16-1.276.094v-.006h-.016a1.28 1.28 0 0 1-.693-.385 3.587 3.587 0 0 1-.418-.517c-.692-1.06-.703-2.402-.313-3.716.412-1.402 1.292-2.765 2.331-3.755a6.935 6.935 0 0 1 1-.808c.858-.555 1.886-.995 2.986-1.275zm7.196 1.132c-1.451 1.666-3.298 2.337-4.695 2.27-.407-.016-.758-.098-1.028-.236-.203-.104-.352-.242-.423-.396-.143-.307-.044-.797.407-1.456.39-.567.956-.946 1.621-1.144.726-.214 1.584-.225 2.485-.044.325.127.622.27.913.445h-.006c.033.017.06.033.088.044.28.165.49.336.638.517zm45.399 134.454c3.771.566 7.56.918 11.22 1.017 8.456.215 16.295-.962 22.03-4.162 5.447-3.045 9.994-7.086 13.66-11.753 6.735-8.56 10.54-19.22 11.628-29.583 1.083-10.374-.55-20.484-4.7-27.916-1.116-2.007-2.42-3.816-3.893-5.388 4.294.566 8.615.49 12.667-.203a38.509 38.509 0 0 0 2.809-.589l.05-.005v-.006h.005a39.602 39.602 0 0 0 3.579-1 .934.934 0 0 0 .099.214c7.63 12.683 10.698 24.398 11.165 34.618.666 14.508-3.886 26.004-8.02 32.947a16.231 16.231 0 0 0-1.216 2.463.979.979 0 0 0-.538.5 34.71 34.71 0 0 1-1.072 2.112c-3.585 6.63-9.016 12.32-14.442 15.931-5.229 3.491-10.374 5.025-13.673 3.535-.022-.01-.05-.022-.071-.033l-.017.033.017-.033-.072-.038a7.088 7.088 0 0 0-2.474-1.952c-7.817-3.722-18.12-5.932-26.74-7.784-4.788-1.023-9.049-1.94-12.001-2.925zm-17.856-6.234a1.133 1.133 0 0 0-.445-.039 84.926 84.926 0 0 0-2.947-.66c-5.36-1.104-10.94-1.71-16.603-1.6-1.363-.324-3.485-1.527-5.695-3.034-3.53-2.408-7.136-5.536-8.368-7.246-2.886-3.996-4.86-8.306-5.87-12.83-1.012-4.498-1.073-9.226-.15-14.086 1.787-9.472 8.94-18.939 17.967-27.515 9.104-8.642 20.12-16.372 29.533-22.282 3.414-2.15 6.558-3.908 9.708-5.349a56.668 56.668 0 0 1 8.571-3.128c.82-.22 1.655-.44 2.48-.638 3.034-.747 8.372-1.715 9.477 2.26.011.06.028.12.05.176l.033.082c2.803 9.737 9.208 16.4 16.943 20.33 3.035 1.545 6.273 2.667 9.582 3.387 2.265 1.825 4.179 4.189 5.723 6.96 3.953 7.08 5.509 16.773 4.464 26.767-1.055 10.011-4.728 20.308-11.22 28.571-3.524 4.475-7.873 8.351-13.079 11.254-5.404 3.018-12.903 4.123-21.039 3.914-7.51-.187-15.553-1.506-23.007-3.485a96.046 96.046 0 0 0-5.053-1.463c-.351-.115-.709-.23-1.055-.346zm48.532 33.557c-.269-.627-.593-1.177-.967-1.594l-.017-.022-.005-.006c-2.188-2.606-7.4-4.904-12.645-5.86-2.44-.446-4.898-.61-7.086-.39-2.106.208-3.97.78-5.355 1.797-.077-3.172-2.391-5.212-9.038-8.076-1.346-.583-2.924-1.347-4.683-2.193-4.25-2.05-9.511-4.585-14.679-6.196 7.207 1.44 15.322 4.288 21.633 6.509 3.65 1.281 6.723 2.358 8.758 2.853 12.781 3.14 19.978 6.152 23.056 11.078a11.1 11.1 0 0 1 1.028 2.1zm-27.031-1.281c-.347 1.05-.759 2.21-1.22 3.502-.809 2.265-1.782 4.97-2.716 8.191a210.2 210.2 0 0 1-.968 3.222c-.33 1.088-.66 2.116-.979 3.09-3.721 11.412-8.471 22.133-14.03 32.43-5.563 10.302-11.935 20.176-18.91 29.912-2.117 2.947-.512.704-2.69 3.738-6.706 9.335-14.342 19.973-20.29 29.093a141.129 141.129 0 0 0-6.213 10.5c-2.77 5.212-4.31 8.94-4.684 9.957a15.497 15.497 0 0 0-.407 9.324c.78 2.83 2.38 5.25 4.673 6.597.555.318 1.122.56 1.726.786 3.491 1.297 6.515 1.116 8.994-.165 2.507-1.303 4.492-3.738 5.866-6.905.143-.34.292-.687.424-1.05.368-.99.643-1.924.88-2.82-.82.434-1.721.665-2.612.703-1.078.039-2.155-.203-3.057-.725-.929-.54-1.682-1.364-2.078-2.452-.72-1.99-.242-4.838 2.579-8.368 9.873-12.342 20.148-24.172 29.978-35.492 26.701-30.753 50.116-57.719 52.067-79.236.17-1.853.215-5.36-.23-8.395-.287-1.924-.754-3.617-1.485-4.436a.955.955 0 0 1-.072-.083c-1.902-2.276-6.646-4.315-11.5-5.2-2.265-.413-4.541-.567-6.548-.363-1.897.192-3.535.698-4.623 1.616a3.885 3.885 0 0 0-1.364 2.336.96.96 0 0 1-.511.693zm31.198 31.468c1.974-2.221 5.894-3.167 10.198-4.2 2.117-.506 4.31-1.034 6.45-1.743-5.251 10.088-11.216 11.397-16.18 12.48-1.507.335-2.936.648-4.25 1.154a89.654 89.654 0 0 0 3.782-7.691zm3.15-8.78a.847.847 0 0 0 .138-.197c1.303-2.452 6.586-3.87 12.958-5.57 3.568-.956 7.454-2 11.242-3.392-2.88 8.274-10.808 10.176-17.74 11.842-3.123.748-6.07 1.457-8.373 2.661.33-.89.643-1.781.929-2.666.264-.847.55-1.743.847-2.678zm3.673-25.37c.187-3.871-.264-7.164-1.77-9.215a.884.884 0 0 1-.22-.275 5.116 5.116 0 0 0-1.776-1.39c-7.625-3.634-17.79-5.811-26.306-7.642-5.904-1.27-11.028-2.37-14.084-3.689a104.915 104.915 0 0 0-9.742-3.678c-1.76-.467-3.486-.973-5.162-1.5a86.749 86.749 0 0 0-4.244-.99c-4.822-.995-9.814-1.573-14.888-1.567a.766.766 0 0 1-.302.077c-.32.038-.687.01-1.089-.066-.538.016-1.088.038-1.632.06l-.05.006c-.236.01-.462.115-.676.291-.847.677-1.49 2.227-1.897 4.112-.44 2.007-.6 4.322-.456 6.389.06.868.17 1.682.324 2.397 5.146-9.748 27.026-2.062 40.776 2.77 3.612 1.26 6.64 2.331 8.576 2.804 13.304 3.255 20.852 6.493 24.255 11.935 3.128 5.003 2.683 11.644-.104 21.644-.66 2.375-1.37 4.035-2.227 6.3-7.427 19.698-27.378 42.678-49.582 68.258-9.852 11.342-20.149 23.194-29.935 35.426-2.32 2.898-2.776 5.075-2.265 6.488.231.626.671 1.11 1.22 1.423.578.336 1.282.495 2.002.462a4.068 4.068 0 0 0 3.6-2.446c.49-1.858 1.133-3.7 2.491-5.839 2.26-3.568 5.08-7.108 7.823-10.544 2.029-2.523 3.997-5.003 5.624-7.323 5.652-8.081 11.743-15.937 18.087-23.49 6.889-8.203 14.085-16.07 21.358-23.486 3.123-3.194 6.73-7.318 10.297-12.024a.878.878 0 0 1 .121-.17c1.919-2.534 3.821-5.24 5.635-8.054 2.765-4.315 5.316-8.884 7.35-13.507a.989.989 0 0 1 .198-.627c.05-.072.11-.143.17-.209a67.721 67.721 0 0 0 2.117-5.668c1.628-5.058 3.849-12.045 5.206-18.758a.95.95 0 0 1 .11-.698l.039-.06a70.13 70.13 0 0 0 .517-3.002c.236-1.578.407-3.112.494-4.563a1.01 1.01 0 0 1 .017-.363zm31.32 1.462a12.33 12.33 0 0 0 4.727.962c-5.085 9.39-17.36 12.671-27.13 15.288-4.645 1.237-8.752 2.342-11.435 3.931a186.99 186.99 0 0 0 1.627-5.7l.028-.028c1.292-1.55 5.624-2.705 10.693-4.052 7.872-2.095 17.421-4.629 21.49-10.401zm-4.91-3.76c.308.39.643.769.99 1.115.654.654 1.38 1.237 2.171 1.732-3.754 5.047-12.787 7.444-20.242 9.428-3.793 1.006-7.207 1.913-9.483 3.068.357-1.451.676-2.903.968-4.349 1.17-1.468 4.282-2.193 8.048-3.073 5.536-1.292 12.403-2.886 17.548-7.922zm-2.578-6.73c.12 1.83.643 3.546 1.479 5.063-4.789 4.866-11.501 6.427-16.894 7.686-2.815.654-5.3 1.226-7.098 2.172.039-.231.072-.457.11-.688a49.55 49.55 0 0 0 .484-4.58c2.04-2.066 4.453-2.627 7.438-3.32 3.8-.88 8.467-1.968 14.48-6.333zm9.835-12.914a12.323 12.323 0 0 0-6.267 3.36 12.329 12.329 0 0 0-3.497 7.047c-6.283 4.915-11.105 6.037-14.986 6.933-2.66.615-4.91 1.138-6.938 2.606-.044-2.359-.352-4.492-1.039-6.257 3.782.605 8.67-1.055 13.513-4.288 5.305-3.54 10.61-8.966 14.343-15.316.039.236.094.478.16.715.5 1.797 1.748 3.458 4.046 4.832.214.121.434.247.665.368zm12.342 16.394c-1.066 4.398-3.991 9.22-8.46 14.426-6.724 7.828-16.906 16.476-29.572 25.838 1.506-1.89 2.996-4.271 4.42-7.311.033-.055.05-.127.066-.193 4.623-1.985 8.642-5.217 10.401-11.49a.89.89 0 0 0 .028-.38c6.536-2.698 12.48-6.64 15.497-13.237.022-.055.044-.116.06-.176a.977.977 0 0 0-.907-1.561c-.23.033-.472.054-.72.071-.22.016-.461.022-.725.022a10.314 10.314 0 0 1-7.312-3.03 10.294 10.294 0 0 1-3.029-7.31c0-2.854 1.155-5.444 3.03-7.318a10.314 10.314 0 0 1 8.086-3.002 9.206 9.206 0 0 0-4.414 2.447 9.085 9.085 0 0 0-2.672 6.454 9.089 9.089 0 0 0 2.672 6.46 9.117 9.117 0 0 0 12.92 0c.219-.226.433-.457.631-.71zm-8.114-6.14a4.036 4.036 0 0 0 3.667 1.523 4.012 4.012 0 0 0 2.704-1.518c.314-.401.54-.841.688-1.298a3.59 3.59 0 0 1-.512 2.315 3.592 3.592 0 0 1-2.144 1.594c-.038.006-.077.017-.11.022a3.593 3.593 0 0 1-2.683-.44 3.602 3.602 0 0 1-1.61-2.199zm3.584-6.306a.939.939 0 0 0-.478.588.97.97 0 0 0 .67 1.21 2.066 2.066 0 0 1 .71.368c.45.357.72.863.78 1.39a2.077 2.077 0 0 1-.434 1.545c-.352.457-.863.72-1.396.787a2.077 2.077 0 0 1-1.54-.435 2.087 2.087 0 0 1-.786-1.39 2.081 2.081 0 0 1 .44-1.545.978.978 0 0 0-.17-1.37.756.756 0 0 0-.198-.126.98.98 0 0 0-1.116.06 5.574 5.574 0 0 0-1.815 2.546 5.484 5.484 0 0 0-.148 3.1 5.483 5.483 0 0 0 2.485 3.442 5.527 5.527 0 0 0 4.162.676l.027-.005v-.006a5.526 5.526 0 0 0 3.09-1.979 7.114 7.114 0 0 1-1.77 2.914 7.15 7.15 0 0 1-5.075 2.106 7.154 7.154 0 0 1-5.08-2.106 7.153 7.153 0 0 1-2.1-5.074c0-1.98.809-3.772 2.1-5.064a7.131 7.131 0 0 1 5.08-2.105c.902 0 1.765.165 2.562.473zm35.151 92.441c.165-.22.336-.434.506-.632.951-1.089 2.034-1.886 3.194-2.15 1.11-.247 2.331-.005 3.618.946.407.302.802.632 1.105 1.044.506.666.742 1.457.604 2.364-.153 1.012-.73 2.172-1.869 3.48-.736.847-1.704 1.754-2.924 2.705-.32.253-.633.49-.968.715-.5.34-1.089.704-1.726 1.1-2.293 1.423-5.173 3.21-7.334 5.755 1.308-5.662 3.271-10.912 5.794-15.327zm79.842 98.456c-2.898.539-6.532.896-10.98 1.072-4.936.187-10.879.143-17.943-.16l-1.897-.076c-28.015-1.193-37.922-1.617-62.974-19.434-4.343-3.084-9.143-6.905-14.102-10.852-2.012-1.6-4.024-3.206-6.041-4.794-7.637-6.01-19.847-15.218-28.28-15.586-3.485-.154-7.762.654-11.589 2.172-3.095 1.226-5.871 2.897-7.663 4.86a14.106 14.106 0 0 1 2.55 2.446c3.195-1.77 6.999-2.969 10.87-3.447 3.924-.484 7.932-.242 11.484.89 9.142 2.909 20.517 11.765 30.747 19.731 4.415 3.436 8.62 6.713 12.332 9.258 10.786 7.4 20.05 11.71 29.824 14.167 9.802 2.469 20.137 3.101 33.013 3.134 6.272.005 12.842-.126 18.796-.429 4.678-.236 8.972-.577 12.43-1.033a9.876 9.876 0 0 1-.577-1.919zm.335-5.371c-.308.929-.484 1.886-.522 2.859-.011.186-.011.379-.011.566-2.837.528-6.422.896-10.853 1.066-4.881.187-10.775.143-17.795-.154l-1.897-.082c-27.587-1.177-37.34-1.589-61.919-19.071-4.282-3.046-9.07-6.861-14.019-10.792-2.017-1.605-4.03-3.205-6.052-4.805-7.818-6.146-20.369-15.596-29.401-16.003-3.755-.165-8.324.698-12.392 2.309-3.469 1.369-6.597 3.298-8.604 5.613a14.281 14.281 0 0 0-6.168-1.737c2.122-2.546 5.729-5.025 10.011-6.982 4.992-2.287 10.874-3.843 16.388-3.97 11.655-.269 27.576 12.475 36.812 19.852l1.908 1.534c.824.654 1.644 1.303 2.457 1.952 5.212 4.15 10.242 8.158 14.965 11.38 9.653 6.586 18.295 10.538 27.322 12.974 9 2.424 18.373 3.342 29.528 3.881 5.272.253 11.105.39 17.048.292 4.42-.077 8.878-.286 13.194-.682zm-53.722 11.65l57.455.027-.259-.193a10.065 10.065 0 0 1-2.237-2.358c-3.612.517-8.241.89-13.332 1.149-5.96.308-12.562.434-18.89.423-13.045-.027-23.518-.665-33.485-3.177-10.006-2.524-19.467-6.922-30.451-14.454-3.722-2.55-7.971-5.854-12.43-9.334-10.104-7.867-21.336-16.614-30.143-19.412-3.255-1.04-6.982-1.265-10.654-.808-3.552.445-7.032 1.522-9.973 3.117.572.934 1.034 1.94 1.374 2.996 2.502-.858 5.18-1.15 7.977-.984 2.997.17 6.125.857 9.319 1.924 14.931 5.003 24.134 12.172 33.128 19.18 12.672 9.869 24.937 19.424 52.6 21.898v.005zm-105.213-26.318c.77.1 1.26.193 1.732.308 1.715-1.792 3.585-3.227 5.954-4.09.61-.225 1.242-.407 1.919-.55a48.91 48.91 0 0 0-8.252-.61 14.118 14.118 0 0 1-2.656 3.678c-.428.429-.885.836-1.368 1.21.786-.067 1.588-.061 2.671.054zm-3.034 8.445l-.264-.275a7.463 7.463 0 0 0-6.855-1.814 6.33 6.33 0 0 0-1.023.324 11.889 11.889 0 0 1 4.508-3.667 11.89 11.89 0 0 1 4.343-1.105l.621-.016a12.014 12.014 0 0 1 3.81.61c.533.176 1.05.39 1.556.643.297.143.583.302.852.467a13.782 13.782 0 0 0-2.639 3.744c-.066.132-.258.61-.407 1.067-.088.263-.17.538-.225.786a7.45 7.45 0 0 0-.962 2.265c-.457.38-.874.775-1.26 1.182a8.14 8.14 0 0 0-.131-.731 7.426 7.426 0 0 0-1.924-3.48zm-1.397 1.347a5.606 5.606 0 0 1 1.408 2.556c.313 1.517.165 2.88-.665 4.222a5.582 5.582 0 0 1-4.03 2.595c-.49.066-1.028.055-1.523.088-.28.016-.572.038-.852.05-2.276.18-4.09.95-5.514 2.11-.94.776-1.699 1.71-2.31 2.744-.428-1.804-.51-3.645-.06-5.404.49-1.963 1.639-3.843 3.69-5.504.192-.153.379-.45.428-.687a5.546 5.546 0 0 1 1.451-2.77 5.55 5.55 0 0 1 2.705-1.534 5.539 5.539 0 0 1 4.992 1.259l.28.275zm25.35-13.244c9.934 3.458 19.148 8.955 27.696 14.057 3.277 1.957 6.449 3.854 9.566 5.57 4.805 2.654 8.945 4.617 12.985 6.233 3.766 1.507 7.46 2.716 11.545 3.898l8.895.006c-19.175-3.992-29.544-12.062-40.192-20.363-8.868-6.905-17.933-13.964-32.551-18.862-3.035-1.012-5.993-1.672-8.808-1.831-2.616-.149-5.107.132-7.405.945a13.5 13.5 0 0 1 .22 2.463c0 1.55-.247 3.046-.704 4.442 6.361.028 12.48 1.298 18.357 3.299l.396.143zm-.011 2.067l-.385-.137a66.212 66.212 0 0 0-2.903-.946c-.16.06-.33.082-.517.055-3.71-.583-6.492-.357-8.74.467-1.76.638-3.211 1.66-4.553 2.941.264.116.528.231.78.363a12.9 12.9 0 0 1 1.513.88c.83-.61 1.715-1.133 2.655-1.55a13.709 13.709 0 0 1 9.467-.66 13.74 13.74 0 0 1 4.277 2.072 20.87 20.87 0 0 1 5.904-.39 91.27 91.27 0 0 0-7.498-3.095zm7.163 12.496l.055.401c.242 1.836.12 3.75-.423 5.646-.028.094-.06.193-.088.292 2.287-1.287 4.997-2.26 7.971-2.887.154-.071.313-.099.478-.093.72-.143 1.457-.264 2.216-.374 3.93-.533 8.213-.522 12.518.088-1.05-.627-2.111-1.264-3.189-1.902-3.744-2.238-7.625-4.558-11.633-6.735a.976.976 0 0 1-.995.055 17.676 17.676 0 0 0-6.02-1.874 18.52 18.52 0 0 0-4.551.027c.824.869 1.533 1.83 2.105 2.875a13.822 13.822 0 0 1 1.556 4.48zm-2.045-.017a12.179 12.179 0 0 0-1.276-3.48c-.863-1.577-1.792-2.54-3.155-3.677a11.666 11.666 0 0 0-3.953-2.002 11.853 11.853 0 0 0-8.142.572c-1.11.495-1.869 1.023-2.815 1.76a12.367 12.367 0 0 0-1.88 1.984 7.867 7.867 0 0 1 1.04-.319 7.444 7.444 0 0 1 5.458.786l.358.22a7.479 7.479 0 0 1 3.155 4.327 7.48 7.48 0 0 1-.858 5.91 7.53 7.53 0 0 1-3.98 3.172c-.978.33-1.286.319-1.528.34a7.402 7.402 0 0 1-.802.05c-.154.006-.374.022-.583.033-.429.022-.907.044-1.325.088-.187.022-.363.05-.544.072.209.263.384.472.423.51.72.792 1.556 1.48 2.485 2.051.61.38 1.275.704 1.979.973.5.193 1.055.369 1.578.49 2.957.687 5.943.198 8.438-1.182a11.802 11.802 0 0 0 4.124-3.783.98.98 0 0 1 .176-.258 12.064 12.064 0 0 0 1.38-3.073c.489-1.726.582-3.475.318-5.146l-.071-.418zm-15.828-2.765l-.395-.181a5.519 5.519 0 0 0-3.508-.314 5.519 5.519 0 0 0-2.71 1.534 5.633 5.633 0 0 0-1.452 2.749 1.242 1.242 0 0 1-.374.654c-.07.077-.159.138-.247.215-1.93 1.621-3.023 3.452-3.502 5.36-.44 1.753-.363 3.59.06 5.387.611-1.033 1.37-1.968 2.315-2.737a9.08 9.08 0 0 1 2.733-1.54c.06-.027.126-.05.186-.066a10.847 10.847 0 0 1 2.079-.456c.483-.06 1.022-.088 1.517-.11.407-.022.923-.027 1.325-.077a5.515 5.515 0 0 0 4.074-2.6 5.526 5.526 0 0 0 .714-4.014c-.022-.115-.05-.225-.077-.34a5.552 5.552 0 0 0-2.452-3.288c-.082-.055-.17-.104-.286-.176zm55.999 14.08c-6.444 3.556-12.304 3.925-17.208 2.407-4.816-1.479-8.724-4.777-11.352-8.647.291-.05.593-.094.901-.132 5.294-.726 11.265-.407 17.004 1.066.11.033.231.039.336.028.456.258.912.511 1.363.758a125.979 125.979 0 0 0 8.956 4.52zm-3.926 3.886c1.897-.643 3.843-1.545 5.839-2.727.099-.06.203-.126.297-.181.681.286 1.357.566 2.04.836 1.885.758 3.754 1.44 5.662 2.083l-2.144-.005-11.694-.006zm-32.545-.01l-10.43-.006c.617-.237 1.221-.517 1.799-.83a13.836 13.836 0 0 0 4.854-4.486c2.37-2.04 5.717-3.519 9.61-4.399 2.65 4.19 6.68 7.851 11.693 9.726l-17.526-.006zm-30.671-.017c.572-1.48 1.418-2.82 2.617-3.794.467-.384.984-.709 1.572-.978l.137.181c.385.495.787.979.853 1.056.84.907 1.814 1.71 2.897 2.38.742.457 1.528.841 2.364 1.16l-10.44-.005zm-15.822-.006c.572-1.308 1.363-2.485 2.452-3.37 1.132-.923 2.59-1.54 4.442-1.677.236-.022.478-.033.72-.049.566-.033 1.171-.033 1.732-.104.429-.05.703-.105 1.132-.231a7.44 7.44 0 0 0 2.133-.995c-.148 2.078.226 4.178.935 6.173a.978.978 0 0 0 .143.259l-13.69-.006zm-11.842-3.815c.44-1.314 1.127-2.512 2.15-3.376.863-.73 1.973-1.231 3.397-1.374.16-.011.325-.027.49-.038.918-.083 1.632-.017 2.54-.264.175-.05.346-.1.51-.16-.115.33-.22.67-.296 1.006-.676 2.661-.352 5.42.544 8.021h-1.33c-2.876 0-5.124-.819-6.658-2.188a7.176 7.176 0 0 1-1.347-1.627zM107.07 61.199c-.445 1.33-.759 2.275-1.435 2.44-.198.05-.61-.351-1.138-1.033-.731-.94-1.512-2.32-2.292-3.881-.622-1.22-1.034-2.254-1.276-3.129a7.92 7.92 0 0 1-.126-.522c.17.055.352.11.544.165.764.204 1.732.357 2.985.473.731.071 1.463.11 2.16.143a140.2 140.2 0 0 0 2.76.099c-.142.616-.395 1.105-.703 1.688-.275.522-.583 1.105-.885 1.885-.226.583-.413 1.15-.594 1.672zm71.237 297.967c-4.53 6.3-9.285 7.46-13.364 8.45-1.127.275-2.21.539-3.227.88a119.519 119.519 0 0 0 3.067-4.552 106.672 106.672 0 0 0 1.947-3.134.29.29 0 0 0 .077-.066c1.676-1.627 4.007-2.133 6.619-2.705 2.182-.484 4.546-1 6.96-2.177a34.816 34.816 0 0 1-1.078 1.825l-1 1.48zm-11.176 15.311c-.16.16-.324.308-.495.456-3.777 3.403-7.867 4.266-11.385 5.069-.022 0-.044.006-.066.011v.006c-1.15.263-2.249.51-3.277.83a138.651 138.651 0 0 0 7.076-8.61c1.665-1.572 3.914-2.116 6.415-2.726 2.27-.55 4.734-1.15 7.251-2.524-.137.27-.28.534-.417.792a250.98 250.98 0 0 1-5.102 6.696zM53.05 203.129c-1.781 3.381-3.804 7.378-5.448 11.199-.94 2.188-1.748 4.293-2.304 6.157-.066.253-.126.511-.192.775a.872.872 0 0 1-.088.236c-.291 1.144-.473 2.177-.495 3.04-.154 5.608 2.397 8.615 5.146 11.859.66.78 1.336 1.567 2.012 2.44 2.782 3.607 6.053 9.352 8.323 13.332.616 1.094 1.16 2.045 1.562 2.722 1.055 1.808 2.314 4.98 3.53 8.455 1.203 3.441 2.385 7.185 3.303 10.154 2.084 6.707 14.244 16.185 22.568 22.66.791.622 1.556 1.216 2.309 1.804-.066-.478-.121-.968-.16-1.473-.148-2.243.017-4.761.495-6.933.5-2.287 1.358-4.238 2.578-5.223.077-.054.143-.11.22-.159a36.746 36.746 0 0 1-3.364-2.056c-3.678-2.512-7.499-5.85-8.846-7.719-3.045-4.205-5.118-8.757-6.196-13.551-1.06-4.755-1.132-9.747-.164-14.865 1.88-9.93 9.246-19.742 18.543-28.566 9.22-8.752 20.34-16.553 29.846-22.523 3.475-2.183 6.69-3.986 9.929-5.47a58.486 58.486 0 0 1 9.027-3.277 98.739 98.739 0 0 1 2.105-.544c2.463-.621 6.515-1.485 9.324-.022a9.747 9.747 0 0 1-.12-.896c-.045-.424-.067-.83-.067-1.226a12.292 12.292 0 0 1 12.304-12.304c3.392 0 6.47 1.38 8.697 3.601a12.279 12.279 0 0 1 3.6 8.703c0 .27 0 .539-.021.802.027.693.12 1.292.258 1.815.313 1.143.869 1.836 1.523 2.226.687.401 1.506.522 2.303.495a8.057 8.057 0 0 0 1.853-.302c3.502-.952 5.635-3.376 7.015-6.603 1.308-3.068 1.957-6.861 2.44-10.841-2.544-1.232-4.842-2.749-6.668-4.437a23.983 23.983 0 0 1-3.958-4.75 24.632 24.632 0 0 1-2.628-5.64c-.676-2.111-1.204-4.415-1.352-6.718a6.44 6.44 0 0 0-.022-.336c-.055-.467-.077-.94-.077-1.412 0-1.77.374-3.458 1.05-4.981l.066-.154a12.516 12.516 0 0 1 2.485-3.568 12.292 12.292 0 0 1 8.702-3.6c3.392 0 6.471 1.379 8.698 3.6l.055.055a9.185 9.185 0 0 1 2.44 3.546 12.222 12.222 0 0 1 1.106 4.975c.06.011.126.028.18.044.875.352 1.683.522 2.414.517a3.746 3.746 0 0 0 2.37-.83c.72-.594 1.341-1.496 1.825-2.716.77-1.935 1.198-4.618 1.226-8.081a34.367 34.367 0 0 1-6.487-3.678c-1.693-1.215-3.233-2.551-4.503-3.931a1.13 1.13 0 0 1-.236-.198c-1.149-1.297-2.534-3.277-3.54-5.783a18.802 18.802 0 0 1-1.144-4.102c-.088-.467-.148-.94-.176-1.407a23.744 23.744 0 0 1-.05-.918 1.07 1.07 0 0 1 .034-.297c.066-1.792.522-3.53 1.319-5.096a12.25 12.25 0 0 1 7.136-6.146 12.273 12.273 0 0 1 9.39.709 12.287 12.287 0 0 1 6.14 7.13c.286.863.468 1.732.55 2.6 2.21.149 3.073-1.039 3.42-3.012.264-1.496.291-3.387.319-5.481.022-1.787.044-3.722.214-5.707a39.507 39.507 0 0 1-5.767-1.143c-2.27-.5-4.926-1.77-7.08-3.563-1.92-1.61-3.464-3.65-4.014-5.97-.017-.066-.022-.126-.028-.181a11.436 11.436 0 0 1-.379-2.898c0-3.111 1.265-5.937 3.31-7.977a11.247 11.247 0 0 1 7.977-3.304c3.117 0 5.931 1.265 7.977 3.304a11.326 11.326 0 0 1 3.16 6.158c.061.06.122.11.138.12.445.358.847.556 1.204.627.418.083.797-.038 1.127-.33.44-.373.814-1 1.122-1.814.566-1.528.852-3.623.78-5.926a9.272 9.272 0 0 1-1.039-4.63 9.356 9.356 0 0 1 1.468-4.683c-.192.044-.385.077-.577.11-3.398.632-6.971.6-10.237.12-1.555-.224-3.414-.56-4.86-1.187a10.693 10.693 0 0 1-3.265-2.226 10.588 10.588 0 0 1-3.1-7.499c0-.626.054-1.248.159-1.852a.958.958 0 0 1-.759-.138c-2.15-1.43-4.409-1.292-6.762-.368-1.446.56-2.567 1.413-3.49 2.468-1.43 1.655-2.425 3.86-3.36 6.333-1.32 3.508-2.43 7.598-3.579 11.831-1.06 3.914-2.16 7.95-3.524 11.87-1.962 5.607-4.64 11.022-8.488 15.118-3.903 4.156-8.988 6.943-15.69 7.207a19.387 19.387 0 0 1-6.163-.715c-3.804 1.55-7.421 3.48-9.664 5.888-1.694 1.814-2.573 3.93-2.073 6.388a8.687 8.687 0 0 1 2.155 5.74c0 2.408-.979 4.59-2.556 6.174a8.714 8.714 0 0 1-6.174 2.556 8.7 8.7 0 0 1-6.168-2.556 8.723 8.723 0 0 1-2.056-9.088 8.888 8.888 0 0 1 1.38-2.501l.016-.022a40.8 40.8 0 0 0 1.05-1.584l.423-.703c.259-.451.468-.83.638-1.155l.16-.313c1.539-2.941 2.292-4.382 3.325-9.522.556-2.765 1.11-5.679 1.545-8.653-.302.06-.555.11-.648.132-4.404.967-8.764 2.562-12.205 5.387-3.398 2.793-5.926 6.834-6.74 12.755a16.961 16.961 0 0 0-.105 3.793.857.857 0 0 1 .039.242c.005.072.005.137.005.209.231 1.963.798 3.49 1.276 4.783 1.055 2.837 1.76 4.728-1.105 7.35-.467.423-.951.841-1.451 1.259.01.236.044.49.076.737.05.434.105.868.083 1.39-.33 7.081-2.205 12.167-4.64 15.79-3.76 5.59-8.857 7.713-11.732 8.312-13.276 2.749-27.696 11.077-39.483 22.045-5.927 5.525-11.182 11.71-15.278 18.186zm24.767-35.542c.087.105.181.215.285.32.473.494 1.034.818 1.705.956l.027.005h.006c.626.121 1.33.088 2.15-.126.824-.22 1.824-.61 3.028-1.226 1.067-.555 2.31-1.298 3.75-2.26 1.21-.808 3.353-2.347 4.656-4.03.89-1.148 1.43-2.336 1.226-3.452 3.958-4.887 10.533-8.884 17.015-12.826 3.694-2.237 7.361-4.47 10.539-6.855.022.214.033.418.022.621-.303 6.669-2.045 11.43-4.31 14.789-3.387 5.046-7.933 6.948-10.495 7.476-13.634 2.831-28.39 11.336-40.424 22.535a101.075 101.075 0 0 0-10.198 11c1.55-2.957 3.436-5.976 5.575-9.005 4.321-6.091 9.681-12.215 15.443-17.922zm24.326-51.875c.429.54.863 1.017 1.303 1.452.913.896 1.825 1.588 2.688 2.193.116.077.226.143.347.204.038.022.077.038.104.055l.006-.006v.006c1.314.577 2.765 0 4.172-1.155 1.204-.995 2.397-2.43 3.387-3.843.951-1.358 1.726-2.699 2.127-3.606.028-.072.473-.555 1.05-1.166a69.01 69.01 0 0 1 1.749-1.814 43.12 43.12 0 0 0-2.106 4.14c-2.287 5.184-3.331 10.412-2.529 13.837.473 2.007 1.836 3.315 3.458 3.854a5.421 5.421 0 0 0 4.937-.775 5.648 5.648 0 0 0 1.462-1.605c.149.445.308.863.451 1.259.786 2.094 1.303 3.496-.588 5.228-3.634 3.32-8.543 6.3-13.502 9.318-6.41 3.892-12.914 7.834-17.103 12.749a6.014 6.014 0 0 0-.946-.638l-.027-.016-.044-.022-.12-.072c2.39-2.358 4.59-4.095 6.745-5.794 1.605-1.27 3.183-2.518 4.804-3.986 2.683-2.435 4.965-5.574 5.927-8.96.824-2.92.687-6.02-.968-9.022-.539-.968-1.314-.995-2.127-1.028-.33-.011-.677-.022-.792-.259-.572-1.215-1.083-2.578-1.616-3.997-.259-.692-.523-1.396-.742-1.957-.732-1.869-1.21-3.348-1.507-4.574zm43.14-31.528l.01.066a39.54 39.54 0 0 1 .374 3.436 1.027 1.027 0 0 0-.676.044c-4.634 2.04-9.318 4.75-13.606 7.663a106.953 106.953 0 0 0-4.965 3.585 1.009 1.009 0 0 0-.22.143l-.258.225c-2.677 2.084-5.074 4.162-7.026 6.08a116.73 116.73 0 0 0-3.012 3.074c-.71.758-1.287 1.423-1.413 1.72-.363.814-1.061 2.04-1.935 3.282-.907 1.287-1.98 2.579-3.03 3.453-.857.703-1.632 1.1-2.144.874-.016-.011-.038-.017-.055-.022-.022-.017-.049-.033-.071-.05-.786-.555-1.616-1.176-2.441-1.99a14.498 14.498 0 0 1-2.364-3.05c-.05-.083-.16-.292-.22-.754-.06-.45-.066-1.089.066-1.963 5.657-1.154 14.59-7.52 23.282-13.716 7.697-5.487 15.201-10.836 19.704-12.1zm-46.52-35.042c.104-.027.225-.044.34-.055 2.925-.28 8.065 1.43 13.425 3.821 1.413.632 2.842 1.309 4.244 2.012-2.48-.698-4.843-1.033-6.96-.94-.308 0-.681-.01-1.088-.016-.583-.011-1.254-.022-1.952-.05-2.276-.104-3.799-.275-4.854-.55l-.033-.005a4.54 4.54 0 0 1-.731-.253 2.482 2.482 0 0 1-.72-.45.658.658 0 0 0-.143-.133 3.215 3.215 0 0 1-.484-.698c-.358-.67-.621-1.462-.803-2.012h.006l-.022-.055a7.56 7.56 0 0 0-.226-.616zM96.54 47.78a.982.982 0 0 0 .572-.583c.16-.434.357-.819.588-1.165.237-.341.506-.632.797-.869 1.26-1.028 3.068-.632 4.838.044 1.688.643 3.475 1.446 5.157 2.15 2.66 1.11 5.459 2.358 8.268 3.612 4.096 1.83 8.197 3.66 11.93 5.074 4.524 1.72 10.522 4.403 15.173 7.894 3.244 2.425 5.822 5.24 6.746 8.351 1.885 6.328.99 10.506.165 14.332-.6 2.749-1.15 5.338-.737 8.373a.918.918 0 0 0-.006.275c.32 2.66.066 5.503-.544 8.373-.61 2.913-1.578 5.844-2.65 8.642-.588 1.517-1.187 2.76-1.731 3.876-.633 1.303-1.188 2.44-1.584 3.765l-.022.055h.006l-.017.044a.879.879 0 0 0-.027.116c-.006.05-.017.11-.022.17a.968.968 0 0 0 .319.808c.22.21.533.308.852.242h.016l-.005-.016h.005v.016c.022 0 .039 0 .055-.005h.06c.028.005.056 0 .078 0a6.68 6.68 0 0 1 1.913.33c.082.038.17.071.264.093.423.154.819.346 1.204.583a5.674 5.674 0 0 0-2.122-.407 5.688 5.688 0 0 0-4.03 1.666v.005a5.675 5.675 0 0 0-1.677 4.036c0 1.572.638 3.001 1.677 4.03a5.68 5.68 0 0 0 4.03 1.67 5.67 5.67 0 0 0 4.03-1.67c.307-.303.582-.65.808-1.012-.341.84-.847 1.6-1.485 2.237a6.737 6.737 0 0 1-4.788 1.98 6.725 6.725 0 0 1-4.783-1.98 6.762 6.762 0 0 1-1.985-4.788c0-.797.138-1.556.385-2.265a6.947 6.947 0 0 1 1.122-2.001c.022-.022.044-.055.066-.083.39-.577.747-1.116 1.06-1.627.182-.28.336-.539.501-.825.242-.423.456-.813.643-1.176l.165-.314c1.627-3.106 2.42-4.623 3.502-10.038.808-4.013 1.616-8.323 2.05-12.688.446-4.404.517-8.868-.153-13.15-.275-1.77-.814-3.525-1.55-5.245-.913-2.392-2.387-4.816-4.261-7.164-2.842-3.782-6.322-7.163-9.527-9.785-3.189-2.623-11.062-7.29-18.56-10.638-5.624-2.512-11.1-4.3-14.398-3.986-.633.06-1.254.226-1.765.566a2.87 2.87 0 0 0-.385.297 1.479 1.479 0 0 1-.23-.225zm-1.105-3.991a.987.987 0 0 0 .385-.786c0-.43.099-.798.264-1.116.192-.363.49-.677.852-.946 3.409-2.54 8.28-.676 12.155.808.17.072.325.127.858.324a276.696 276.696 0 0 1 10.027 3.997c3.156 1.33 6.312 2.738 10.022 4.442.16.066.314.094.473.083 2.05 2.908 5.305 5.25 10.072 6.366 4.392 1.039 9.34.638 13.612-.572 2.347-.665 4.755-1.704 7.284-3.315 1.72-1.083 2.892-1.556 3.623-1.561.187-.006.302.027.346.082.072.094.105.314.088.61-.055 1.078-.737 2.7-1.897 4.514-.362.56-4.82 8.631-6.696 17.691-.995 4.789-1.27 9.88.127 14.349a14.434 14.434 0 0 0 4.755 6.982c2.155 1.726 4.794 2.776 7.587 2.847a20.04 20.04 0 0 0 1.743-.027c4.629-.264 7.905-2.073 10.071-4.898 2.122-2.771 3.117-6.488 3.222-10.65.022-.846.005-1.698-.044-2.55-.165-2.908-.06-5.668.55-8.136.593-2.397 1.665-4.53 3.435-6.273 1.732-1.704 3.563-2.831 5.52-3.354 1.644-.44 3.398-.456 5.267-.016-.193.462-.38.94-.561 1.43-1.374 3.628-2.49 7.745-3.645 12-1.061 3.92-2.16 7.96-3.474 11.743-1.88 5.377-4.437 10.555-8.07 14.42-3.569 3.805-8.22 6.361-14.338 6.603-3.272.126-6.504-.588-9.308-2.265-2.474-1.49-4.623-3.75-6.18-6.861-.076-.17-.153-.33-.23-.495-2.221-4.948-1.468-8.411-.649-12.232.874-4.057 1.831-8.488-.198-15.3-1.055-3.557-3.903-6.69-7.449-9.351-4.838-3.623-11.006-6.394-15.657-8.158-3.7-1.402-7.762-3.216-11.82-5.036-2.957-1.32-5.92-2.639-8.752-3.804-1.616-.671-3.287-1.44-4.904-2.051-2.237-.847-4.634-1.314-6.64.33-.435.352-.83.775-1.172 1.275-.12.182-.241.369-.346.572-.12-.533-.225-1.11-.308-1.715zm.742-12.793a1 1 0 0 0 1.061-.434c1.204-1.93 3.513-2.898 6.207-3.2 3.535-.412 7.67.297 10.968 1.49 2.171.775 4.491 1.765 6.86 2.782 2.425 1.039 4.9 2.094 7.39 3.001a19.158 19.158 0 0 0-1.007 4.7 76.952 76.952 0 0 0-12.567-5.057c-4.497-1.352-8.802-2.128-12.04-1.957-2.292.126-5.035.522-7.042 1.924a5.572 5.572 0 0 0-.533.418c.165-1.265.396-2.496.703-3.667zm20.935-19.286l.022.006.05.011h.027c6.306.869 7.29 4.92 8.026 7.927.138.578.27 1.116.424 1.617a36.883 36.883 0 0 0-10.066-2.31c-5.2-.428-10.874.298-16.031 3.195-1.166.66-1.957 1.286-2.49 1.869l-.028-.28c-.44-4.536-1.045-10.765 1.76-12.375a.26.26 0 0 0 .065-.039c.775-.434 3.42-.61 6.702-.566 3.678.05 8.06.385 11.54.945zm13.826-3.54c.363.836.99 1.572 1.76 2.029-.055.05-.11.104-.17.165-2.134 2.067-3.31 4.205-3.926 6.146a12.358 12.358 0 0 0-.456 5.41c-.457-.435-.715-1.48-1.012-2.722-.775-3.166-1.781-7.312-7.361-8.928.313-.313.621-.61.852-.682 2.886-.83 5.344-.978 7.312-1.105 1.138-.071 2.122-.132 2.996-.313h.005zm5.19-4.772c1.435-.247 3.112-.198 4.728.006 2.001.247 3.876.725 5.074 1.132 2.612.885 5.42 2.38 8.51 4.173 1.776 1.033 3.541 2.067 5.267 3.188.594.385 1.138.71 1.748.951.748.303 1.54.457 2.348.462a2.638 2.638 0 0 1-.698.264c-2.117.462-5.46-1.358-9.132-3.348-6.608-3.595-14.178-7.707-19.813-1.688-.038.033-.066.077-.093.11a2.22 2.22 0 0 1-.886-.571c-.753-.798-.77-1.848-.269-2.793.28-.533.726-.94 1.281-1.243a7.097 7.097 0 0 1 1.517-.5h.006a.667.667 0 0 0 .176-.06l.236-.083zm67.197 3.04c-.495.297-1 .633-1.512 1a23.99 23.99 0 0 0-3.09 2.678c-6.195-1.83-26.371-7.702-38.62-6.218-1.473.176-6.658 1.166-7.323 1.633-2.182-1.187-4.25-2.177-6.228-2.853a25.068 25.068 0 0 0-1.034-.313c.918-.044 1.776-.083 2.48-.132 8.037-.523 17.542-.264 27.053.483 10.016.798 20.022 2.15 28.274 3.722zm23.777 4.25c.143.423.275.847.429 1.27.527 1.435.714 3.084.467 4.953-.231 1.76-1.045 3.376-2.007 4.931-.385.594-.764 1.199-1.16 1.793a13.7 13.7 0 0 0-.654 1.039v.005c-.038.072-.082.143-.115.21-.561.994-1.171 2.028-1.957 2.385-.534.242-1.155.154-1.749-.115l-.071-.033-.006-.006-.071-.033h-.006l-.066-.038c-.912-.484-1.748-1.353-2.072-2.067-.435-.946-.088-2.035.346-2.92.5-1 1.127-1.759 1.715-2.474 1.375-1.67 2.562-3.111 2.111-6.415-.33-2.414-2.138-4.838-4.42-6.004l-.137-.071-.006-.005c-.049-.022-.098-.044-.142-.066a6.176 6.176 0 0 0-2.326-.567c-2.248-.088-4.7.655-6.311 2.276-1.572 1.59-2.001 3.656-1.457 5.773.418 1.627 1.21 2.82 2.26 3.716a8.164 8.164 0 0 0 1.583 1.05l.044.028h.005l.05.027h.005l.044.028h.011l.044.022.006.005.044.017.005.005.05.022h.005l.05.028h.005l.05.022.005.005.044.022c.396.176.808.34 1.237.484.044.016.083.027.11.044l.011.01h.011l.011.012c.38.198-.286.39-.544.456-1.078.264-2.133.517-3.25.429-.813-.066-1.517-.248-2.138-.539l-.05-.016-.005-.006-.038-.022-.011-.005-.044-.022h-.006l-.044-.022h-.005l-.044-.022a5.517 5.517 0 0 1-1.034-.704c-.973-.858-1.61-2.05-1.951-3.381-.583-2.293-.39-4.58.538-6.465.874-1.787 2.414-3.227 4.585-4.019.32-.115.632-.23.951-.34 2.6-.655 5.174-.836 7.538-.556 2.374.28 4.519 1.017 6.256 2.199 1.38.935 2.507 2.166 3.27 3.667zm6.25 11.473c.012.193.083.38.21.54 4.117 5.167 6.47 9.587 7.943 13.732 1.48 4.145 2.095 8.07 2.727 12.21.649 4.272-.005 7.757-1.369 10.27-.687 1.275-1.561 2.297-2.518 3.034-.934.72-1.968 1.177-3.001 1.33a5.323 5.323 0 0 1-2.623-.252 10.588 10.588 0 0 0 1.067-4.195c.918.462 1.776.577 2.55.401 1.177-.28 2.084-1.193 2.678-2.611.506-1.231.786-2.875.792-4.838.022-7.235-3.794-19.021-13.838-28.895a2.001 2.001 0 0 0-.23-.165c.687-1.121 1.302-2.292 1.72-3.557a91.473 91.473 0 0 1 3.893 2.996zm16.306 27.697l.006.011c.082.676.099 1.22.071 1.677-.198 2.518-.626 4.535-1.286 6.223a12.959 12.959 0 0 1-2.485 4.04 18.768 18.768 0 0 1-2.1 1.98c-2.298 1.798-5.14 2.892-8.137 3.447-3.04.555-6.223.555-9.17.165-1.264-.165-2.985-.451-4.271-.907a8.651 8.651 0 0 1-3.189-2.023 8.62 8.62 0 0 1-2.534-6.114c0-1.077.198-2.105.566-3.056v.066a7.4 7.4 0 0 0 7.41 7.416c2.046 0 3.904-.83 5.24-2.172a7.423 7.423 0 0 0 1.446-8.444l.088.088a8.61 8.61 0 0 1 2.529 6.102 8.687 8.687 0 0 1-1.27 4.52.976.976 0 0 0 .066 1.115c.088.17.225.32.407.418a7.248 7.248 0 0 0 4.585.803c1.363-.21 2.699-.786 3.897-1.71 1.177-.907 2.232-2.139 3.057-3.661 1.545-2.86 2.304-6.768 1.583-11.49-.643-4.228-1.27-8.247-2.82-12.573a42.27 42.27 0 0 0-3.002-6.58c1.452 1.84 2.865 3.93 4.327 6.42 1.072 1.837 2.007 3.915 2.815 6.196.819 2.298 1.495 4.794 2.05 7.455.039.176.083.38.121.588zm3.03 19.934a6.39 6.39 0 0 0-.974-1.627 8.54 8.54 0 0 0-1.05-1.089c-.055-.05-.12-.104-.181-.159.38-.874.665-1.847.726-2.958.077-1.424-.22-3.034-1.182-4.893.088-.186.17-.384.242-.582.428-1.089.77-2.304 1.017-3.662.742 1.842 3.045 1.891 4.535 1.919.258.005.478.011.643.033l.055.005c.116.017.237.039.352.072.869.236 1.517.902 1.924 1.748.451.93.621 2.056.5 3.117a4.513 4.513 0 0 1-.148.759l-.01.044c-.65 2.336-2.64 3.97-4.328 5.344-.753.62-1.462 1.198-2.023 1.808l-.099.121zm-.935 5.608v-.116c.01-.67.016-1.336.01-1.995 0-.022-.005-.055-.005-.077h.006l-.006-.446a7.337 7.337 0 0 0-1.544-3.353 8.385 8.385 0 0 0-.836-.874 6.78 6.78 0 0 0-.495-.396c-.027-.011-.055-.028-.077-.039a.977.977 0 0 1-.423-1.313c.445-.864.813-1.826.874-2.93.038-.776-.066-1.639-.401-2.607-.457.693-.951 1.33-1.501 1.936a20.196 20.196 0 0 1-2.084 1.973c-1.457 1.177-3.095 2.09-4.854 2.777-.17.11-.319.22-.456.324a8.69 8.69 0 0 0-.908.835 7.591 7.591 0 0 0-1.181 1.749c.038-.044.082-.088.126-.132a6.936 6.936 0 0 1 4.91-2.034 6.949 6.949 0 0 1 4.91 11.858c-.084.077-.16.16-.243.236a7.542 7.542 0 0 0 1.896-1.259l.017-.022.027-.027v.005a7.407 7.407 0 0 0 2.238-4.073zm-1.023 30.027a4.74 4.74 0 0 1-.209-.698c-.137-.621-.165-1.616-.11-2.6.05-1.061.193-2.155.374-2.787.044-.154.105-.308.165-.462a4.793 4.793 0 0 1 .231-.429c1.33-1.996 2.947-3.189 4.382-4.244.434-.325.852-.632 1.21-.924.021-.022.043-.044.065-.06.874-.726 1.578-1.754 2.018-2.897.418-1.1.577-2.287.39-3.376-.143-.841-.45-1.545-.935-2.05-.434-.462-1.022-.787-1.78-.913-.386-.055-.803-.077-1.188-.1-1-.049-1.875-.093-2.507-.714-.352-.335-.583-.923-.737-1.605-.12-.55-.203-1.177-.253-1.76-.12.16-.253.314-.39.474-.412.461-.83.846-1.325 1.22-.077.06-.154.115-.225.17.934 5.075.984 9.643.275 12.942-.341 1.55-.853 2.847-1.523 3.81-.742 1.077-1.694 1.764-2.826 1.984a4.48 4.48 0 0 1-1.748-.038.894.894 0 0 1-.215-.072c-.044 0-.077-.005-.12-.005a7.228 7.228 0 0 0-.666-.044 7.98 7.98 0 0 0-6.185 2.7 8.076 8.076 0 0 0-1.577 2.693c-.017.22-.039.44-.055.66.23-.33.494-.65.78-.94a6.954 6.954 0 0 1 9.819 0 6.93 6.93 0 0 1 0 9.824 6.663 6.663 0 0 1-.979.819 8.044 8.044 0 0 0 4.003-2.452 7.994 7.994 0 0 0 1.995-5.734v-.039l-.005-.005v-.071a8.137 8.137 0 0 0-.253-1.523.991.991 0 0 1 .104-.754zm-2.204 20.54c-.314-3.112-.71-6.246-1.21-8.791a10.106 10.106 0 0 0 3.035-2.331c1.902-2.15 2.485-4.338 2.485-7.142l-.006-.066-.016-.241c.83.33 1.699.379 2.55.417.611.033 1.221.066 1.716.231.022.011.05.017.071.022.77.275 1.375.83 1.804 1.523.51.82.775 1.836.758 2.842h-.005v.077c-.022.814-.182 1.666-.434 2.507a16.617 16.617 0 0 1-1.237 2.963l-.033.066a17.497 17.497 0 0 1-.902 1.518c-.297.456-.632.912-.99 1.347a9.912 9.912 0 0 1-1.638 1.588 9.908 9.908 0 0 1-2.089 1.204c-.275.121-.467.193-.649.27-1.28.527-2.452 1.011-3.21 1.995zm-9.335 49.653c-.033.06-.06.127-.083.198a11.346 11.346 0 0 1-.632 1.55 9.951 9.951 0 0 1-5.816 4.943c-.116.044-.237.077-.352.11a8.388 8.388 0 0 0 1.677-1.298 8.2 8.2 0 0 0 2.419-5.827 8.21 8.21 0 0 0-2.42-5.828 8.196 8.196 0 0 0-5.821-2.413 8.241 8.241 0 0 0-5.833 2.413 8.258 8.258 0 0 0-2.408 5.795 9.917 9.917 0 0 1 .67-6.746c.061-.132.138-.274.21-.412a9.922 9.922 0 0 1 5.723-4.772 9.902 9.902 0 0 1 1.83-.407.955.955 0 0 0 .594-.06 9.907 9.907 0 0 1 3.277.335c.12.088.274.154.434.176.071.011.137.022.214.028.424.148.847.324 1.265.533.28.154.571.319.863.506l.022.016c.055.105.12.193.209.275.593.56 1.198.885 1.78 1.017.996.22 1.87-.104 2.623-.852.61-.61 1.127-1.528 1.523-2.655.858-2.403 1.27-5.91 1.1-9.544a11.51 11.51 0 0 0 5.541-4.36 11.459 11.459 0 0 0 1.754-8.636c-.022-.094-.066-.896-.143-2.128l-.017-.275c.765.539 1.501.643 2.359.759l.17.022v.005c.022 0 .039 0 .06.006 1.496.22 2.513.803 3.15 1.61.76.963 1.034 2.293.996 3.777-.17 5.416-6.96 7.301-9.687 8.06l-.363.093c-.022.006-.05.017-.077.028-1.753.55-2.072 2.716-2.309 4.288-.06.401-.115.748-.165.913a.732.732 0 0 0-.038.208c-.187 1.298-.38 2.612-.566 3.986-.165 1.215-.336 2.458-.506 3.777-.357 2.672-1.506 5.915-2.71 9.318l-.517 1.468zm-2.958 14.987a1.02 1.02 0 0 0-.17.527c-.105 4.59-2.155 6.383-4.112 8.093-2.023 1.77-3.964 3.463-4.2 7.416-.061.929.087 1.809.44 2.606.23.517.544 1 .945 1.435a12.345 12.345 0 0 0-2.001 5.063 13.406 13.406 0 0 1-2.045-2.31c-.786-1.132-1.353-2.363-1.44-3.512-.276-3.942 2.182-7.306 4.793-10.885 3.145-4.3 6.498-8.884 6.174-15.371v-.028a11.744 11.744 0 0 0 2.545-1.605c-.764 2.958-1.21 5.866-.929 8.57zm93.184 212.623c-1.045-6.476-1.303-12.512-1.556-18.477-.225-5.261-.445-10.462-1.21-15.855-4.876-34.283-13.99-70.737-29.593-102.458-12.732-25.872-29.78-48.599-52.364-64.398a1.753 1.753 0 0 1-.126-.088h.005c-.511-.413-.957-.77-1.303-1.061-.407-.341-.797-.682-1.165-1.007-2.221-1.423-3.711-3.106-4.646-4.953-.852 2.815-2.567 4.31-4.222 5.767-1.71 1.49-3.348 2.925-3.535 6.058a3.612 3.612 0 0 0 .28 1.7c.105.241.242.472.407.68l.21-.208a12.26 12.26 0 0 1 8.696-3.606c3.398 0 6.476 1.38 8.703 3.606a12.27 12.27 0 0 1 3.6 8.697c0 .77-.065 1.517-.202 2.243a9.127 9.127 0 0 1-.088.445 12.378 12.378 0 0 1-3.31 6.01 12.27 12.27 0 0 1-8.703 3.6c-1.044 0-2.067-.126-3.045-.374a12.29 12.29 0 0 1-2.843-1.121.698.698 0 0 1-.159-.116c-4.332-1.27-9.318-4.32-12.947-8.284-3.1-3.398-5.233-7.477-5.173-11.754 0-.21.017-.424.039-.638-1.683 1.622-3.827 3.024-6.581 4.162 7.774 12.946 10.902 24.953 11.38 35.437.687 14.964-4.024 26.845-8.29 34.019-.435.72-.809 1.473-1.1 2.237-.544 1.452-.753 2.925-.38 4.272.38 1.336 1.342 2.606 3.162 3.683.654.39 1.44.759 2.353 1.105.984.374 1.875.72 2.677 1.045a12.275 12.275 0 0 1 5.184 2.71c.1.072.204.154.292.231 1.105.902 1.825 1.88 2.402 3.128a12.242 12.242 0 0 1 1.495 5.888v.028c.275 6.003-3.095 12.693-9.373 20.005-7.257 8.455-18.433 17.807-32.342 27.933.209.308.462.654.753 1.045a39.846 39.846 0 0 0 3.728 4.233c1.154 1.127 2.325 2.106 3.424 2.793.253.126.451.368.512.67v.006c1.237 6.042 3.656 11.776 5.25 15.41 4.42-10.484 10.836-19.902 19.703-26.719 7.455-5.728 16.24-9.093 26.246-9.07 9.043.021 19.06 2.798 29.978 9.12 5.948 3.436 12.545 11.094 20.137 19.896 9.077 10.527 19.588 22.721 31.875 31.039.638.44 1.22.857 1.765 1.286zm-5.998 74.42c1.199-.027 2.391-.054 3.59-.087 4.92-.127 9.835-.32 14.634-.627a.97.97 0 0 1 1.04.913.98.98 0 0 1-.495.912h-.006l-.016.011h-.006l-.016.011a8.224 8.224 0 0 0-3.557 3.47c-.011.027-.022.049-.033.07a8.465 8.465 0 0 0-.962 3.59 8.415 8.415 0 0 0 .901 4.195 8.31 8.31 0 0 0 2.606 2.99 8.422 8.422 0 0 0 4.535 1.55l.056.001c.033-.005.066-.005.104-.005v.005c.66.011 1.32-.055 1.968-.187l.05-.016h.01l.006-.006.077-.016a8.383 8.383 0 0 0 5.173-3.7c0-.006.006-.006.017.005.143-.22.27-.45.385-.681a10.304 10.304 0 0 0 .396-7.867 10.249 10.249 0 0 0-4.486-5.41 13.794 13.794 0 0 0-.682-.368 11.833 11.833 0 0 0-.643-.286.981.981 0 0 1-.671-.83v-.006a200.836 200.836 0 0 0-6.086-32.254 189.893 189.893 0 0 0-6.712-19.978c-.858 13.057-4.332 24.986-7.208 34.843-2.04 6.993-3.766 12.925-4.007 17.356-.017.358-.028.71-.028 1.067 0 .467.022.907.066 1.336zm-129.913-55.684c1.276.066 2.53.192 3.739.396 6.426 1.077 12.732 3.826 18.79 7.493 6.009 3.645 11.776 8.191 17.158 12.886 10.401 9.082 20.82 17.043 32.04 23.079-5.31-4.222-9.758-9.555-13.007-16.212-4.415-9.005-6.196-19.792-5.833-30.314.39-11.242 3.227-22.21 7.927-30.418.022-.055.055-.099.088-.143.198-.264.396-.517.61-.759 1.21-1.39 2.65-2.413 4.245-2.77 1.649-.38 3.413-.05 5.2 1.264.561.412 1.089.885 1.518 1.446.813 1.078 1.187 2.358.973 3.826-.204 1.358-.935 2.86-2.326 4.47-.857.984-1.962 2.023-3.359 3.095-.154.12-.319.247-.484.357-.637.457-1.396.93-2.232 1.452-3.628 2.254-8.856 5.497-9.5 11.21a.974.974 0 0 1-.197.488 75.885 75.885 0 0 0-.512 6.537c-.351 10.237 1.37 20.698 5.63 29.407 5.398 11.033 14.228 18.284 24.849 22.787 9.522 4.035 20.495 5.871 31.754 6.245v.006c.56.01 1.121.016 1.687.016h.072c3.002-.033 6.053-.066 9.12-.12-.033-.452-.055-.919-.055-1.403 0-.324.011-.643.028-.962.22-4.7 1.996-10.791 4.085-17.971 3.16-10.836 7.053-24.2 7.317-38.692v-.182h.005v-.192l.006-.066v-.258a48.693 48.693 0 0 0-.143-3.937 22.075 22.075 0 0 0-.154-1.495l-.006-.044v-.016a17.819 17.819 0 0 0-.252-1.347l-.011-.039c-.011-.033-.022-.066-.028-.099a13.502 13.502 0 0 0-.726-2.199l-.033-.071-.016-.033a9.602 9.602 0 0 0-.621-1.122l-.028-.044c-.192-.28-.368-.511-.533-.73l-.115-.138-.006-.006-.005-.005v-.006l-.017-.022v-.005l-.005-.006-.006-.005-.005-.006-.006-.005c-.918-1.089-2.1-2.029-3.568-3.024-12.507-8.472-23.106-20.759-32.26-31.38-7.47-8.67-13.974-16.207-19.631-19.483-10.61-6.136-20.303-8.84-29.005-8.863-9.555-.021-17.939 3.2-25.058 8.67-9.143 7.032-15.608 16.96-19.923 27.988-5.07 12.942-7.29 27.505-7.175 41.402v.072zm-84.025-320.387a19.682 19.682 0 0 0 1.1 2.38l.066.116c-1.572.935-3.865 2.155-5.833 3.03-.951.422-1.776.752-2.325.928.038-.984.263-2.056.593-3.128.583-1.886 1.496-3.738 2.331-5.13.495-.83 1.017-1.555 1.501-1.984.253-.225.445-.346.539-.324.676.165.99 1.11 1.435 2.44.176.523.368 1.09.593 1.672zm42.684 375.385c.093-.121.197-.231.302-.347a4.338 4.338 0 0 1 5.377-.67 4.3 4.3 0 0 1 1.924 2.66c.242 1.188.132 2.243-.512 3.288a4.269 4.269 0 0 1-2.419 1.863c-.852.264-1.924.204-2.836.292-1.853.176-3.332.846-4.492 1.83-.758.633-1.363 1.402-1.852 2.249a9.854 9.854 0 0 1-.132-1.578c0-1.578.269-3.183.896-4.574.429-.934 1.017-1.775 1.803-2.43a.976.976 0 0 0 1.105-.77c.016-.076.033-.142.05-.22l.049-.142h.005c0-.022.006-.039.011-.055a.721.721 0 0 1 .033-.127c.116-.335.27-.66.462-.956.044-.06.088-.127.138-.187h.005a.624.624 0 0 0 .083-.126zM34.17 481.306c.083-.116.143-.248.176-.39a5.573 5.573 0 0 1 1.452-2.766 5.485 5.485 0 0 1 2.71-1.54 5.527 5.527 0 0 1 4.195.677 5.535 5.535 0 0 1 2.089 2.314c.258.545.428 1.133.505 1.732a5.501 5.501 0 0 1-.786 3.59 5.468 5.468 0 0 1-2.666 2.243c-.038.016-1.473.368-1.473.368-.66.066-1.402.055-2.073.105-.462.038-.946.093-1.418.187-1.842.34-3.486 1.138-4.86 2.463a10.05 10.05 0 0 0-1.726 2.22c-.435-1.803-.512-3.639-.066-5.398.494-1.963 1.643-3.854 3.694-5.509.104-.088.187-.186.247-.296zm-15.992.423c.082-.11.143-.248.176-.39a5.538 5.538 0 0 1 1.457-2.766 5.542 5.542 0 0 1 6.9-.863 5.507 5.507 0 0 1 2.479 3.414c.313 1.523.165 2.88-.666 4.222a5.5 5.5 0 0 1-2.704 2.254c-1.248.484-2.364.358-3.673.473-.55.055-1.083.127-1.567.231-1.93.418-3.458 1.32-4.662 2.512a10.77 10.77 0 0 0-1.621 2.117c-.43-1.803-.506-3.64-.06-5.404.489-1.957 1.643-3.843 3.694-5.503a.905.905 0 0 0 .247-.297zm20.544-8.532c-.626.55-1.193 1.16-1.698 1.83a8.048 8.048 0 0 1 1.033-.318 7.466 7.466 0 0 1 5.668.918 7.45 7.45 0 0 1 2.958 3.414c.27.62.566 1.913.6 2.528a7.517 7.517 0 0 1-4.608 7.373 6.596 6.596 0 0 1-.896.302c-.94.258-1.715.253-2.644.302-.215.011-.44.028-.682.044-.363.033-.72.072-1.045.116.22.275.402.49.435.528.709.775 1.545 1.462 2.485 2.034.901.56 1.885 1 2.935 1.303 3.156.907 6.383.45 9.05-1.023a11.793 11.793 0 0 0 4.1-3.75c.05-.104.116-.208.204-.296.588-.93 1.05-1.957 1.374-3.062.907-3.156.451-6.383-1.028-9.055a11.843 11.843 0 0 0-7.108-5.673 11.865 11.865 0 0 0-8.213.605c-.534.241-2.205 1.16-2.53 1.577a.942.942 0 0 1-.39.303zm-1.995-.808a13.747 13.747 0 0 0-2.716 3.892c-.039.088-.258.572-.484 1.165-.11.303-.23.638-.313.957a7.051 7.051 0 0 0-.72 1.847c-.457.385-.874.775-1.26 1.177a5.513 5.513 0 0 0-.131-.72c-.484-1.963-1.65-3.602-3.365-4.657a7.485 7.485 0 0 0-6.707-.594 12.15 12.15 0 0 1 1.897-2.006.83.83 0 0 0 .192-.127l.039-.033c1.259-.984 2.518-1.627 3.71-2.028l.078-.022a11.836 11.836 0 0 1 6.916-.105c.698.204 1.38.473 2.034.803.286.137.566.291.83.45zm-15.795.236a13.449 13.449 0 0 0-2.781 3.826c-.072.138-.39.863-.655 1.529-.143.368-.275.73-.352.978-.137.275-.269.555-.373.847a6.024 6.024 0 0 0-.165-1.11c-.402-1.634-1.375-3.008-2.81-3.893a6.386 6.386 0 0 0-3.496-.935 8.251 8.251 0 0 1 2.694-1.94 8.121 8.121 0 0 1 2.54-.676h.016l.292-.017a9.56 9.56 0 0 1 2.957.352l.028.01c.511.171 1.011.386 1.479.644.214.121.423.242.626.385zm26.23-6.053c.214.627.505 1.226.868 1.798a13.93 13.93 0 0 0-7.191 1.16 13.86 13.86 0 0 0-2.567 1.523c-.479-.32-.979-.61-1.501-.869-.127-.06-.253-.126-.38-.187a15.624 15.624 0 0 1 1.837-1.462c1.28-.83 2.974-1.562 5.228-1.87h.01l.05-.005c1.067-.126 2.27-.154 3.645-.088zm48.202 27.99a.918.918 0 0 0-.55-.106c-.198.016-.335.027-.434.038l-.82.067h-5.525c-6.443-.507-11.396-2.821-15.008-6.114-4.684-4.266-7.152-10.193-7.762-15.981-.06-.54-.055-1.012-.71-1.21a18.27 18.27 0 0 0-5.244-.836 20.906 20.906 0 0 0-4.662.479 14.024 14.024 0 0 0-3.392-1.782c-1.122-.978-1.913-2.04-2.348-3.463 0-.115-.022-.236-.055-.34a7.93 7.93 0 0 1-.247-1.287V463.999a10.697 10.697 0 0 1 .06-2.133v-.005l.044-.193c.297-1.33.644-2.694 1.028-4.062.374-1.342.787-2.689 1.21-4.041.434-1.396.907-2.77 1.435-4.178a74.344 74.344 0 0 1 1.83-4.393c1.413-3.122 3.167-6.718 4.915-10.148 1.99-3.91 3.942-7.57 5.355-10.05l.335-.588c1.974-3.464 4.063-7.12 5.8-11.171 1.573-3.694 3.134-8.439 4.547-13.376 1.863-6.476 3.49-13.304 4.612-18.471a1276.94 1276.94 0 0 1 4.349-19.412c1.473-6.378 3.001-12.76 4.574-19.099.143-.572.324-1.275.538-2.094.891-3.365 2.26-8.544 3.074-14.074.39-2.694.527-5.234.665-7.73.214-4.046.429-7.982 1.776-12.292.285-.902.588-1.617.84-2.216.358-.835.633-1.49.726-2.089a.961.961 0 0 0 .1-.16c4.898-9.939 21.165-2.1 31.302 2.782 1.82.886 3.447 1.666 4.761 2.238 9.335 4.024 8.582 6.13 5.79 13.914-.803 2.249-1.766 4.932-2.744 8.307a251.114 251.114 0 0 1-.957 3.194c-.308 1-.637 2.023-.967 3.057-3.69 11.292-8.39 21.908-13.898 32.111-5.514 10.209-11.842 20.011-18.78 29.692-1.006 1.402-1.654 2.304-2.05 2.86-.479.659-.924 1.291-1.397 1.95-6.536 9.1-13.848 19.308-19.582 28.104a137.906 137.906 0 0 0-6.295 10.644c-2.836 5.332-4.42 9.158-4.8 10.203a17.489 17.489 0 0 0-.45 10.511c.907 3.304 2.815 6.158 5.564 7.763.648.38 1.33.67 2.034.929 4.051 1.512 7.614 1.28 10.566-.253 2.925-1.517 5.212-4.288 6.762-7.867.17-.385.324-.764.462-1.149.693-1.847 1.066-3.42 1.418-4.91l.011-.027-.005-.005c.132-.561.27-1.116.412-1.671a.805.805 0 0 0 .06-.226c.451-1.66 1.04-3.304 2.21-5.151 2.194-3.47 4.992-6.971 7.708-10.374 2.018-2.523 3.991-4.997 5.69-7.416 5.597-8.005 11.655-15.822 17.983-23.354a410.508 410.508 0 0 1 20.313-22.413c.34-.352 1.935-1.43 2.342-1.672 1.567-.923 3.551-1.374 5.734-1.874v.005l.066-.016c2.26-.517 4.722-1.083 7.218-2.227-3.353 3.98-6.822 7.79-10.313 11.193a227.587 227.587 0 0 0-8.46 8.675 261.286 261.286 0 0 0-7.89 8.95v-.005a.925.925 0 0 0-.148.242c-5.344 9.824-10.138 20.368-13.502 31.05-2.92 9.247-4.767 18.61-4.987 27.724-.038 1.908-1.418 3.788-2.864 5.75-1.49 2.024-3.04 4.135-3.551 6.691-.775 3.903-1.781 7.647-3.986 10.336-2.172 2.633-5.58 4.326-11.259 4.272v-.006c-.033 0-.066 0-.099.006h-.478zm-42.661-.013l26.509.006a24.503 24.503 0 0 1-7.499-4.662 24.38 24.38 0 0 1-3.887-4.53c-1.99.434-3.837 1.039-5.492 1.786-1.616.737-3.045 1.617-4.222 2.628a13.786 13.786 0 0 1-4.86 4.48 7.529 7.529 0 0 1-.55.292zm-21.265 0c.473-1.077 1.116-2.056 1.935-2.853a7.187 7.187 0 0 1 2.04-1.385l.022.027c.368.506.896 1.138.978 1.22.847.913 1.815 1.721 2.887 2.381.357.22.725.423 1.105.61h-8.967zm-15.794-.005c.434-.869.978-1.672 1.649-2.342.951-.94 2.166-1.65 3.705-1.985.43-.099.88-.154 1.325-.198 1.534-.137 2.837-.022 4.354-.649a7.58 7.58 0 0 0 1.33-.72c-.148 1.985.188 3.986.836 5.894h-13.2zm-12.183-3.002l.028-.071c.39-1.254.995-2.408 1.885-3.288.759-.748 1.732-1.303 2.958-1.556 1.204-.247 2.463-.099 3.617-.374a5.9 5.9 0 0 0 .693-.203c-.121.335-.214.665-.302 1.006-.627 2.48-.385 5.052.373 7.488H7.327c-1.094 0-1.891-.336-2.49-.885-.583-.528-1.012-1.26-1.375-2.117zm2.177-11.523a.933.933 0 0 0 .38-.258l.005-.006.005-.01a.954.954 0 0 0 .27-.501c.12-.462.27-.973.577-1.451.313-.5.83-1.017 1.715-1.512.033-.022.066-.039.094-.06a4.333 4.333 0 0 1 4.085.242 4.343 4.343 0 0 1 1.929 2.66c.242 1.188.126 2.249-.517 3.293a4.26 4.26 0 0 1-1.847 1.644c-1.248.577-2.974.363-4.392.654-1.633.34-2.925 1.078-3.937 2.078a8.822 8.822 0 0 0-1.413 1.842c-.252-1.468-.236-2.914.066-4.239.424-1.814 1.402-3.38 2.98-4.376zm41.891-21.748c-.038.06-.066.137-.093.214a18.408 18.408 0 0 0-.704 3.134 8.867 8.867 0 0 0-.071 2.55v.039c.01.121.027.253.038.38-1.654-.077-3.111.032-4.392.269l-.033.01c-1.045.182-1.98.457-2.831.804-.44.175-.847.379-1.237.593l-.022.006-.088.044c-1.71.929-2.898 2.045-3.75 2.924a13.829 13.829 0 0 0-4.189-.522c-.995.028-2.089.17-3.243.495h-.011l-.105.033-.033.01a13.765 13.765 0 0 0-4.233 2.034 7.322 7.322 0 0 0-1.38-.873l-.027-.017h-.006a10.24 10.24 0 0 0-1.869-.709h-.005l-.011-.005-.022-.006-.072-.022a10.083 10.083 0 0 0-3.727-.357c-1.919.148-3.887.808-5.575 2.265-.445.39-.868.83-1.275 1.325a9.828 9.828 0 0 0-1.21 1.825 6.033 6.033 0 0 0-1.363 1.067 6.328 6.328 0 0 0-1.54 2.677C2.49 479.76 1.28 481.712.758 483.95c-.577 2.49-.295 5.333.748 7.993.49 1.226 1.105 2.331 2.007 3.161.95.864 2.171 1.391 3.815 1.391h5.822c.104.21.291.374.577.462a.979.979 0 0 0 1.143-.462l14.75.006.1.033c.23.066.467.05.67-.033l57.538.01c1.803.138 3.71.144 5.728 0h2.188c.028.006.055.006.082.006v-.005c6.367.06 10.253-1.913 12.782-4.986 2.485-3.024 3.574-7.037 4.398-11.193.43-2.134 1.848-4.063 3.205-5.916 1.633-2.215 3.184-4.337 3.25-6.855.208-8.912 2.028-18.098 4.887-27.191 3.331-10.561 8.07-20.984 13.353-30.693a254.03 254.03 0 0 1 7.757-8.802 230.626 230.626 0 0 1 8.39-8.603c4.893-4.767 9.725-10.286 14.25-15.987 4.134-5.223 8.026-10.594 11.473-15.657a29.04 29.04 0 0 0 1.39-2.056 170.77 170.77 0 0 0 1.831-2.777c.407-.61.699-1.088.935-1.479.077-.088.154-.175.225-.263.286.434.66.995 1.199 1.698a41.868 41.868 0 0 0 3.914 4.448c1.15 1.121 2.331 2.105 3.475 2.859 1.407 6.575 4.084 12.666 5.64 16.212l.412.94c-5.04 13.057-7.25 27.708-7.13 41.699v.016h-.16c-.153 0-.307 0-.472.006-8.28.17-17.367 3.035-24.723 7.9-5.382 3.557-9.851 8.197-12.43 13.65-.978 1.831-1.896 4.102-2.314 6.812-.28 1.825-.456 4.145-.21 6.58-.005.039 0 .088 0 .138.04.374.094.748.171 1.11.242 1.48.66 2.969 1.32 4.393a14.338 14.338 0 0 0 5.156 6.262c-1.506.45-2.76 1.16-3.644 1.825-.022.016-.044.038-.066.05-.962.747-1.903 1.682-2.617 2.693l-.066.083h.005-.005c-.583.857-1 1.77-1.138 2.688a5.412 5.412 0 0 0-.72 1.418c-1.375.918-2.348 2.194-3.002 3.645-.753 1.655-1.083 3.54-1.083 5.371 0 2.903 1.077 5.47 3.112 7.279 1.88 1.677 4.568 2.683 7.955 2.683l50.33.022 44.239.016h8.455l.627.187c.104.028.22.05.335.05v-.006c14.288-.077 28.406-.126 42.524-.16 14.062-.027 28.13-.038 42.353-.027a10.449 10.449 0 0 0 4.563-.83l.022-.005.027-.017c.27-.115.539-.242.797-.38a10.315 10.315 0 0 0 3.816-3.54l.016-.027c.011-.011.017-.028.028-.039.165-.263.33-.55.472-.863.149-.308.297-.643.424-.99a12.182 12.182 0 0 0 .06-8.372 12.203 12.203 0 0 0-6.152-6.877c-.099-.05-.192-.1-.29-.138a202.418 202.418 0 0 0-6.087-32.012 189.412 189.412 0 0 0-8.406-24.107v-.066l.006-.071v-.264c.022-2.001-.06-3.717-.242-5.212v-.006l-.005-.06-.006-.016a16.03 16.03 0 0 0-.374-2.128v-.016l-.005-.017-.006-.011v-.017c-.16-.66-.346-1.27-.566-1.841l-.033-.1-.005-.005a10.46 10.46 0 0 0-1.15-2.22l-.016-.023-.022-.027c-.17-.253-.357-.5-.544-.737-1.43-7.389-1.715-14.178-1.996-20.885-.23-5.322-.45-10.594-1.231-16.053-4.899-34.464-14.069-71.122-29.78-103.046-12.865-26.141-30.105-49.12-52.992-65.13l-.022-.022v.006l-.038-.028c-.363-.286-.77-.621-1.231-1.011-.39-.325-.765-.649-1.133-.979a.757.757 0 0 0-.165-.132c-8.153-5.173-4.717-14.876-1.677-23.48 1.243-3.496 2.42-6.817 2.799-9.72.143-1.094.318-2.358.51-3.754.166-1.193.353-2.54.562-3.992a8.17 8.17 0 0 0 .203-1.105c.165-1.044.38-2.496.957-2.699l.027-.011.357-.104c3.123-.864 10.908-3.019 11.111-9.88.06-1.913-.335-3.677-1.413-5.04-.94-1.188-2.358-2.035-4.398-2.332l-.077-.016v.005l-.17-.027c-.83-.11-1.49-.198-2.21-1.182a1.798 1.798 0 0 1-.204-.413 4.18 4.18 0 0 1-.176-.698c-.143-.725-.209-1.775-.187-2.842.017-.902.11-1.792.292-2.485.066-.23.132-.456.198-.632.06-.187.132-.357.203-.495.39-.715 1.413-1.138 2.546-1.605.247-.1.494-.204.67-.28a11.494 11.494 0 0 0 4.47-3.338c.38-.461.758-.978 1.116-1.522.368-.561.703-1.127.995-1.672.016-.022.027-.044.038-.066h-.005.005c.528-1 1.023-2.138 1.38-3.32.292-.99.49-2.018.511-3.024 0-.027.006-.06.006-.093h-.006c.022-1.37-.335-2.76-1.044-3.898-.654-1.056-1.605-1.902-2.826-2.336-.027-.017-.06-.022-.093-.033v.005-.005c-.731-.242-1.48-.28-2.227-.325-.912-.05-1.847-.099-2.518-.61a1.176 1.176 0 0 1-.308-.352 1.97 1.97 0 0 1-.22-.594c-.098-.44-.11-1.248-.065-2.083.05-.918.165-1.842.313-2.348.022-.088.05-.16.071-.22.011-.033.028-.06.039-.088l.027-.033c1.144-1.715 2.617-2.803 3.92-3.765.44-.33.863-.644 1.281-.99.028-.016.05-.033.077-.05 1.133-.94 2.04-2.27 2.595-3.71.539-1.413.748-2.958.495-4.404-.21-1.215-.688-2.26-1.44-3.067-.726-.765-1.688-1.292-2.892-1.49-.49-.077-.962-.105-1.408-.127-.605-.027-1.127-.055-1.242-.16-.05-.049-.116-.296-.193-.626-.132-.605-.209-1.385-.247-2.034-.077-1.27-.066-2.545-.05-3.82.006-.677.011-1.348.006-2.018a.503.503 0 0 0 .005-.088h-.005l-.006-.715c.033-.33.094-.627.182-.885.088-.231.203-.434.352-.6.445-.5 1.105-1.027 1.814-1.616 1.902-1.55 4.15-3.392 4.97-6.322l.016-.06c.094-.336.16-.693.198-1.061.165-1.408-.071-2.914-.682-4.173-.648-1.336-1.71-2.402-3.172-2.798a5.162 5.162 0 0 0-.632-.121c-.016 0-.038-.006-.06-.006a10.155 10.155 0 0 0-.825-.038c-1.006-.022-2.584-.06-2.798-.803-.088-.297-.248-.687-.44-1.149a35.418 35.418 0 0 1-.577-1.435c-.226-.632-.33-1.193-.457-1.825a15.277 15.277 0 0 0-.137-.709c-.577-2.754-1.286-5.338-2.128-7.713-.84-2.386-1.83-4.574-2.98-6.531-2.49-4.255-4.854-7.389-7.509-10.11-2.534-2.6-5.31-4.81-8.703-7.273.198-2.271-.066-4.3-.698-6.07-.005-.022-.016-.044-.027-.071-.88-2.408-2.452-4.316-4.486-5.701-2.007-1.364-4.453-2.21-7.12-2.524a21.159 21.159 0 0 0-4.612-.033l-.033.006c-.797.06-1.589.181-2.358.346l-.055.011h-.017c-1.242.253-2.49.605-3.733 1.056a17.16 17.16 0 0 0-1.352.401c-.028.006-.05.017-.077.022v.006l-.358.11c-8.592-1.7-19.29-3.19-30.01-4.036-9.583-.764-19.187-1.022-27.33-.483-.824.055-1.692.093-2.61.131-3.2.143-7.02.308-9.56 1.072a6.987 6.987 0 0 0-.589.127 8.619 8.619 0 0 0-1.699.605c-2.364 1.039-2.688 2.573-2.913 3.678-.05.22.181.335.05.362-.721.143-1.65.204-2.722.27-2.062.126-4.635.286-7.73 1.182-.797.225-1.363.819-1.896 1.374-.358.363-.688.71-.732.704l-.022-.006c-3.567-.571-8.075-.929-11.847-.967-3.59-.044-6.591.209-7.718.824l-.05.028h.006l-.033.022h.005c-3.87 2.26-3.194 9.192-2.705 14.244.132 1.325.248 2.512.253 3.392-1.264 2.947-1.93 6.669-2.105 10.242-.198 4.09.258 8.032 1.204 10.456.665 1.683 1.676 1.98 2.644 2.194.005.038.05.214.148.522.187.566.451 1.287.836 2.001.187.341.38.654.6.93-.006.692.104 1.5.362 2.44.275 1 .731 2.155 1.407 3.491.836 1.655 1.683 3.14 2.49 4.195 1.012 1.303 2.062 2.001 3.151 1.737 1.72-.418 2.183-1.792 2.826-3.722.165-.478.335-1 .56-1.578.27-.681.545-1.215.792-1.687.45-.852.82-1.556.968-2.612 5.904.248 13.606 3.788 20.16 8.725 3.056 2.298 5.849 4.893 8.08 7.587.451.577.88 1.17 1.298 1.764 1.254 1.804 2.331 3.678 3.14 5.591.335.924.576 1.842.703 2.744-4.871 1.434-12.43 6.822-20.176 12.347-4.134 2.947-8.329 5.932-12.139 8.345l-.005-.016c-.231-.423-.545-.99-1-2.16-.226-.578-.397-1.095-.562-1.573-.643-1.93-1.105-3.304-2.825-3.722-.797-.192-1.567.116-2.293.764-.649.578-1.297 1.452-1.885 2.436-.897 1.5-1.886 3.513-2.518 5.558-.473 1.512-.754 3.051-.677 4.453-.01.022-.016.05-.022.071-.467 1.435-.83 2.689-.725 4.552.11 1.782.665 4.08 2.034 7.592.297.754.517 1.347.737 1.936.544 1.451 1.06 2.847 1.687 4.15.622 1.309 1.584 1.342 2.485 1.37.242.005.473.016.473.021 1.385 2.502 1.495 5.096.797 7.543-.852 3.018-2.914 5.838-5.343 8.048-1.584 1.43-3.134 2.656-4.712 3.898-2.237 1.765-4.524 3.573-7.01 6.042-.104.099-.269.302-.434.506l-.033.005c-1.116-.297-2.314-.385-3.502-.302-2.15.143-4.293.852-5.92 1.918-.446.286-.88.638-1.287 1.023-1.275 1.215-2.342 2.88-2.864 4.618-.396 1.347-.473 2.749-.06 4.024-5.982 5.893-11.562 12.249-16.059 18.593-4.15 5.866-7.367 11.715-9.104 17.163l-.302.577c-3.711 5.866-6.498 11.974-8.021 18.07-.467 1.612-.748 3.069-.786 4.284-.176 6.36 2.611 9.642 5.602 13.177.67.775 1.341 1.567 1.962 2.375 2.7 3.491 5.927 9.165 8.164 13.1.594 1.04 1.11 1.958 1.578 2.744.99 1.677 2.194 4.734 3.375 8.109 1.188 3.409 2.364 7.13 3.283 10.088 2.259 7.29 14.711 16.987 23.227 23.623 1.143.89 2.215 1.72 3.084 2.413 1.792 1.419 1.561 1.963.95 3.398-.274.643-.598 1.418-.912 2.402-1.418 4.536-1.638 8.593-1.858 12.771-.132 2.43-.264 4.91-.654 7.548-.792 5.432-2.139 10.545-3.024 13.86-.214.819-.401 1.534-.544 2.122a1180.752 1180.752 0 0 0-4.585 19.131 1307.628 1307.628 0 0 0-4.354 19.434c-1.105 5.135-2.727 11.913-4.58 18.357-1.401 4.87-2.93 9.538-4.469 13.139-1.688 3.958-3.744 7.559-5.695 10.973l-.33.583c-1.457 2.55-3.425 6.245-5.41 10.132-1.743 3.436-3.507 7.053-4.948 10.225a74.918 74.918 0 0 0-3.348 8.802 110.217 110.217 0 0 0-1.226 4.095c-.115.39-.22.786-.33 1.188zm19.214 25.338c-1.869.45-3.622 1.04-5.217 1.76-.604.28-1.193.577-1.748.89.033-.094.06-.193.082-.286a13.81 13.81 0 0 0-3.315-13.425c.908-.126 1.82-.192 2.738-.176 1.33.017 2.683.198 4.063.566.423 3.645 1.534 7.329 3.397 10.671zM241.506 75.56a2.323 2.323 0 0 1 2.326 2.325 2.323 2.323 0 1 1-4.646 0 2.318 2.318 0 0 1 2.32-2.326zm-80.05 391.882l-.01-.006-.424-.093a9.033 9.033 0 0 1-4.673-2.892 10.018 10.018 0 0 1-.704-.946c-.956-1.467-1.247-1.902-1.693-3.595a16.118 16.118 0 0 1-.429-2.364 27.077 27.077 0 0 1-.153-2.265c-.006-.253-.006-.462-.011-.632l.005-.006c-.005-.483-.016-.984.006-1.577.038-.93.137-1.848.285-2.75.341-2.06.979-4.04 1.859-5.92.808-1.512 1.682-2.716 2.309-3.59.274-.374.5-.693.67-.957 2.804-4.299 8.043-8.042 13.926-10.819 6.712-3.16 14.21-5.046 19.912-5.074v.006c.132 0 .258-.028.374-.072a30.96 30.96 0 0 1 4.216.401c6.168 1.028 12.249 3.684 18.104 7.23 5.893 3.573 11.572 8.048 16.883 12.688 11.792 10.291 23.617 19.17 36.619 25.487 13.035 6.327 27.235 10.077 43.738 10.077.028 0 .061-.006.094-.006 4.832-.055 9.786-.126 14.7-.253 3.86-.104 7.703-.236 11.446-.44a10.103 10.103 0 0 0-1.325 1.71l-.077.132c-4.628.462-9.428.698-14.161.78-5.872.1-11.672-.038-16.922-.285-11.017-.533-20.264-1.44-29.115-3.826-8.823-2.38-17.268-6.245-26.723-12.694-4.662-3.183-9.665-7.169-14.855-11.298-.814-.648-1.627-1.297-2.452-1.957-1.226-.962-1.545-1.226-1.913-1.517-9.434-7.548-25.712-20.572-38.065-20.286-5.794.132-11.946 1.76-17.158 4.145-5.443 2.49-9.896 5.833-11.913 9.208a.969.969 0 0 0 .445 1.49c.16.06.325.077.49.05l.516-.033c.154-.006.347-.011.583-.011 3.392 0 6.46 1.374 8.686 3.595a12.248 12.248 0 0 1 3.596 8.686c0 3.392-1.375 6.466-3.596 8.687a12.24 12.24 0 0 1-8.686 3.6h-.033a10.848 10.848 0 0 0 4.48-2.303 10.915 10.915 0 0 0 3.821-7.466 10.935 10.935 0 0 0-2.59-7.977 10.852 10.852 0 0 0-5.14-3.37 10.98 10.98 0 0 0-6.162-.071.978.978 0 0 0-.676 1.204.972.972 0 0 0 1.204.676 9.05 9.05 0 0 1 5.074.06 8.948 8.948 0 0 1 4.217 2.771 8.974 8.974 0 0 1 2.122 6.553 8.984 8.984 0 0 1-3.134 6.136 8.994 8.994 0 0 1-7.587 1.979zm-.01 3.062l-.424-.143a4.898 4.898 0 0 1-.302-.11 9.47 9.47 0 0 0-1.721.247c-1.5.363-2.727 1.028-3.551 1.65-.022.022-.039.038-.06.055-.529.412-1.05.88-1.507 1.38l.242-.066a6.256 6.256 0 0 1 4.739.77c1.445.89 2.418 2.259 2.82 3.897.093.363.137.731.16 1.105a7.25 7.25 0 0 1 .697-1.402 10.127 10.127 0 0 1 .44-1.451c.94-2.122 2.37-3.92 4.112-5.283-.406.038-.813.055-1.231.055-1.54 0-3.013-.248-4.404-.693l-.01-.011zm41.731-257.017h-.005.005z"/>
</svg>
