<svg xmlns="http://www.w3.org/2000/svg" width="14" height="19" viewBox="0 0 14 19">
    <g fill="#3F4649" fill-rule="nonzero">
        <path d="M6.609 18.881l-.35-.435C6.026 18.129.078 11.044.078 6.808c0-3.68 2.954-6.65 6.53-6.65 3.577 0 6.532 3.009 6.532 6.65 0 4.236-5.948 11.36-6.181 11.638l-.35.435zm0-17.812c-3.11 0-5.598 2.573-5.598 5.7 0 3.325 4.315 8.985 5.598 10.608 1.283-1.623 5.598-7.244 5.598-10.608 0-3.127-2.488-5.7-5.598-5.7z"/>
        <path d="M6.609 9.342c-1.36 0-2.488-1.148-2.488-2.534 0-1.385 1.127-2.533 2.488-2.533 1.36 0 2.488 1.148 2.488 2.533 0 1.386-1.128 2.534-2.488 2.534zm0-4.117c-.856 0-1.555.713-1.555 1.583 0 .871.7 1.584 1.555 1.584s1.555-.713 1.555-1.584c0-.87-.7-1.583-1.555-1.583z"/>
    </g>
</svg>
