<svg xmlns="http://www.w3.org/2000/svg" xmlns:xlink="http://www.w3.org/1999/xlink" width="295" height="120" viewBox="0 0 295 120">
    <defs>
        <path id="a" d="M0 .288h119.342v47.716H0z"/>
        <path id="c" d="M.561.339H11.4V15.82H.561z"/>
    </defs>
    <g fill="none" fill-rule="evenodd">
        <g>
            <mask id="b" fill="#fff">
                <use xlink:href="#a"/>
            </mask>
            <path fill="#C69F5B" d="M0 48.004a201.22 201.22 0 0 0 59.67-20.63 201.22 201.22 0 0 0 59.672 20.63V24.149A178.055 178.055 0 0 1 59.671.287 178.04 178.04 0 0 1 0 24.15v23.855z" mask="url(#b)"/>
        </g>
        <path fill="#141415" d="M138.94 59.868c0-1.212.478-2.325 1.213-3.06.777-.775 1.79-1.193 2.964-1.193 1.411 0 2.505.497 3.56 1.45l1.272-1.43c-1.412-1.292-2.823-1.928-4.832-1.928-1.85 0-3.42.656-4.535 1.77-1.114 1.132-1.77 2.642-1.77 4.391 0 1.769.637 3.299 1.81 4.431 1.133 1.114 2.665 1.77 4.495 1.77 2.009 0 3.42-.597 4.832-1.968l-1.273-1.41c-1.054.933-2.148 1.45-3.56 1.45a4.208 4.208 0 0 1-3.022-1.272c-.697-.695-1.154-1.73-1.154-3.001M155.287 56.072h.238l2.288 5.664h-4.753l2.227-5.664zm-.974-2.146l-5.29 11.924h2.247l.974-2.187h6.364l.994 2.187h2.287l-5.29-11.924h-2.286zM165.767 53.926h-2.664l4.275 5.764-4.434 6.16h2.465l3.381-4.81 3.38 4.81h2.666l-4.555-6.181 4.077-5.743h-2.505l-2.964 4.412zM182.194 56.072h.238l2.287 5.664h-4.752l2.227-5.664zm-.974-2.146l-5.29 11.924h2.246l.975-2.187h6.363l.994 2.187h2.287l-5.289-11.924h-2.286zM193.668 53.926l-1.194 8.744a1.954 1.954 0 0 1-.438 1.014c-.217.218-.556.318-.934.318-.318 0-.615 0-1.114-.14l-.397 1.75c.696.258 1.173.318 1.87.318.874 0 1.57-.22 2.087-.677.458-.456.775-1.132.915-2.027l1.035-7.392h4.533V65.85h2.088V53.926h-8.45zM206.176 53.926h-2.068V65.85h1.949l6.861-8.705v8.705h2.028V53.926h-1.948l-6.822 8.684zM225.347 53.926v4.61h-6.283v-4.61h-2.129V65.85h2.129v-5.426h6.283v5.426h2.108V53.926zM231.154 59.868c0-1.212.478-2.325 1.213-3.06.776-.775 1.79-1.193 2.964-1.193 1.411 0 2.504.497 3.56 1.45l1.271-1.43c-1.411-1.292-2.823-1.928-4.831-1.928-1.85 0-3.421.656-4.535 1.77-1.114 1.132-1.77 2.642-1.77 4.391 0 1.769.636 3.299 1.81 4.431 1.133 1.114 2.664 1.77 4.495 1.77 2.008 0 3.42-.597 4.831-1.968l-1.271-1.41c-1.056.933-2.149 1.45-3.56 1.45a4.208 4.208 0 0 1-3.023-1.272c-.697-.695-1.154-1.73-1.154-3.001M241.714 53.926V65.85h2.107v-5.386h1.811c.258 0 .497-.02.755-.08l3.461 5.466h2.505l-4.196-6.38c.219-.218.378-.516.517-.735l1.333-2.265c.139-.26.298-.398.516-.537.26-.159.577-.198 1.035-.198h.517l.218-1.809c-.457-.139-.755-.139-1.213-.139-.735 0-1.312.159-1.77.456-.457.3-.796.676-1.094 1.213l-1.392 2.425c-.139.219-.279.397-.496.496-.22.12-.497.179-.796.179h-1.71v-4.63h-2.108zM255.972 53.926h-2.069V65.85h1.95l6.86-8.705v8.705h2.029V53.926h-1.949l-6.82 8.684zM273.83 50.369c-.138.337-.318.596-.536.775-.26.218-.597.338-.975.338-.377 0-.716-.12-.994-.378a2.324 2.324 0 0 1-.517-.735l-1.451.695c.218.616.615 1.074 1.073 1.411.537.418 1.173.616 1.87.616.695 0 1.371-.218 1.908-.616.458-.337.856-.795 1.074-1.41l-1.451-.696zm-5.051 3.557h-2.068V65.85h1.949l6.86-8.704v8.704h2.03V53.926h-1.95l-6.821 8.685v-8.685zM138.94 77.865c0-1.212.438-2.245 1.134-2.981a4.16 4.16 0 0 1 3.043-1.292c1.173 0 2.247.477 3.022 1.272.697.716 1.134 1.75 1.134 3.001 0 1.212-.418 2.246-1.114 2.981a4.16 4.16 0 0 1-3.042 1.292c-1.214 0-2.307-.497-3.043-1.312-.696-.735-1.134-1.768-1.134-2.96m4.177-6.181c-1.91 0-3.52.715-4.634 1.907-1.055 1.113-1.67 2.603-1.67 4.273 0 1.59.636 3.1 1.65 4.193 1.114 1.193 2.745 1.988 4.654 1.988 1.91 0 3.46-.676 4.593-1.849 1.095-1.113 1.69-2.603 1.69-4.332 0-1.73-.635-3.259-1.77-4.431-1.112-1.113-2.664-1.75-4.513-1.75M159.165 79.793c0 .556-.139 1.073-.517 1.451-.378.417-.915.675-1.571.675h-3.958v-4.233h3.858c.676 0 1.213.199 1.612.597.377.377.576.894.576 1.51zm-6.046-4.014V73.81h6.96v-1.908h-9.088v11.924h6.086c1.273 0 2.346-.437 3.083-1.212.735-.736 1.113-1.69 1.113-2.822 0-1.173-.397-2.126-1.094-2.822-.736-.776-1.829-1.192-3.102-1.192h-3.958zM166.076 71.903l-1.194 8.744c-.06.418-.218.755-.437 1.014-.219.218-.556.318-.935.318-.318 0-.616 0-1.113-.14l-.398 1.75c.696.258 1.174.318 1.87.318.874 0 1.57-.22 2.088-.677.456-.456.775-1.131.915-2.026l1.034-7.393h4.533v10.017h2.089V71.903h-8.452zM182.304 74.05h.238l2.287 5.663h-4.752l2.227-5.663zm-.974-2.146l-5.29 11.923h2.246l.975-2.186h6.363l.994 2.186h2.287l-5.29-11.923h-2.285zM191.571 77.845c0-1.212.478-2.325 1.213-3.06.777-.775 1.79-1.193 2.964-1.193 1.411 0 2.504.497 3.56 1.45l1.271-1.43c-1.412-1.291-2.823-1.927-4.831-1.927-1.85 0-3.421.655-4.535 1.768-1.114 1.133-1.77 2.643-1.77 4.392 0 1.769.637 3.299 1.81 4.432 1.133 1.113 2.664 1.769 4.495 1.769 2.008 0 3.42-.597 4.831-1.968l-1.272-1.41c-1.055.933-2.148 1.45-3.56 1.45a4.208 4.208 0 0 1-3.022-1.272c-.697-.695-1.154-1.729-1.154-3M201.634 73.811h4.433v10.017h2.09V73.81h4.434v-1.908h-10.957zM222.494 71.903v4.61h-6.284v-4.61h-2.127v11.925h2.127V78.4h6.284v5.427h2.108V71.903zM229.106 77.865c0-1.212.437-2.245 1.133-2.981a4.16 4.16 0 0 1 3.043-1.292c1.173 0 2.247.477 3.023 1.272.696.716 1.133 1.75 1.133 3.001 0 1.212-.418 2.246-1.113 2.981a4.16 4.16 0 0 1-3.043 1.292c-1.213 0-2.306-.497-3.043-1.312-.696-.735-1.133-1.768-1.133-2.96m4.176-6.181c-1.91 0-3.52.715-4.633 1.907-1.055 1.113-1.67 2.603-1.67 4.273 0 1.59.635 3.1 1.649 4.193 1.114 1.193 2.744 1.988 4.654 1.988 1.91 0 3.46-.676 4.593-1.849 1.095-1.113 1.69-2.603 1.69-4.332 0-1.73-.635-3.259-1.77-4.431-1.112-1.113-2.664-1.75-4.513-1.75M248.276 68.346c-.139.337-.318.596-.537.775a1.49 1.49 0 0 1-.975.338c-.377 0-.715-.12-.993-.378a2.324 2.324 0 0 1-.518-.735l-1.451.695c.218.617.616 1.074 1.073 1.411.538.418 1.174.616 1.87.616.695 0 1.372-.218 1.908-.616.459-.337.856-.794 1.075-1.41l-1.452-.696zm-5.052 3.558h-2.067v11.923h1.948l6.862-8.704v8.704h2.029V71.904h-1.95l-6.822 8.684v-8.684zM137.21 89.88v11.924h2.108v-5.386h1.81c.258 0 .497-.02.755-.08l3.461 5.466h2.506l-4.197-6.379c.22-.218.379-.517.518-.735l1.333-2.266a1.34 1.34 0 0 1 .515-.537c.26-.158.578-.198 1.035-.198h.518l.217-1.809c-.457-.138-.754-.138-1.212-.138-.736 0-1.312.158-1.77.456-.458.299-.796.676-1.094 1.212l-1.392 2.426c-.139.218-.279.397-.497.496a1.68 1.68 0 0 1-.795.178h-1.71v-4.63h-2.108zM155.267 96.637h-3.699v-4.81h3.54c.775 0 1.412.3 1.83.795.398.418.596.975.596 1.63 0 .537-.278 1.173-.596 1.63-.379.457-1.015.755-1.671.755m4.415-2.385c0-1.113-.378-2.007-.994-2.781-.855-1.014-2.089-1.59-3.5-1.59H149.4v11.923h2.167v-3.24h3.62a4.62 4.62 0 0 0 3.202-1.251c.775-.775 1.292-1.848 1.292-3.06M165.432 92.027h.238l2.287 5.663h-4.752l2.227-5.663zm-.974-2.146l-5.29 11.923h2.247l.974-2.186h6.364l.993 2.186h2.288l-5.29-11.923h-2.286zM173.525 101.804h9.546v-1.928h-7.398v-3.359h6.364V94.59h-6.364v-2.762h7.12v-1.947h-9.268zM192.458 93.12c0 .377-.12.695-.339.953-.218.24-.516.418-.895.418h-4.256v-2.762h3.938c.478 0 .856.139 1.154.397.259.239.398.576.398.994zm.695 5.008c0 .497-.16.954-.457 1.252-.377.338-.876.576-1.412.576h-4.316v-3.617h4.416c.537 0 1.054.239 1.391.616.258.299.378.676.378 1.173zm-1.89 3.676c1.135 0 2.129-.397 2.865-1.093.696-.636 1.093-1.53 1.093-2.564 0-.755-.198-1.41-.596-1.967a3.102 3.102 0 0 0-1.194-.954v-.1c.339-.218.618-.495.816-.814.219-.398.298-.835.298-1.291 0-.875-.278-1.57-.815-2.108-.697-.695-1.67-1.032-2.705-1.032h-6.165v11.923h6.403zM197.012 101.804h9.545v-1.928h-7.398v-3.359h6.364V94.59h-6.364v-2.762h7.12v-1.947h-9.267zM217.534 91.788v8.108h-6.065c.457-.616.576-1.192.716-1.987l.895-6.12h4.454zm-6.284-1.908l-1.074 7.592c-.1.695-.318 1.331-.636 1.749-.3.378-.736.675-1.69.675v4.233h1.77l.218-2.325h8.93l.257 2.325h1.79v-4.233h-1.173V89.88h-8.392zM232.678 101.804V89.881h-2.127v6.438c-.936.537-1.99.796-3.163.796-1.073 0-1.89-.28-2.425-.856-.638-.635-.916-1.53-.916-2.722v-3.656h-2.107v3.755c0 1.888.537 3.3 1.492 4.193.893.815 2.186 1.213 3.837 1.213 1.055 0 2.308-.298 3.282-.795v3.557h2.127zM234.667 101.804h9.546v-1.928h-7.399v-3.359h6.364V94.59h-6.364v-2.762h7.12v-1.947h-9.267zM247.713 95.822c0-1.212.477-2.325 1.212-3.06.776-.776 1.79-1.193 2.964-1.193 1.412 0 2.505.497 3.56 1.45l1.272-1.43c-1.412-1.291-2.823-1.927-4.832-1.927-1.85 0-3.42.655-4.534 1.769-1.114 1.132-1.77 2.642-1.77 4.391 0 1.77.636 3.299 1.81 4.432 1.133 1.113 2.664 1.769 4.494 1.769 2.009 0 3.42-.597 4.832-1.968l-1.272-1.41c-1.055.933-2.148 1.45-3.56 1.45a4.208 4.208 0 0 1-3.023-1.272c-.696-.696-1.153-1.729-1.153-3M258.272 89.88v11.924h2.108v-5.386h1.81c.259 0 .497-.02.755-.08l3.462 5.466h2.504l-4.196-6.379c.22-.218.378-.517.517-.735l1.333-2.266c.14-.259.298-.398.517-.537.259-.158.577-.198 1.034-.198h.517l.219-1.809c-.458-.138-.756-.138-1.213-.138-.736 0-1.313.158-1.77.456-.457.299-.796.676-1.094 1.212l-1.392 2.426c-.14.218-.279.397-.496.496-.22.119-.498.178-.797.178h-1.71v-4.63h-2.108zM272.53 89.88h-2.068v11.924h1.95l6.86-8.704v8.704h2.028V89.88h-1.948l-6.821 8.685z"/>
        <g transform="translate(282.708 85.984)">
            <mask id="d" fill="#fff">
                <use xlink:href="#c"/>
            </mask>
            <path fill="#141415" d="M7.68.339c-.138.337-.318.596-.536.775-.26.218-.597.338-.975.338s-.716-.12-.994-.378C4.976.894 4.796.637 4.658.34l-1.452.695c.218.617.616 1.074 1.074 1.411.537.418 1.173.616 1.87.616.695 0 1.371-.218 1.907-.616.459-.337.857-.794 1.075-1.41L7.68.338zM2.63 3.897H.56V15.82h1.95l6.86-8.704v8.704H11.4V3.897H9.45L2.63 12.58V3.897z" mask="url(#d)"/>
        </g>
        <path fill="#141415" d="M137.23 107.858v11.923h2.008v-8.744h.08l3.958 5.545h.775l3.917-5.545h.08v8.744h2.108v-11.923h-2.286l-4.118 5.902-4.216-5.902zM161.63 107.858l-3.538 7.074h-.12l-3.878-7.074h-2.486c1.73 2.96 3.56 6.18 5.29 9.141l-.139.278c-.1.24-.298.398-.477.537-.238.14-.538.219-.915.219h-.696l-.219 1.748c.537.08.934.1 1.332.1.736 0 1.333-.219 1.79-.596.478-.398.895-.974 1.233-1.61l5.21-9.817h-2.386zM169.498 118.053c-1.572 0-2.725-.278-4.216-1.133l-.895 1.709c1.511 1.014 3.102 1.37 5.11 1.37 1.91 0 3.242-.455 4.117-1.152.974-.775 1.432-1.868 1.432-3 0-.657-.16-1.233-.498-1.71-.298-.397-.755-.775-1.292-1.073v-.079c.298-.2.537-.457.716-.776.198-.357.298-.774.298-1.271 0-1.054-.498-1.808-1.193-2.345-1.014-.736-2.485-.954-3.659-.954-1.81 0-3.142.377-4.514 1.232l.834 1.57c1.333-.716 2.447-.934 3.561-.934.655 0 1.69.119 2.326.517.298.218.517.556.517.973 0 .398-.119.716-.338.974-.258.258-.617.377-1.074.377h-4.037v1.89h4.375c.577 0 1.015.158 1.353.455.318.299.478.677.478 1.154 0 .635-.18 1.132-.717 1.51-.616.457-1.511.696-2.684.696M176.737 119.781h9.545v-1.927h-7.398v-3.36h6.364v-1.927h-6.364v-2.762h7.12v-1.947h-9.267zM195.17 104.3c-.139.338-.317.596-.536.775-.259.219-.596.338-.974.338a1.41 1.41 0 0 1-.994-.378c-.2-.178-.38-.436-.517-.735l-1.453.695c.219.617.617 1.074 1.074 1.411.537.418 1.174.617 1.87.617.696 0 1.372-.219 1.908-.617.458-.337.856-.794 1.075-1.41l-1.453-.696zm-5.05 3.558h-2.068v11.923H190l6.861-8.704v8.704h2.03v-11.923h-1.95l-6.821 8.684v-8.684z"/>
        <path fill="#941E17" d="M59.671 53.956l17.902 11.927v17.89L59.67 95.697 41.77 83.772v-17.89z"/>
    </g>
</svg>
