<svg xmlns="http://www.w3.org/2000/svg" xmlns:xlink="http://www.w3.org/1999/xlink" width="189" height="186" viewBox="0 0 189 186">
    <defs>
        <path id="a" d="M0 .342h119.382v47.7H0z"/>
    </defs>
    <g fill="none" fill-rule="evenodd">
        <g transform="translate(0 .033)">
            <mask id="b" fill="#fff">
                <use xlink:href="#a"/>
            </mask>
            <path fill="#C69F5B" d="M0 48.042A201.334 201.334 0 0 0 59.69 27.42a201.356 201.356 0 0 0 59.692 20.622V24.196A178.188 178.188 0 0 1 59.69.342 178.17 178.17 0 0 1 0 24.196v23.846z" mask="url(#b)"/>
        </g>
        <path fill="#941E17" d="M59.691 54.026L77.6 65.95v17.883L59.691 95.755 41.784 83.832V65.949z"/>
        <path fill="#FFF" d="M31.577 125.543c0-1.211.478-2.325 1.213-3.06.777-.775 1.792-1.192 2.965-1.192 1.414 0 2.507.497 3.562 1.451l1.272-1.431c-1.412-1.291-2.824-1.927-4.834-1.927-1.85 0-3.422.656-4.536 1.769-1.113 1.131-1.77 2.642-1.77 4.39 0 1.768.637 3.297 1.81 4.43 1.134 1.113 2.666 1.768 4.496 1.768 2.01 0 3.422-.595 4.834-1.966l-1.272-1.41c-1.055.933-2.148 1.449-3.562 1.449a4.21 4.21 0 0 1-3.024-1.27c-.695-.697-1.154-1.73-1.154-3.001M47.93 121.748h.238l2.288 5.662h-4.754l2.228-5.662zm-.975-2.146l-5.291 11.921h2.248l.975-2.185h6.365l.995 2.185h2.287l-5.29-11.921h-2.29zM58.414 119.602h-2.666l4.277 5.762-4.436 6.158h2.467l3.381-4.807 3.383 4.807h2.666l-4.556-6.178 4.078-5.742H64.5l-2.963 4.411zM74.846 121.748h.238l2.288 5.662h-4.754l2.228-5.662zm-.975-2.146l-5.291 11.921h2.248l.975-2.185h6.365l.995 2.185h2.287l-5.291-11.921h-2.288zM86.325 119.602l-1.194 8.741c-.06.418-.219.757-.438 1.015-.219.217-.556.318-.935.318-.318 0-.617 0-1.114-.14l-.398 1.748c.696.259 1.174.318 1.87.318.876 0 1.572-.219 2.089-.675.458-.458.776-1.133.915-2.027l1.034-7.39h4.537v10.012h2.089v-11.92h-8.455zM98.837 119.602h-2.069v11.92h1.95l6.863-8.7v8.7h2.03v-11.92h-1.95l-6.824 8.682zM118.015 119.602v4.61h-6.285v-4.61h-2.13v11.92h2.13V126.1h6.285v5.423h2.11v-11.92zM123.824 125.543c0-1.211.478-2.325 1.213-3.06.776-.775 1.791-1.192 2.964-1.192 1.414 0 2.507.497 3.562 1.451l1.272-1.431c-1.411-1.291-2.824-1.927-4.834-1.927-1.85 0-3.421.656-4.535 1.769-1.114 1.131-1.77 2.642-1.77 4.39 0 1.768.635 3.297 1.81 4.43 1.133 1.113 2.665 1.768 4.495 1.768 2.01 0 3.423-.595 4.834-1.966l-1.272-1.41c-1.055.933-2.148 1.449-3.562 1.449a4.21 4.21 0 0 1-3.023-1.27c-.696-.697-1.154-1.73-1.154-3.001M134.387 119.602v11.92h2.108v-5.384h1.81c.26 0 .5-.02.757-.079l3.462 5.463h2.506l-4.198-6.377c.219-.217.379-.517.518-.734l1.333-2.265c.139-.258.298-.397.517-.537.258-.159.577-.198 1.034-.198h.518l.219-1.809c-.459-.138-.757-.138-1.215-.138-.735 0-1.312.16-1.77.456-.457.298-.796.677-1.093 1.211l-1.394 2.425c-.139.218-.278.398-.497.496-.219.12-.497.18-.795.18h-1.712v-4.63h-2.108zM148.65 119.602h-2.068v11.92h1.95l6.862-8.7v8.7h2.03v-11.92h-1.95l-6.824 8.682zM166.515 116.046c-.139.338-.318.597-.537.774-.259.22-.597.34-.975.34s-.716-.12-.995-.378a2.329 2.329 0 0 1-.516-.736l-1.453.696c.219.616.617 1.072 1.074 1.41.537.417 1.174.615 1.87.615a3.22 3.22 0 0 0 1.91-.614c.458-.339.856-.795 1.075-1.411l-1.453-.696zm-5.053 3.556h-2.07v11.921h1.95l6.864-8.702v8.702h2.03v-11.921h-1.95l-6.824 8.682v-8.682zM31.577 143.535c0-1.212.438-2.246 1.135-2.98a4.155 4.155 0 0 1 3.043-1.291c1.174 0 2.248.476 3.025 1.27.695.716 1.133 1.75 1.133 3 0 1.212-.418 2.246-1.114 2.98a4.158 4.158 0 0 1-3.044 1.292c-1.213 0-2.308-.497-3.043-1.31-.697-.736-1.135-1.77-1.135-2.961m4.178-6.18c-1.91 0-3.52.717-4.636 1.909-1.053 1.112-1.67 2.602-1.67 4.27 0 1.59.637 3.1 1.65 4.193 1.115 1.192 2.746 1.987 4.656 1.987 1.91 0 3.461-.676 4.595-1.848 1.095-1.112 1.691-2.603 1.691-4.331 0-1.729-.636-3.259-1.77-4.43-1.114-1.113-2.666-1.75-4.516-1.75M51.81 145.462c0 .556-.14 1.072-.518 1.45-.378.417-.916.675-1.573.675h-3.958v-4.232h3.86c.677 0 1.214.2 1.612.597.377.378.576.894.576 1.51zm-6.049-4.013v-1.967h6.964v-1.907h-9.091v11.92h6.085c1.275 0 2.348-.436 3.084-1.212.737-.734 1.114-1.688 1.114-2.821 0-1.173-.398-2.126-1.093-2.822-.736-.774-1.83-1.19-3.105-1.19h-3.958zM58.99 137.574l-1.193 8.742c-.06.417-.219.755-.438 1.014-.217.218-.556.317-.935.317-.318 0-.617 0-1.114-.138l-.398 1.747c.697.259 1.175.32 1.87.32.876 0 1.573-.22 2.09-.677.457-.457.775-1.132.914-2.026l1.036-7.39h4.535v10.012h2.089v-11.92H58.99zM75.224 139.72h.238l2.288 5.662h-4.754l2.228-5.662zm-.975-2.147l-5.292 11.922h2.248l.976-2.185h6.365l.994 2.185h2.289l-5.291-11.922h-2.289zM85.031 143.515c0-1.212.478-2.324 1.214-3.06.776-.775 1.79-1.192 2.965-1.192 1.412 0 2.505.498 3.56 1.45l1.274-1.43c-1.413-1.292-2.826-1.927-4.834-1.927-1.85 0-3.423.656-4.537 1.768-1.114 1.133-1.77 2.643-1.77 4.39 0 1.769.637 3.3 1.81 4.43 1.135 1.115 2.666 1.77 4.497 1.77 2.008 0 3.421-.596 4.834-1.967l-1.274-1.41c-1.055.933-2.148 1.448-3.56 1.448a4.211 4.211 0 0 1-3.025-1.27c-.695-.696-1.154-1.729-1.154-3M95.098 139.482h4.436v10.013h2.088v-10.013h4.436v-1.908h-10.96zM115.966 137.574v4.61h-6.285v-4.61h-2.129v11.921h2.129v-5.424h6.285v5.424h2.109v-11.92zM121.775 143.535c0-1.212.438-2.246 1.134-2.98a4.155 4.155 0 0 1 3.044-1.291 4.21 4.21 0 0 1 3.024 1.27c.695.716 1.133 1.75 1.133 3 0 1.212-.417 2.246-1.114 2.98a4.157 4.157 0 0 1-3.043 1.292c-1.214 0-2.309-.497-3.044-1.31-.696-.736-1.134-1.77-1.134-2.961m4.178-6.18c-1.91 0-3.522.717-4.635 1.909-1.055 1.112-1.672 2.602-1.672 4.27 0 1.59.638 3.1 1.651 4.193 1.114 1.192 2.745 1.987 4.656 1.987 1.909 0 3.462-.676 4.595-1.848 1.094-1.112 1.69-2.603 1.69-4.331 0-1.729-.636-3.259-1.77-4.43-1.114-1.113-2.666-1.75-4.515-1.75M140.952 134.019c-.14.338-.318.595-.537.774a1.491 1.491 0 0 1-.975.338 1.42 1.42 0 0 1-.995-.377 2.329 2.329 0 0 1-.517-.735l-1.452.694a2.986 2.986 0 0 0 1.074 1.41c.537.419 1.173.617 1.87.617.696 0 1.372-.219 1.91-.616a2.98 2.98 0 0 0 1.074-1.411l-1.452-.694zm-5.053 3.555h-2.07v11.922h1.95l6.864-8.703v8.703h2.03v-11.922h-1.95l-6.824 8.682v-8.682zM29.847 155.547v11.92h2.108v-5.385h1.81c.26 0 .499-.02.756-.078l3.463 5.462h2.506l-4.198-6.377c.219-.217.378-.517.517-.734l1.333-2.265c.14-.258.299-.397.518-.537.257-.159.577-.198 1.034-.198h.518l.218-1.808c-.458-.14-.755-.14-1.214-.14-.735 0-1.312.159-1.77.457-.458.298-.796.677-1.094 1.212L34.96 159.5c-.139.218-.278.397-.497.496-.219.12-.497.18-.796.18h-1.711v-4.63h-2.108zM47.91 162.301h-3.7v-4.808h3.54c.777 0 1.413.298 1.83.795.398.418.598.973.598 1.63 0 .535-.278 1.172-.598 1.628-.377.457-1.013.755-1.67.755m4.417-2.384c0-1.112-.379-2.006-.995-2.782-.855-1.013-2.089-1.589-3.502-1.589h-5.79v11.921h2.17v-3.24h3.62a4.617 4.617 0 0 0 3.203-1.25c.776-.775 1.294-1.849 1.294-3.06M59.687 157.692h.238l2.289 5.662h-4.755l2.228-5.662zm-.975-2.146l-5.292 11.921h2.248l.975-2.185h6.366l.994 2.185h2.289L61 155.546h-2.289zM67.784 167.467h9.55v-1.926h-7.4v-3.36h6.364v-1.926h-6.365v-2.761h7.12v-1.947h-9.27zM86.722 158.785c0 .377-.12.695-.338.953-.22.24-.518.418-.895.418h-4.257v-2.762h3.939c.478 0 .855.139 1.154.397.258.24.397.576.397.994zm.696 5.007c0 .496-.159.953-.457 1.25-.378.34-.875.577-1.413.577h-4.316v-3.616h4.417c.537 0 1.053.24 1.392.617.258.297.377.675.377 1.172zm-1.89 3.675c1.135 0 2.13-.397 2.866-1.093.695-.635 1.094-1.53 1.094-2.563 0-.755-.2-1.41-.597-1.966a3.095 3.095 0 0 0-1.194-.955v-.099c.339-.218.617-.496.815-.814.22-.397.3-.834.3-1.29 0-.875-.279-1.57-.816-2.107-.697-.696-1.671-1.033-2.707-1.033h-6.167v11.92h6.407zM91.278 167.467h9.55v-1.926h-7.4v-3.36h6.365v-1.926h-6.365v-2.761h7.12v-1.947h-9.27zM111.809 157.454v8.106h-6.068c.457-.616.577-1.193.716-1.987l.895-6.12h4.457zm-6.287-1.907l-1.073 7.588c-.101.696-.32 1.333-.638 1.75-.297.376-.735.675-1.69.675v4.232h1.77l.219-2.325h8.933l.257 2.325h1.791v-4.232h-1.174v-10.013h-8.395zM127.226 167.467v-11.92h-2.128v6.436c-.935.537-1.99.795-3.163.795-1.075 0-1.89-.278-2.427-.854-.636-.636-.916-1.53-.916-2.722v-3.655h-2.108v3.755c0 1.887.536 3.297 1.491 4.191.897.816 2.19 1.213 3.84 1.213 1.054 0 2.308-.298 3.283-.795v3.556h2.128zM129.216 167.467h9.548v-1.926h-7.4v-3.36h6.366v-1.926h-6.366v-2.761h7.12v-1.947h-9.268zM142.266 161.487c0-1.211.477-2.325 1.213-3.06.776-.775 1.79-1.192 2.965-1.192 1.411 0 2.506.497 3.56 1.451l1.273-1.431c-1.411-1.291-2.824-1.927-4.833-1.927-1.852 0-3.423.656-4.536 1.769-1.114 1.131-1.771 2.642-1.771 4.39 0 1.768.637 3.297 1.81 4.43 1.134 1.113 2.666 1.768 4.497 1.768 2.009 0 3.422-.595 4.833-1.966l-1.272-1.41c-1.055.933-2.15 1.449-3.56 1.449a4.211 4.211 0 0 1-3.026-1.27c-.695-.697-1.153-1.73-1.153-3.001M152.829 155.547v11.92h2.11v-5.385h1.808c.26 0 .499-.02.758-.078l3.46 5.462h2.507l-4.197-6.377c.218-.217.377-.517.517-.734l1.332-2.265c.14-.258.299-.397.518-.537.259-.159.577-.198 1.034-.198h.518l.219-1.808c-.459-.14-.756-.14-1.213-.14-.737 0-1.314.159-1.771.457-.459.298-.797.677-1.095 1.212l-1.393 2.424c-.139.218-.278.397-.497.496-.219.12-.497.18-.796.18h-1.71v-4.63h-2.109zM167.093 155.547h-2.068v11.92h1.948l6.863-8.702v8.701h2.03v-11.92h-1.95l-6.823 8.682zM184.957 151.99c-.14.338-.318.597-.537.774-.258.22-.597.339-.976.339-.377 0-.716-.119-.994-.377a2.329 2.329 0 0 1-.516-.736l-1.453.696c.22.616.617 1.072 1.074 1.41.537.417 1.173.615 1.87.615a3.22 3.22 0 0 0 1.91-.614c.457-.339.856-.795 1.075-1.411l-1.453-.696zm-5.052 3.556h-2.07v11.921h1.95l6.863-8.702v8.702h2.03v-11.921h-1.95l-6.823 8.682v-8.682zM29.866 173.518v11.921h2.01v-8.742h.08l3.959 5.543h.775l3.92-5.543h.078v8.742h2.11v-11.92h-2.289l-4.118 5.9-4.217-5.9zM54.276 173.518l-3.541 7.073h-.119l-3.88-7.073H44.25c1.73 2.96 3.56 6.18 5.291 9.14l-.139.278c-.1.237-.297.397-.478.536-.238.139-.537.218-.914.218h-.697l-.218 1.75c.536.08.934.098 1.332.098.737 0 1.333-.218 1.79-.595.478-.397.896-.973 1.234-1.61l5.212-9.815h-2.387zM62.95 183.71c-1.573 0-2.725-.277-4.218-1.133l-.894 1.71c1.511 1.013 3.103 1.37 5.112 1.37 1.91 0 3.242-.457 4.118-1.152.974-.775 1.433-1.867 1.433-3 0-.656-.16-1.232-.498-1.708-.298-.399-.756-.775-1.293-1.074v-.08c.298-.197.537-.456.716-.774.2-.357.298-.775.298-1.271 0-1.052-.498-1.809-1.193-2.345-1.015-.735-2.487-.953-3.661-.953-1.81 0-3.142.377-4.516 1.232l.836 1.57c1.332-.716 2.446-.934 3.56-.934.658 0 1.692.12 2.328.517.299.217.518.555.518.973 0 .397-.12.715-.339.974-.259.258-.615.376-1.074.376h-4.038v1.888h4.377c.577 0 1.015.158 1.352.457.318.298.478.675.478 1.152 0 .635-.18 1.133-.716 1.51-.617.458-1.512.695-2.686.695M70.191 185.44h9.55v-1.928h-7.4v-3.358h6.365v-1.927H72.34v-2.76h7.12v-1.949h-9.27zM88.633 169.963c-.14.338-.318.595-.537.774a1.491 1.491 0 0 1-.975.338 1.42 1.42 0 0 1-.995-.377 2.329 2.329 0 0 1-.516-.735l-1.453.694a2.986 2.986 0 0 0 1.074 1.41c.537.419 1.173.617 1.87.617.696 0 1.372-.219 1.91-.616.456-.337.856-.795 1.075-1.411l-1.453-.694zm-5.053 3.555h-2.07v11.922h1.95l6.864-8.703v8.703h2.03v-11.922h-1.95L83.58 182.2v-8.682z"/>
    </g>
</svg>
