<svg xmlns="http://www.w3.org/2000/svg" width="71" height="62" viewBox="0 0 71 62">
    <g fill="none" fill-rule="evenodd">
        <path fill="#941E17" d="M70 31L50 61H20L0 31 20 1h30z"/>
        <g fill="#FFF" fill-rule="nonzero">
            <path d="M33.529 46.855C24.966 46.855 18 39.889 18 31.326c0-8.563 6.966-15.529 15.529-15.529 8.563 0 15.529 6.967 15.529 15.529a.888.888 0 1 1-1.776 0c0-7.584-6.17-13.755-13.754-13.755-7.585 0-13.755 6.171-13.755 13.755 0 7.584 6.17 13.754 13.755 13.754 4.852 0 9.397-2.601 11.862-6.787a.887.887 0 0 1 1.53.901c-2.781 4.725-7.913 7.661-13.391 7.661z"/>
            <path d="M48.17 32.214a.887.887 0 0 1-.45-.123l-5.561-3.284a.887.887 0 1 1 .903-1.527l4.852 2.865 3.123-4.473a.887.887 0 0 1 1.455 1.015l-3.594 5.146a.886.886 0 0 1-.728.381z"/>
        </g>
    </g>
</svg>
