<?xml version="1.0" encoding="UTF-8"?>
<svg width="290px" height="63px" viewBox="0 0 290 63" version="1.1" xmlns="http://www.w3.org/2000/svg" xmlns:xlink="http://www.w3.org/1999/xlink">
    <!-- Generator: Sketch 58 (84663) - https://sketch.com -->
    <title>Group 25</title>
    <desc>Created with Sketch.</desc>
    <g id="makets" stroke="none" stroke-width="1" fill="none" fill-rule="evenodd">
        <g id="320/главная/меню-открыт-пункт" transform="translate(-14.000000, -895.000000)" fill="#C69F5B">
            <g id="Group-25" transform="translate(14.000000, 895.000000)">
                <path d="M31.628125,34.4106 C33.4230847,33.5531 35.3829234,32.6139333 36.9662298,32.3117667 C37.4187702,32.2697667 37.7953024,31.9162667 37.8502621,31.4484333 C37.9134073,30.9094333 37.5275202,30.4217667 36.9872782,30.3599333 L36.8726815,31.3341 L36.9849395,30.3599333 C35.309254,30.1662667 33.1927218,29.1909333 31.2948589,28.3171 C29.0286492,27.2741 27.0372379,26.3582667 25.771996,26.8296 C24.5278024,27.2939333 24.1571169,28.6227667 25.1498992,31.4379333 C24.1793347,34.2729333 24.5722379,35.6111 25.8351411,36.0707667 C27.1553427,36.5502667 29.2648589,35.5411 31.628125,34.4106 M33.4792137,31.4087667 C32.570625,31.7914333 31.6573589,32.2277667 30.7815121,32.6466 C28.8134879,33.5881 27.0547782,34.4304333 26.5040121,34.2297667 C26.3449798,34.1726 26.4841331,33.4959333 27.113246,31.7692667 L27.116754,31.7716 C27.2103024,31.5161 27.189254,31.2454333 27.0816734,31.0156 C26.4630847,29.3612667 26.3169153,28.7137667 26.4560685,28.6624333 C26.9542137,28.4769333 28.599496,29.2341 30.4716331,30.0974333 C31.4410282,30.5419333 32.4595363,31.0121 33.4792137,31.4087667" id="Fill-1056"></path>
                <path d="M9.36805242,35.8586667 C7.85139919,37.1443333 6.99893952,38.9235 6.8492621,40.7575 C6.69841532,42.5915 7.24918145,44.485 8.53781048,45.9993333 C9.82760887,47.5136667 11.6085363,48.3641667 13.4479315,48.5146667 C15.288496,48.664 17.1851895,48.1145 18.7018427,46.8276667 C20.2208347,45.5431667 21.0732944,43.764 21.2241411,41.9288333 C21.2627298,41.4551667 21.2545444,40.9768333 21.1984153,40.5008333 C20.9399879,41.797 20.2570847,43.0185 19.1684153,43.9401667 C17.8879718,45.024 16.2859556,45.4895 14.7342218,45.3623333 C13.1813185,45.2363333 11.6763589,44.5188333 10.5888589,43.2401667 C9.50135887,41.9615 9.03595565,40.3631667 9.16224597,38.815 C9.28853629,37.2738333 10.0018427,35.7805 11.2694234,34.6978333 C10.5970444,34.9755 9.95389919,35.3616667 9.36805242,35.8586667 M9.36805242,26.4565 C7.85139919,25.1708333 6.99893952,23.3916667 6.8492621,21.5576667 C6.69841532,19.7225 7.24918145,17.8313333 8.53781048,16.3158333 C9.82760887,14.8015 11.6085363,13.9521667 13.4479315,13.8016667 C15.288496,13.6523333 17.1851895,14.2018333 18.7018427,15.4875 C20.2208347,16.772 21.0732944,18.5511667 21.2241411,20.3851667 C21.2627298,20.8611667 21.2545444,21.3395 21.1984153,21.8131667 C20.9399879,20.5193333 20.2570847,19.2978333 19.1684153,18.3761667 C17.8879718,17.2911667 16.2859556,16.8268333 14.7342218,16.9528333 C13.1813185,17.0776667 11.6763589,17.7975 10.5888589,19.075 C9.50135887,20.3536667 9.03595565,21.9508333 9.16224597,23.5001667 C9.28853629,25.0425 10.0018427,26.5346667 11.2694234,27.6185 C10.5970444,27.3385 9.95389919,26.9535 9.36805242,26.4565 M40.7862782,27.783 C37.5962782,26.8846667 34.5419234,25.5791667 31.7880927,23.9248333 C31.6781734,23.8595 31.5787782,23.793 31.4711976,23.7253333 C30.4538589,23.0638333 29.1371653,22.365 27.5257944,22.1736667 C26.634746,22.0675 25.6676895,22.1211667 24.6363185,22.4221667 C24.8725282,21.812 25.0584556,21.1878333 25.1941008,20.5566667 C25.840754,20.2801667 27.2264395,19.9885 28.4963589,19.8636667 C29.6142621,19.7528333 31.4115605,19.9698333 32.4932137,20.209 C34.6226089,20.6803333 36.5239798,21.7501667 38.0102298,23.2353333 C39.2707944,24.4918333 40.2343427,26.047 40.7862782,27.783 M32.4932137,49.9788333 C31.4805524,50.1083333 30.2363589,50.0978333 29.2201895,50.0103333 C27.5433347,49.8668333 26.0278508,49.4293333 24.677246,48.692 C24.8865605,48.1355 25.0537782,47.5673333 25.1800685,46.9898333 C27.830996,47.9418333 30.5099879,48.6605 33.3105927,48.1261667 C36.7753911,47.4658333 39.8765202,45.7718333 42.2748669,43.3801667 C45.4028911,40.2593333 47.3381734,35.945 47.3381734,31.1791667 C47.3381734,26.4168333 45.4028911,22.1036667 42.2748669,18.9828333 C41.2201089,17.9305 40.030875,17.0135 38.7328911,16.261 C34.1326492,13.5881667 30.0632944,13.573 25.1800685,15.3253333 C25.0537782,14.7478333 24.8865605,14.1796667 24.677246,13.622 C26.1740202,12.8065 27.8719234,12.3573333 29.7662782,12.2686667 C30.6397863,12.2278333 31.4934153,12.2628333 32.3599073,12.3678333 C36.6806734,12.8905 40.554746,14.8621667 43.4804718,17.78 C46.9160363,21.2076667 49.0442621,25.9478333 49.0442621,31.1791667 C49.0442621,36.4151667 46.9160363,41.1541667 43.4804718,44.5841667 C40.5863185,47.4705 36.7613589,49.4316667 32.4932137,49.9788333 M32.6978508,54.74 C31.4185766,54.8811667 29.8855524,54.8893333 28.6016008,54.8496667 C26.0290202,54.768 23.4833347,54.355 21.1399476,53.7226667 C22.2543427,52.773 23.1559153,51.6658333 23.843496,50.4653333 C25.3718427,51.2796667 27.0720847,51.8233333 28.9360363,52.0263333 C30.3451089,52.1791667 31.1098669,52.2223333 32.6709556,52.0286667 C37.4360766,51.4383333 41.7088992,49.2566667 44.9363185,46.0366667 C48.747246,42.2356667 51.1046653,36.9821667 51.1046653,31.1791667 C51.1046653,25.3796667 48.747246,20.1273333 44.9363185,16.3251667 C41.662125,13.0585 37.312125,10.8628333 32.4639798,10.3098333 C31.2887782,10.1768333 30.3147056,10.157 29.1500282,10.2666667 C27.1995444,10.4521667 25.4279718,11.0051667 23.843496,11.851 C23.1559153,10.6493333 22.2543427,9.54216667 21.1399476,8.59366667 C23.6680927,7.91 26.4347863,7.483 29.2131734,7.45266667 C30.2971653,7.44216667 31.4641815,7.4935 32.5586976,7.60783333 C38.1166411,8.19 43.1039395,10.6843333 46.8470444,14.42 C51.1467621,18.7086667 53.805875,24.6365 53.805875,31.1791667 C53.805875,37.7265 51.1467621,43.6531667 46.8470444,47.9418333 C43.1355121,51.646 38.1996653,54.1298333 32.6978508,54.74 M35.443496,59.3576667 C41.0914798,58.2143333 46.140754,55.4248333 50.0639395,51.5095 C55.2792621,46.3073333 58.5043427,39.1195 58.5043427,31.1791667 C58.5043427,23.2423333 55.2792621,16.0533333 50.0639395,10.8523333 C45.593496,6.39216667 39.6601895,3.39033333 33.0451492,2.625 C30.2153105,2.296 26.0769637,2.16533333 23.230754,2.422 C16.6578105,3.01583333 10.4029315,5.56966667 5.78982661,10.5571667 C5.38406048,10.997 4.99232661,11.4485 4.64268952,11.935 C3.19035081,13.9568333 2.57059274,16.3963333 2.75885887,18.7798333 C2.9599879,21.3196667 4.07555242,23.7918333 6.07865726,25.6235 L6.17688306,25.7098333 C5.4355121,24.4836667 5.00285081,23.1128333 4.88708468,21.7175 C4.69647984,19.3818333 5.39809274,16.9738333 7.03869758,15.0441667 C8.67813306,13.1168333 10.9478508,12.0353333 13.2888992,11.8451667 C15.6299476,11.6538333 18.0446653,12.3538333 19.9764395,13.9906667 C21.9082137,15.6263333 22.9922056,17.892 23.1839798,20.2265 C23.1898266,20.3 23.1956734,20.3746667 23.1991815,20.447 C23.4693024,19.355 23.5558347,18.2326667 23.4657944,17.122 C23.2482944,14.4783333 22.0181331,11.914 19.8302702,10.0601667 C19.6010766,9.8665 19.3695444,9.6845 19.1368427,9.52 C18.8912782,9.34266667 18.6468831,9.184 18.405996,9.04166667 C17.9405927,8.76283333 17.7885766,8.162 18.0657137,7.69766667 C18.2504718,7.39433333 18.570875,7.224 18.9018024,7.2205 C22.195875,6.12266667 25.9787379,5.38766667 29.7651089,5.40166667 C30.7298266,5.404 31.7284556,5.45883333 32.688496,5.5545 C38.7644637,6.17166667 44.215996,8.88883333 48.3028911,12.9651667 C52.9768024,17.6271667 55.8662782,24.0671667 55.8662782,31.1791667 C55.8662782,38.2946667 52.9768024,44.7346667 48.3040605,49.3966667 C44.255754,53.4345 38.8697056,56.14 32.8650685,56.7886667 C31.2724073,56.9613333 29.7113185,56.9555 28.1221653,56.8738333 C24.8935766,56.7058333 21.7187782,56.0326667 18.9018024,55.0946667 C18.570875,55.0911667 18.2504718,54.922 18.0657137,54.6163333 C17.7885766,54.1531667 17.9405927,53.5523333 18.405996,53.2735 C18.6468831,53.1323333 18.8912782,52.9725 19.1368427,52.7963333 C19.3695444,52.6306667 19.6010766,52.4498333 19.8302702,52.255 C22.0181331,50.4011667 23.2482944,47.838 23.4657944,45.192 C23.5558347,44.0836667 23.4693024,42.9601667 23.1991815,41.8681667 C23.1956734,41.9416667 23.1898266,42.0151667 23.1839798,42.0898333 C22.9922056,44.4243333 21.9082137,46.6888333 19.9764395,48.3256667 C18.0446653,49.9613333 15.6299476,50.6613333 13.2888992,50.47 C10.9478508,50.2798333 8.67813306,49.1995 7.03869758,47.2698333 C5.39809274,45.3425 4.69647984,42.9333333 4.88708468,40.5976667 C5.00285081,39.2011667 5.4355121,37.8303333 6.17688306,36.6065 L6.07865726,36.6928333 C4.07555242,38.5221667 2.9599879,40.9955 2.75885887,43.5353333 C2.57059274,45.9188333 3.19035081,48.3583333 4.64268952,50.3801667 C4.99232661,50.8666667 5.38406048,51.317 5.78982661,51.758 C10.4029315,56.7443333 16.6578105,59.3005 23.230754,59.8943333 C26.9130524,60.2256667 31.7705524,60.0996667 35.443496,59.3576667 M41.247004,32.3855 C37.5050685,33.3375 33.9198266,34.818 30.7193024,36.75 C30.6035363,36.82 30.5006331,36.8795 30.388375,36.9541667 C29.5593024,37.4896667 28.5068831,38.0531667 27.2919234,38.1966667 C26.0629315,38.3425 24.6117621,38.0625 22.9536169,36.8911667 C22.8179718,36.7126667 22.6764798,36.5365 22.5291411,36.3638333 C20.3190605,33.7656667 17.2623669,32.3096667 14.1086169,32.0518333 C11.0051492,31.7998333 7.80696371,32.7086667 5.22502823,34.8378333 C5.13264919,34.9136667 5.04611694,34.993 4.95490726,35.0735 C2.44313306,37.2703333 1.04692339,40.2861667 0.802528226,43.3813333 C0.572165323,46.291 1.35563306,49.2741667 3.18216532,51.716 C3.55869758,52.2165 3.98785081,52.6948333 4.41466532,53.1533333 C9.37857661,58.4838333 16.0567621,61.2115 23.0541815,61.8426667 C26.9305927,62.1926667 31.9494637,62.202 35.8083347,61.4308333 C41.8924879,60.2116667 47.333496,57.2121667 51.5560363,52.997 C57.1513992,47.4156667 60.6138589,39.7016667 60.6138589,31.1791667 C60.6138589,22.6601667 57.1513992,14.9461667 51.5560363,9.36366667 C46.7254315,4.54533333 40.3033347,1.31366667 33.1457137,0.518 C30.5251895,0.2275 25.474746,0.253166667 23.0541815,0.471333333 C16.0567621,1.10366667 9.37857661,3.8325 4.41466532,9.16183333 C3.98785081,9.62033333 3.55869758,10.0975 3.18216532,10.6003333 C1.35563306,13.041 0.572165323,16.0241667 0.802528226,18.9338333 C1.04692339,22.029 2.44313306,25.0448333 4.95490726,27.2416667 C5.04611694,27.3233333 5.13264919,27.4015 5.22502823,27.4773333 C7.80696371,29.6076667 11.0051492,30.5165 14.1086169,30.2633333 C17.2623669,30.0055 20.3190605,28.5483333 22.5291411,25.9525 C22.6764798,25.7786667 22.8179718,25.6013333 22.9536169,25.4251667 C24.6117621,24.2538333 26.0629315,23.9726667 27.2919234,24.1185 C28.5068831,24.2631667 29.5593024,24.8255 30.388375,25.361 C30.5006331,25.4345 30.6035363,25.4951667 30.7193024,25.5651667 C33.9174879,27.496 37.5015605,28.9776667 41.2411573,29.9285 C41.2867621,30.3403333 41.3101492,30.7568333 41.3101492,31.1791667 C41.3101492,31.5886667 41.2879315,31.99 41.247004,32.3855 M32.2406331,42.2041667 C30.1135766,42.6241667 27.1024879,42.5716667 25.1941008,41.7596667 C25.0584556,41.1273333 24.8725282,40.502 24.6363185,39.893 C25.6676895,40.1951667 26.634746,40.2476667 27.5257944,40.1426667 C29.1371653,39.9513333 30.4538589,39.2513333 31.4711976,38.591 C31.5787782,38.5221667 31.6781734,38.4568333 31.7880927,38.3903333 C34.5466008,36.7336667 37.6056331,35.4258333 40.8026492,34.5275 C40.2542218,36.2845 39.2836573,37.8571667 38.0113992,39.1276667 C36.4655121,40.67 34.4705927,41.7655 32.2406331,42.2041667 M32.9176895,18.1976667 C35.443496,18.7518333 37.7026895,20.0211667 39.467246,21.7816667 C41.8784556,24.1861667 43.3705524,27.5111667 43.3705524,31.1791667 C43.3705524,34.8518333 41.8784556,38.1756667 39.467246,40.5813333 C37.5740605,42.469 35.1149073,43.7931667 32.362246,44.2738333 C30.3965605,44.618 27.2135766,44.4861667 25.4607137,43.9413333 C25.4712379,44.2948333 25.4688992,44.6495 25.4501895,45.0041667 C27.4416008,45.7625 30.8736573,46.5348333 33.1691008,46.0576667 C36.1217218,45.444 38.7632944,43.9763333 40.8178508,41.9265 C43.5728508,39.1778333 45.2789395,35.3768333 45.2789395,31.1791667 C45.2789395,26.985 43.5728508,23.1851667 40.8178508,20.4353333 C38.8007137,18.4251667 36.2211169,16.9738333 33.3339798,16.3403333 C30.8666411,15.799 27.7970847,16.4185 25.4501895,17.3121667 C25.4688992,17.6645 25.4712379,18.0191667 25.4607137,18.375 C26.022004,18.1988333 27.4182137,18.0063333 28.6612379,17.9083333 C30.0831734,17.7963333 31.5203105,17.8931667 32.9176895,18.1976667 M12.5627298,26.138 C13.4315605,26.8741667 14.5132137,27.1868333 15.5644637,27.1016667 C16.6145444,27.0165 17.6318831,26.5311667 18.3685766,25.6666667 C19.1052702,24.7998333 19.420996,23.7183333 19.3344637,22.6706667 C19.2491008,21.623 18.7614798,20.6068333 17.8949879,19.873 C17.028496,19.138 15.944504,18.8241667 14.8944234,18.9093333 C13.8431734,18.9956667 12.8246653,19.481 12.0879718,20.3466667 C11.3524476,21.2111667 11.0378911,22.2926667 11.1244234,23.3403333 C11.2097863,24.3891667 11.6950685,25.4041667 12.5627298,26.138 M12.5627298,36.176 C13.4315605,35.4421667 14.5132137,35.1283333 15.5644637,35.2135 C16.6145444,35.2998333 17.6318831,35.7851667 18.3685766,36.6496667 C19.1052702,37.5153333 19.420996,38.598 19.3344637,39.6445 C19.2491008,40.6933333 18.7614798,41.7083333 17.8949879,42.4433333 C17.028496,43.1771667 15.944504,43.491 14.8944234,43.4058333 C13.8431734,43.3206667 12.8246653,42.8341667 12.0879718,41.9685 C11.3524476,41.104 11.0378911,40.0225 11.1244234,38.9748333 C11.2097863,37.926 11.6950685,36.911 12.5627298,36.176" id="Fill-1058"></path>
                <path d="M167.538539,50.442 C169.891281,51.695 172.804144,52.3915 175.770797,52.2596667 C178.690676,52.129 181.672531,51.198 184.236926,49.2135 C184.6462,48.895 184.122329,49.3068333 184.481321,49.0221667 C186.264587,47.6198333 188.184668,47.0633333 190.111765,47.0458333 C191.8962,47.0271667 193.705192,47.4635 195.43116,48.1191667 C195.41245,48.4738333 195.408942,48.8273333 195.420636,49.1831667 C194.127329,48.7841667 192.831684,48.6663333 191.538378,48.8215 C189.755111,49.0361667 187.994063,49.7723333 186.276281,51.0136667 C186.209628,51.0615 186.142974,51.1093333 186.075152,51.1583333 C183.149426,53.2315 179.518579,54.3281667 175.760273,54.6711667 C172.051079,55.0106667 168.230797,54.6163333 164.833821,53.6993333 C165.948216,52.7485 166.849789,51.6425 167.538539,50.442 M168.876281,46.9665 C170.679426,47.614 172.570273,48.0398333 174.468136,48.0281667 C176.753055,48.0141667 179.032128,47.3725 181.163861,45.7391667 C181.297168,45.6388333 181.415273,45.542 181.54741,45.4405 C183.762168,43.736 186.35112,42.9321667 188.893297,42.8131667 C191.546563,42.6883333 194.139023,43.3078333 196.202934,44.4301667 C195.99362,44.9866667 195.825232,45.556 195.700111,46.1335 C193.894628,45.4883333 191.997934,45.0706667 190.091886,45.0893333 C187.756684,45.1138333 185.427329,45.7881667 183.264023,47.4891667 C183.176321,47.558 183.092128,47.6245 183.003257,47.6945 C180.792007,49.3931667 178.213579,50.1911667 175.680757,50.3043333 C173.02866,50.4221667 170.43737,49.7945 168.372289,48.6675 C168.581603,48.1133333 168.748821,47.544 168.876281,46.9665 M169.155757,43.918 C170.446724,44.3193333 171.740031,44.4418333 173.02866,44.289 C174.7862,44.0825 176.518015,43.3673333 178.214749,42.1493333 C178.305958,42.0851667 178.39249,42.0221667 178.482531,41.958 C181.411765,39.886 185.048458,38.7858333 188.810273,38.4381667 C192.519466,38.0951667 196.344426,38.4848333 199.740232,39.4006667 C198.627007,40.3503333 197.723095,41.4563333 197.036684,42.6568333 C194.685111,41.4061667 191.76991,40.719 188.803257,40.8566667 C185.86116,40.9931667 182.857087,41.9393333 180.279829,43.9448333 C180.174587,44.0288333 180.071684,44.1116667 179.961765,44.1945 C178.213579,45.5315 176.336765,46.0565 174.454103,46.0681667 C172.672007,46.0798333 170.866523,45.6365 169.144063,44.9796667 C169.162773,44.6261667 169.16745,44.2726667 169.155757,43.918 M168.331361,39.8696667 C168.567571,40.4798333 168.753499,41.104 168.889144,41.7351667 C170.20116,42.2951667 171.507329,42.4958333 172.794789,42.3441667 C174.203861,42.1773333 175.61995,41.5893333 177.032531,40.5836667 C177.14245,40.5043333 177.247692,40.4273333 177.358781,40.3491667 C180.582692,38.0741667 184.546805,36.8678333 188.626684,36.491 C193.221079,36.0675 197.972168,36.6928333 201.977208,38.0275 C202.308136,38.0298333 202.630878,38.2013333 202.813297,38.5046667 C203.092773,38.969 202.938418,39.571 202.474184,39.8486667 C202.234466,39.991 201.988902,40.1508333 201.742168,40.3258333 C201.510636,40.4926667 201.279103,40.6723333 201.04874,40.8671667 C198.860878,42.721 197.631886,45.2841667 197.416724,47.9301667 C197.324345,49.0385 197.412047,50.162 197.679829,51.254 C197.684507,51.1805 197.689184,51.107 197.6962,51.0335 C197.886805,48.6966667 198.971966,46.4333333 200.90374,44.7965 C202.836684,43.1608333 205.250232,42.4608333 207.59245,42.6498333 C209.933499,42.8411667 212.202047,43.9238333 213.843821,45.8511667 C215.482087,47.7796667 216.18487,50.1876667 215.994265,52.5245 C215.879668,53.9198333 215.447007,55.2883333 214.704466,56.5145 C214.836603,56.3966667 214.967571,56.2753333 215.095031,56.1505 C216.914547,54.3526667 217.930716,52.0006667 218.12249,49.5868333 C218.321281,47.0808333 217.624345,44.5118333 216.007128,42.434 C215.768579,42.1248333 215.51249,41.8296667 215.251724,41.5415 C210.624587,36.4373333 204.300716,33.8286667 197.649426,33.2278333 C189.998337,32.5383333 181.926281,34.4971667 175.483136,38.367 C175.373216,38.4335 175.272652,38.4988333 175.165071,38.5676667 C174.148902,39.228 172.832208,39.928 171.219668,40.1181667 C170.329789,40.2231667 169.362732,40.1718333 168.331361,39.8696667 M197.925394,56.2298333 C198.063378,56.4083333 198.20487,56.5845 198.352208,56.7571667 C200.56112,59.3553333 203.617813,60.8125 206.771563,61.0691667 C209.742894,61.3118333 212.803095,60.4881667 215.324224,58.548 C215.670353,58.2808333 215.990757,58.002 216.306482,57.701 C218.57737,55.5391667 219.84495,52.6761667 220.078821,49.7396667 C220.312692,46.7915 219.503499,43.7663333 217.623176,41.307 C217.348378,40.9488333 217.065394,40.6291667 216.7637,40.2943333 C211.770555,34.7491667 204.966079,31.9223333 197.824829,31.2795 C189.741079,30.548 181.211805,32.6258333 174.414345,36.7266667 C174.29741,36.7966667 174.195676,36.8573333 174.082249,36.9308333 C173.254345,37.4663333 172.203095,38.0286667 170.988136,38.1721667 C169.756805,38.318 168.306805,38.038 166.64866,36.8678333 C166.511845,36.6893333 166.370353,36.5143333 166.224184,36.3405 C164.012934,33.7435 160.95741,32.2851667 157.80366,32.0296667 C154.700192,31.7753333 151.502007,32.6841667 148.920071,34.8133333 C148.827692,34.8915 148.74116,34.9696667 148.65112,35.0501667 C146.138176,37.2458333 144.741966,40.2616667 144.497571,43.358 C144.267208,46.2676667 145.050676,49.2508333 146.877208,51.6915 C147.25374,52.1931667 147.684063,52.6715 148.109708,53.1311667 C153.07362,58.4605 159.750636,61.1881667 166.749224,61.8205 C174.8587,62.552 183.41487,60.4601667 190.222853,56.336 C190.328095,56.2718333 190.418136,56.2158333 190.524547,56.1481667 C191.346603,55.6185 192.388499,55.0678333 193.587087,54.9266667 C194.817249,54.7808333 196.267249,55.0596667 197.925394,56.2298333 M162.595676,55.0725 C162.264749,55.0678333 161.944345,54.8975 161.763095,54.5941667 C161.48362,54.1298333 161.635636,53.529 162.101039,53.2501667 C162.341926,53.1066667 162.586321,52.948 162.833055,52.773 C163.064587,52.6061667 163.29612,52.4265 163.525313,52.2316667 C165.714345,50.3778333 166.942168,47.8146667 167.159668,45.1675 C167.250878,44.0591667 167.163176,42.9368333 166.894224,41.8448333 C166.889547,41.9183333 166.88487,41.9918333 166.880192,42.0653333 C166.688418,44.401 165.604426,46.6655 163.670313,48.3011667 C161.738539,49.938 159.32499,50.638 156.983942,50.4478333 C154.642894,50.2565 152.372007,49.175 150.732571,47.2476667 C149.093136,45.318 148.390353,42.91 148.582128,40.5743333 C148.696724,39.179 149.129386,37.807 149.873095,36.582 L149.7737,36.6695 C147.770595,38.5 146.655031,40.9733333 146.453902,43.512 C146.265636,45.8955 146.884224,48.335 148.337732,50.358 C148.688539,50.8445 149.079103,51.2925 149.486039,51.7335 C154.096805,56.7221667 160.351684,59.2771667 166.925797,59.8698333 C174.600273,60.5628333 182.698055,58.5888333 189.150555,54.6968333 C189.255797,54.6326667 189.348176,54.5696667 189.453418,54.502 C190.46374,53.851 191.766402,53.1685 193.355555,52.9806667 C194.245434,52.8756667 195.21249,52.9281667 196.245031,53.2303333 C196.007652,52.619 195.821724,51.9948333 195.686079,51.3636667 C194.375232,50.806 193.067894,50.6111667 191.773418,50.7663333 C190.323418,50.9413333 188.86874,51.5573333 187.424587,52.605 C187.355595,52.6551667 187.288942,52.703 187.218781,52.7531667 C183.989023,55.041 180.02374,56.2508333 175.940353,56.6241667 C171.355313,57.0418333 166.607732,56.4071667 162.595676,55.0725 M153.063095,35.8353333 C151.545273,37.121 150.693982,38.899 150.543136,40.7341667 C150.392289,42.5681667 150.944224,44.4616667 152.232853,45.976 C153.522652,47.4903333 155.304749,48.3408333 157.142974,48.4901667 C158.983539,48.6406667 160.880232,48.09 162.398055,46.8043333 C163.915878,45.5186667 164.767168,43.7406667 164.918015,41.9066667 C164.956603,41.4306667 164.948418,40.9523333 164.893458,40.4786667 C164.633861,41.7736667 163.950958,42.994 162.863458,43.9156667 C161.581845,45.0018333 159.980999,45.4661667 158.428095,45.339 C156.875192,45.213 155.371402,44.4943333 154.282732,43.2168333 C153.196402,41.9393333 152.730999,40.341 152.857289,38.7928333 C152.983579,37.2505 153.695716,35.7571667 154.964466,34.6733333 C154.289749,34.9533333 153.648942,35.3395 153.063095,35.8353333 M211.510958,57.2646667 C213.028781,55.9778333 213.88124,54.1998333 214.033257,52.3646667 C214.182934,50.5295 213.630999,48.6371667 212.3412,47.1216667 C211.05374,45.6073333 209.270474,44.758 207.431079,44.6075 C205.592853,44.457 203.69616,45.0076667 202.178337,46.2933333 C200.659345,47.5801667 199.809224,49.357 199.658378,51.1933333 C199.619789,51.6681667 199.625636,52.1453333 199.682934,52.6201667 C199.942531,51.3251667 200.623095,50.1036667 201.711765,49.1831667 C202.993378,48.097 204.593055,47.6326667 206.148297,47.7598333 C207.700031,47.887 209.203821,48.6033333 210.29249,49.882 C211.378821,51.1595 211.845394,52.7578333 211.717934,54.3071667 C211.592813,55.8483333 210.878337,57.3416667 209.610757,58.4255 C210.284305,58.1466667 210.926281,57.7581667 211.510958,57.2646667 M156.258942,36.1538333 C157.125434,35.4188333 158.208257,35.105 159.259507,35.1913333 C160.309587,35.2753333 161.328095,35.7618333 162.06362,36.6263333 C162.800313,37.4908333 163.11487,38.5735 163.030676,39.6211667 C162.942974,40.6688333 162.456523,41.685 161.590031,42.42 C160.72237,43.1538333 159.638378,43.4676667 158.589466,43.3813333 C157.538216,43.2973333 156.519708,42.8108333 155.783015,41.9463333 C155.04749,41.0806667 154.732934,39.9991667 154.818297,38.9503333 C154.90366,37.9038333 155.391281,36.8876667 156.258942,36.1538333 M208.316281,56.9461667 C207.449789,57.68 206.365797,57.995 205.316886,57.9075 C204.264466,57.8223333 203.247128,57.337 202.510434,56.4713333 C201.77491,55.6068333 201.460353,54.5253333 201.545716,53.4776667 C201.631079,52.43 202.1187,51.4138333 202.984023,50.6788333 C203.852853,49.945 204.935676,49.6311667 205.986926,49.7163333 C207.035837,49.8015 208.055515,50.2868333 208.791039,51.1525 C209.527732,52.0193333 209.843458,53.0985 209.756926,54.1473333 C209.670394,55.195 209.183942,56.2111667 208.316281,56.9461667" id="Fill-1012" transform="translate(182.288233, 46.549638) scale(-1, 1) translate(-182.288233, -46.549638) "></path>
                <path d="M121.379969,50.442 C119.026057,51.695 116.113194,52.3915 113.146541,52.2596667 C110.226662,52.129 107.245977,51.198 104.679243,49.2135 C104.269969,48.895 104.795009,49.3068333 104.436017,49.0221667 C102.651582,47.6198333 100.73267,47.0633333 98.8055735,47.0458333 C97.021138,47.0271667 95.212146,47.4635 93.4861783,48.1191667 C93.504888,48.4738333 93.5095654,48.8273333 93.4978718,49.1831667 C94.7888396,48.7841667 96.0856541,48.6663333 97.3789606,48.8215 C99.1622267,49.0361667 100.923275,49.7723333 102.641057,51.0136667 C102.70888,51.0615 102.774364,51.1093333 102.843356,51.1583333 C105.767912,53.2315 109.398759,54.3281667 113.155896,54.6711667 C116.866259,55.0106667 120.687711,54.6163333 124.083517,53.6993333 C122.969122,52.7485 122.06638,51.6425 121.379969,50.442 M120.041057,46.9665 C118.237912,47.614 116.347065,48.0398333 114.449202,48.0281667 C112.163114,48.0141667 109.884041,47.3725 107.754646,45.7391667 C107.62017,45.6388333 107.502065,45.542 107.371098,45.4405 C105.15517,43.736 102.566219,42.9321667 100.024041,42.8131667 C97.3707751,42.6883333 94.777146,43.3078333 92.7144041,44.4301667 C92.9225493,44.9866667 93.0921057,45.556 93.2172267,46.1335 C95.0215412,45.4883333 96.9182347,45.0706667 98.8254525,45.0893333 C101.161823,45.1138333 103.490009,45.7881667 105.653315,47.4891667 C105.742186,47.558 105.825211,47.6245 105.914082,47.6945 C108.125332,49.3931667 110.703759,50.1911667 113.237751,50.3043333 C115.887509,50.4221667 118.479969,49.7945 120.546219,48.6675 C120.335735,48.1133333 120.168517,47.544 120.041057,46.9665 M119.761582,43.918 C118.471783,44.3193333 117.178477,44.4418333 115.887509,44.289 C114.132307,44.0825 112.399323,43.3673333 110.70259,42.1493333 C110.613719,42.0851667 110.524848,42.0221667 110.435977,41.958 C107.506743,39.886 103.86888,38.7858333 100.107065,38.4381667 C96.3978718,38.0951667 92.5729122,38.4848333 89.1771057,39.4006667 C90.2903315,40.3503333 91.1942428,41.4563333 91.8794847,42.6568333 C94.2322267,41.4061667 97.1462589,40.719 100.115251,40.8566667 C103.057348,40.9931667 106.060251,41.9393333 108.637509,43.9448333 C108.742751,44.0288333 108.845654,44.1116667 108.955573,44.1945 C110.704928,45.5315 112.580573,46.0565 114.463235,46.0681667 C116.246501,46.0798333 118.049646,45.6365 119.773275,44.9796667 C119.754565,44.6261667 119.749888,44.2726667 119.761582,43.918 M120.585977,39.8696667 C120.349767,40.4798333 120.165009,41.104 120.029364,41.7351667 C118.715009,42.2951667 117.411178,42.4958333 116.12138,42.3441667 C114.712307,42.1773333 113.297388,41.5893333 111.884807,40.5836667 C111.774888,40.5043333 111.669646,40.4273333 111.559727,40.3491667 C108.334646,38.0741667 104.371702,36.8678333 100.290654,36.491 C95.6974283,36.0675 90.9451702,36.6928333 86.9401299,38.0275 C86.6092025,38.0298333 86.2864606,38.2013333 86.1040412,38.5046667 C85.8257347,38.969 85.9777509,39.571 86.4431541,39.8486667 C86.6828718,39.991 86.927267,40.1508333 87.1740009,40.3258333 C87.4067025,40.4926667 87.6394041,40.6723333 87.8674283,40.8671667 C90.0564606,42.721 91.2854525,45.2841667 91.5017831,47.9301667 C91.5918235,49.0385 91.5052912,50.162 91.2375089,51.254 C91.2328315,51.1805 91.2281541,51.107 91.2223073,51.0335 C91.0305331,48.6966667 89.9453718,46.4333333 88.0124283,44.7965 C86.0806541,43.1608333 83.6659364,42.4608333 81.324888,42.6498333 C78.9838396,42.8411667 76.7164606,43.9238333 75.0746864,45.8511667 C73.4340815,47.7796667 72.7312993,50.1876667 72.9242428,52.5245 C73.0388396,53.9198333 73.4715009,55.2883333 74.2128718,56.5145 C74.0795654,56.3966667 73.9485976,56.2753333 73.8234767,56.1505 C72.0039606,54.3526667 70.9866218,52.0006667 70.7948476,49.5868333 C70.5972267,47.0808333 71.2929928,44.5118333 72.9102106,42.434 C73.1487589,42.1248333 73.4048476,41.8296667 73.6656138,41.5415 C78.2915815,36.4373333 84.6177912,33.8286667 91.2679122,33.2278333 C98.9190009,32.5383333 106.991057,34.4971667 113.435372,38.367 C113.545291,38.4335 113.643517,38.4988333 113.752267,38.5676667 C114.769606,39.228 116.086299,39.928 117.696501,40.1181667 C118.588719,40.2231667 119.553436,40.1718333 120.585977,39.8696667 M90.9907751,56.2298333 C90.8551299,56.4083333 90.713638,56.5845 90.5651299,56.7571667 C88.3562186,59.3553333 85.3006944,60.8125 82.1469444,61.0691667 C79.1732751,61.3118333 76.1154122,60.4881667 73.5942831,58.548 C73.2469847,58.2808333 72.9265815,58.002 72.6108557,57.701 C70.3387993,55.5391667 69.0712186,52.6761667 68.838517,49.7396667 C68.6058154,46.7915 69.4150089,43.7663333 71.2953315,41.307 C71.5689606,40.9488333 71.8531138,40.6291667 72.153638,40.2943333 C77.1467831,34.7491667 83.9512589,31.9223333 91.0913396,31.2795 C99.1762589,30.548 107.706702,32.6258333 114.504162,36.7266667 C114.621098,36.7966667 114.722832,36.8573333 114.83509,36.9308333 C115.662993,37.4663333 116.715412,38.0286667 117.930372,38.1721667 C119.160533,38.318 120.610533,38.038 122.269848,36.8678333 C122.405493,36.6893333 122.546985,36.5143333 122.694323,36.3405 C124.904404,33.7435 127.958759,32.2851667 131.113678,32.0296667 C134.217146,31.7753333 137.416501,32.6841667 139.996098,34.8133333 C140.089646,34.8915 140.176178,34.9696667 140.267388,35.0501667 C142.779162,37.2458333 144.176541,40.2616667 144.420936,43.358 C144.65013,46.2676667 143.865493,49.2508333 142.04013,51.6915 C141.664767,52.1931667 141.234444,52.6715 140.80763,53.1311667 C135.844888,58.4605 129.166702,61.1881667 122.168114,61.8205 C114.058638,62.552 105.502469,60.4601667 98.6956541,56.336 C98.5892428,56.2718333 98.4992025,56.2158333 98.3927912,56.1481667 C97.5695654,55.6185 96.5288396,55.0678333 95.3302509,54.9266667 C94.1000896,54.7808333 92.6500896,55.0596667 90.9907751,56.2298333 M126.321662,55.0725 C126.65259,55.0678333 126.972993,54.8975 127.155412,54.5941667 C127.433719,54.1298333 127.281702,53.529 126.816299,53.2501667 C126.575412,53.1066667 126.332186,52.948 126.085452,52.773 C125.852751,52.6061667 125.621219,52.4265 125.393194,52.2316667 C123.204162,50.3778333 121.97517,47.8146667 121.75767,45.1675 C121.66763,44.0591667 121.754162,42.9368333 122.021944,41.8448333 C122.026622,41.9183333 122.033638,41.9918333 122.037146,42.0653333 C122.23009,44.401 123.312912,46.6655 125.247025,48.3011667 C127.178799,49.938 129.592348,50.638 131.934565,50.4478333 C134.275614,50.2565 136.545332,49.175 138.184767,47.2476667 C139.824202,45.318 140.526985,42.91 140.335211,40.5743333 C140.220614,39.179 139.786783,37.807 139.045412,36.582 L139.142469,36.6695 C141.146743,38.5 142.262307,40.9733333 142.463436,43.512 C142.652872,45.8955 142.031944,48.335 140.580775,50.358 C140.231138,50.8445 139.838235,51.2925 139.432469,51.7335 C134.819364,56.7221667 128.565654,59.2771667 121.991541,59.8698333 C114.318235,60.5628333 106.219283,58.5888333 99.7679525,54.6968333 C99.6627106,54.6326667 99.5691622,54.5696667 99.4650896,54.502 C98.4535976,53.851 97.1509364,53.1685 95.5629525,52.9806667 C94.6707347,52.8756667 93.7048476,52.9281667 92.6734767,53.2303333 C92.9096864,52.619 93.0956138,51.9948333 93.2312589,51.3636667 C94.5421057,50.806 95.8506138,50.6111667 97.1439202,50.7663333 C98.5939202,50.9413333 100.048598,51.5573333 101.492751,52.605 C101.561743,52.6551667 101.628396,52.703 101.698557,52.7531667 C104.929485,55.041 108.895936,56.2508333 112.978154,56.6241667 C117.562025,57.0418333 122.309606,56.4071667 126.321662,55.0725 M135.853073,35.8353333 C137.373235,37.121 138.223356,38.899 138.373033,40.7341667 C138.525049,42.5681667 137.973114,44.4616667 136.685654,45.976 C135.395856,47.4903333 133.613759,48.3408333 131.774364,48.4901667 C129.933799,48.6406667 128.038275,48.09 126.520452,46.8043333 C125.00263,45.5186667 124.149001,43.7406667 123.999323,41.9066667 C123.960735,41.4306667 123.96892,40.9523333 124.025049,40.4786667 C124.282307,41.7736667 124.96638,42.994 126.05388,43.9156667 C127.335493,45.0018333 128.93634,45.4661667 130.489243,45.339 C132.042146,45.213 133.545936,44.4943333 134.633436,43.2168333 C135.722106,41.9393333 136.187509,40.341 136.060049,38.7928333 C135.933759,37.2505 135.221622,35.7571667 133.952872,34.6733333 C134.62642,34.9533333 135.268396,35.3395 135.853073,35.8353333 M77.4063799,57.2646667 C75.8885573,55.9778333 75.0349283,54.1998333 74.8852509,52.3646667 C74.7344041,50.5295 75.2875089,48.6371667 76.576138,47.1216667 C77.8635976,45.6073333 79.6468638,44.758 81.4850896,44.6075 C83.3244847,44.457 85.2211783,45.0076667 86.7401702,46.2933333 C88.2568235,47.5801667 89.1104525,49.357 89.2601299,51.1933333 C89.2987186,51.6681667 89.2917025,52.1453333 89.2355735,52.6201667 C88.9759767,51.3251667 88.2930735,50.1036667 87.2055735,49.1831667 C85.9251299,48.097 84.3231138,47.6326667 82.7702106,47.7598333 C81.2173073,47.887 79.7123476,48.6033333 78.6248476,49.882 C77.5373476,51.1595 77.0719444,52.7578333 77.1994041,54.3071667 C77.3256944,55.8483333 78.0378315,57.3416667 79.3077509,58.4255 C78.6330331,58.1466667 77.9922267,57.7581667 77.4063799,57.2646667 M132.659565,36.1538333 C131.791904,35.4188333 130.709082,35.105 129.657832,35.1913333 C128.607751,35.2753333 127.590412,35.7618333 126.853719,36.6263333 C126.117025,37.4908333 125.801299,38.5735 125.887832,39.6211667 C125.974364,40.6688333 126.460815,41.685 127.328477,42.42 C128.194969,43.1538333 129.277791,43.4676667 130.329041,43.3813333 C131.380291,43.2973333 132.39763,42.8108333 133.134323,41.9463333 C133.869848,41.0806667 134.184404,39.9991667 134.097872,38.9503333 C134.013678,37.9038333 133.527227,36.8876667 132.659565,36.1538333 M80.6010573,56.9461667 C81.4675493,57.68 82.5515412,57.995 83.6004525,57.9075 C84.6528718,57.8223333 85.6702106,57.337 86.4069041,56.4713333 C87.1424283,55.6068333 87.4581541,54.5253333 87.3704525,53.4776667 C87.2862589,52.43 86.7998073,51.4138333 85.932146,50.6788333 C85.0644847,49.945 83.9828315,49.6311667 82.9304122,49.7163333 C81.8803315,49.8015 80.8629928,50.2868333 80.1262993,51.1525 C79.3907751,52.0193333 79.0750493,53.0985 79.1615815,54.1473333 C79.2469444,55.195 79.733396,56.2111667 80.6010573,56.9461667" id="Fill-1014" transform="translate(106.629668, 46.549638) scale(-1, 1) translate(-106.629668, -46.549638) "></path>
                <path d="M121.379969,11.8258 C119.026057,10.5728 116.113194,9.8763 113.146541,10.0081333 C110.226662,10.1388 107.245977,11.0698 104.679243,13.0554667 C104.269969,13.3739667 104.795009,12.9621333 104.436017,13.2468 C102.651582,14.6479667 100.73267,15.2044667 98.8055735,15.2231333 C97.021138,15.2418 95.212146,14.8043 93.4861783,14.1498 C93.504888,13.7951333 93.5095654,13.4416333 93.4978718,13.0858 C94.7888396,13.4836333 96.0856541,13.6014667 97.3789606,13.4474667 C99.1622267,13.2328 100.923275,12.4966333 102.641057,11.2553 C102.70888,11.2063 102.774364,11.1596333 102.843356,11.1106333 C105.767912,9.03746667 109.398759,7.93963333 113.155896,7.59663333 C116.866259,7.2583 120.687711,7.65263333 124.083517,8.56963333 C122.969122,9.52046667 122.06638,10.6253 121.379969,11.8258 M120.041057,15.3013 C118.237912,14.6538 116.347065,14.2291333 114.449202,14.2396333 C112.163114,14.2548 109.884041,14.8953 107.754646,16.5274667 C107.62017,16.6301333 107.502065,16.7258 107.371098,16.8273 C105.15517,18.5318 102.566219,19.3368 100.024041,19.4558 C97.3707751,19.5794667 94.777146,18.9599667 92.7144041,17.8376333 C92.9225493,17.2823 93.0921057,16.7118 93.2172267,16.1354667 C95.0215412,16.7794667 96.9182347,17.1971333 98.8254525,17.1784667 C101.161823,17.1551333 103.490009,16.4808 105.653315,14.7798 C105.742186,14.7098 105.825211,14.6444667 105.914082,14.5744667 C108.125332,12.8746333 110.703759,12.0778 113.237751,11.9634667 C115.887509,11.8468 118.479969,12.4744667 120.546219,13.6003 C120.335735,14.1556333 120.168517,14.7249667 120.041057,15.3013 M119.761582,18.3509667 C118.471783,17.9496333 117.178477,17.8271333 115.887509,17.9788 C114.132307,18.1864667 112.399323,18.9016333 110.70259,20.1184667 C110.613719,20.1838 110.524848,20.2468 110.435977,20.3109667 C107.506743,22.3818 103.86888,23.4831333 100.107065,23.8308 C96.3978718,24.1726333 92.5729122,23.7841333 89.1771057,22.8683 C90.2903315,21.9174667 91.1942428,20.8126333 91.8794847,19.6121333 C94.2322267,20.8616333 97.1462589,21.5488 100.115251,21.4111333 C103.057348,21.2746333 106.060251,20.3284667 108.637509,18.3241333 C108.742751,18.2413 108.845654,18.1573 108.955573,18.0733 C110.704928,16.7374667 112.580573,16.2113 114.463235,16.1996333 C116.246501,16.1879667 118.049646,16.6313 119.773275,17.2881333 C119.754565,17.6404667 119.749888,17.9963 119.761582,18.3509667 M120.585977,22.3993 C120.349767,21.7879667 120.165009,21.1638 120.029364,20.5326333 C118.715009,19.9726333 117.411178,19.7731333 116.12138,19.9248 C114.712307,20.0916333 113.297388,20.6796333 111.884807,21.6853 C111.774888,21.7646333 111.669646,21.8416333 111.559727,21.9186333 C108.334646,24.1948 104.371702,25.4011333 100.290654,25.7768 C95.6974283,26.2014667 90.9451702,25.5749667 86.9401299,24.2414667 C86.6092025,24.2379667 86.2864606,24.0676333 86.1040412,23.7631333 C85.8257347,23.2999667 85.9777509,22.6979667 86.4431541,22.4203 C86.6828718,22.2779667 86.927267,22.1181333 87.1740009,21.9419667 C87.4067025,21.7763 87.6394041,21.5954667 87.8674283,21.4018 C90.0564606,19.5479667 91.2854525,16.9836333 91.5017831,14.3376333 C91.5918235,13.2293 91.5052912,12.1058 91.2375089,11.0138 C91.2328315,11.0884667 91.2281541,11.1619667 91.2223073,11.2354667 C91.0305331,13.5711333 89.9453718,15.8356333 88.0124283,17.4713 C86.0806541,19.1081333 83.6659364,19.8093 81.324888,19.6179667 C78.9838396,19.4266333 76.7164606,18.3439667 75.0746864,16.4166333 C73.4340815,14.4881333 72.7312993,12.0801333 72.9242428,9.74446667 C73.0388396,8.34913333 73.4715009,6.98063333 74.2128718,5.75446667 C74.0795654,5.87113333 73.9485976,5.99363333 73.8234767,6.11846667 C72.0039606,7.9163 70.9866218,10.2683 70.7948476,12.6809667 C70.5972267,15.1869667 71.2929928,17.7571333 72.9102106,19.8361333 C73.1487589,20.1429667 73.4048476,20.4381333 73.6656138,20.7274667 C78.2915815,25.8316333 84.6177912,28.4391333 91.2679122,29.0399667 C98.9190009,29.7306333 106.991057,27.7706333 113.435372,23.9019667 C113.545291,23.8343 113.643517,23.7701333 113.752267,23.7013 C114.769606,23.0409667 116.086299,22.3409667 117.696501,22.1508 C118.588719,22.0446333 119.553436,22.0971333 120.585977,22.3993 M90.9907751,6.03796667 C90.8551299,5.85946667 90.713638,5.68213333 90.5651299,5.51063333 C88.3562186,2.91246667 85.3006944,1.4553 82.1469444,1.1998 C79.1732751,0.957133333 76.1154122,1.7808 73.5942831,3.7198 C73.2469847,3.98696667 72.9265815,4.26696667 72.6108557,4.5668 C70.3387993,6.72863333 69.0712186,9.5928 68.838517,12.5281333 C68.6058154,15.4763 69.4150089,18.5014667 71.2953315,20.9608 C71.5689606,21.3201333 71.8531138,21.6398 72.153638,21.9734667 C77.1467831,27.5186333 83.9512589,30.3454667 91.0913396,30.9906333 C99.1762589,31.7198 107.706702,29.6419667 114.504162,25.5423 C114.621098,25.4723 114.722832,25.4116333 114.83509,25.3381333 C115.662993,24.8026333 116.715412,24.2403 117.930372,24.0956333 C119.160533,23.9498 120.610533,24.2298 122.269848,25.4011333 C122.405493,25.5796333 122.546985,25.7546333 122.694323,25.9284667 C124.904404,28.5243 127.958759,29.9826333 131.113678,30.2393 C134.217146,30.4924667 137.416501,29.5836333 139.996098,27.4544667 C140.089646,27.3774667 140.176178,27.2981333 140.267388,27.2188 C142.779162,25.0231333 144.176541,22.0061333 144.420936,18.9109667 C144.65013,16.0013 143.865493,13.0181333 142.04013,10.5774667 C141.664767,10.0746333 141.234444,9.5963 140.80763,9.1378 C135.844888,3.80846667 129.166702,1.07963333 122.168114,0.448466667 C114.058638,-0.2842 105.502469,1.8088 98.6956541,5.93296667 C98.5892428,5.99713333 98.4992025,6.05196667 98.3927912,6.1208 C97.5695654,6.65046667 96.5288396,7.20113333 95.3302509,7.3423 C94.1000896,7.48813333 92.6500896,7.20813333 90.9907751,6.03796667 M126.321662,7.19763333 C126.65259,7.19996667 126.972993,7.37146667 127.155412,7.67363333 C127.433719,8.13796667 127.281702,8.73996667 126.816299,9.01763333 C126.575412,9.16113333 126.332186,9.32096667 126.085452,9.49596667 C125.852751,9.6628 125.621219,9.84246667 125.393194,10.0361333 C123.204162,11.8899667 121.97517,14.4543 121.75767,17.1003 C121.66763,18.2086333 121.754162,19.3321333 122.021944,20.4229667 C122.026622,20.3506333 122.033638,20.2759667 122.037146,20.2036333 C122.23009,17.8679667 123.312912,15.6034667 125.247025,13.9678 C127.178799,12.3309667 129.592348,11.6309667 131.934565,11.8211333 C134.275614,12.0113 136.545332,13.0939667 138.184767,15.0213 C139.824202,16.9498 140.526985,19.3578 140.335211,21.6934667 C140.220614,23.0899667 139.786783,24.4596333 139.045412,25.6858 L139.142469,25.5994667 C141.146743,23.7689667 142.262307,21.2956333 142.463436,18.7558 C142.652872,16.3734667 142.031944,13.9328 140.580775,11.9109667 C140.231138,11.4244667 139.838235,10.9753 139.432469,10.5343 C134.819364,5.54563333 128.565654,2.9918 121.991541,2.39913333 C114.318235,1.70613333 106.219283,3.67896667 99.7679525,7.57213333 C99.6627106,7.63513333 99.5691622,7.69813333 99.4650896,7.7658 C98.4535976,8.4168 97.1509364,9.10046667 95.5629525,9.2883 C94.6707347,9.39446667 93.7048476,9.3408 92.6734767,9.03863333 C92.9096864,9.64996667 93.0956138,10.2741333 93.2312589,10.9053 C94.5421057,11.4618 95.8506138,11.6566333 97.1439202,11.5026333 C98.5939202,11.3276333 100.048598,10.7116333 101.492751,9.6628 C101.561743,9.6138 101.628396,9.5648 101.698557,9.51696667 C104.929485,7.2268 108.895936,6.01813333 112.978154,5.6448 C117.562025,5.22596667 122.309606,5.86063333 126.321662,7.19763333 M135.853073,26.4336333 C137.373235,25.1479667 138.223356,23.3699667 138.373033,21.5336333 C138.525049,19.6996333 137.973114,17.8073 136.685654,16.2918 C135.395856,14.7774667 133.613759,13.9281333 131.774364,13.7776333 C129.933799,13.6283 128.038275,14.1778 126.520452,15.4634667 C125.00263,16.7491333 124.149001,18.5271333 123.999323,20.3611333 C123.960735,20.8383 123.96892,21.3166333 124.025049,21.7903 C124.282307,20.4953 124.96638,19.2738 126.05388,18.3521333 C127.335493,17.2671333 128.93634,16.8039667 130.489243,16.9299667 C132.042146,17.0548 133.545936,17.7746333 134.633436,19.0509667 C135.722106,20.3308 136.187509,21.9279667 136.060049,23.4761333 C135.933759,25.0184667 135.221622,26.5106333 133.952872,27.5944667 C134.62642,27.3144667 135.268396,26.9294667 135.853073,26.4336333 M77.4063799,5.0043 C75.8885573,6.29113333 75.0349283,8.06913333 74.8852509,9.9043 C74.7344041,11.7394667 75.2875089,13.6318 76.576138,15.1461333 C77.8635976,16.6616333 79.6468638,17.5109667 81.4850896,17.6603 C83.3244847,17.8108 85.2211783,17.2601333 86.7401702,15.9756333 C88.2568235,14.6888 89.1104525,12.9108 89.2601299,11.0756333 C89.2987186,10.6008 89.2917025,10.1213 89.2355735,9.64763333 C88.9759767,10.9438 88.2930735,12.1641333 87.2055735,13.0858 C85.9251299,14.1719667 84.3231138,14.6351333 82.7702106,14.5103 C81.2173073,14.3819667 79.7123476,13.6644667 78.6248476,12.3858 C77.5373476,11.1083 77.0719444,9.51113333 77.1994041,7.96063333 C77.3256944,6.42063333 78.0378315,4.9273 79.3077509,3.84346667 C78.6330331,4.1223 77.9922267,4.50846667 77.4063799,5.0043 M132.659565,26.1151333 C131.791904,26.8501333 130.709082,27.1639667 129.657832,27.0776333 C128.607751,26.9924667 127.590412,26.5059667 126.853719,25.6426333 C126.117025,24.7781333 125.801299,23.6954667 125.887832,22.6466333 C125.974364,21.6001333 126.460815,20.5839667 127.328477,19.8489667 C128.194969,19.1151333 129.277791,18.8013 130.329041,18.8864667 C131.380291,18.9716333 132.39763,19.4569667 133.134323,20.3226333 C133.869848,21.1871333 134.184404,22.2686333 134.097872,23.3163 C134.013678,24.3651333 133.527227,25.3801333 132.659565,26.1151333 M80.6010573,5.3228 C81.4675493,4.58896667 82.5515412,4.27396667 83.6004525,4.3603 C84.6528718,4.44663333 85.6702106,4.9308 86.4069041,5.79646667 C87.1424283,6.66096667 87.4581541,7.74246667 87.3704525,8.79013333 C87.2862589,9.83896667 86.7998073,10.8551333 85.932146,11.5889667 C85.0644847,12.3239667 83.9828315,12.6378 82.9304122,12.5514667 C81.8803315,12.4674667 80.8629928,11.9809667 80.1262993,11.1164667 C79.3907751,10.2496333 79.0750493,9.17046667 79.1615815,8.12163333 C79.2469444,7.07396667 79.733396,6.0578 80.6010573,5.3228" id="Fill-1018" transform="translate(106.629668, 15.719335) scale(-1, 1) translate(-106.629668, -15.719335) "></path>
                <path d="M167.538539,11.8258 C169.891281,10.5728 172.804144,9.8763 175.770797,10.0081333 C178.690676,10.1388 181.672531,11.0698 184.236926,13.0554667 C184.6462,13.3739667 184.122329,12.9621333 184.481321,13.2468 C186.264587,14.6479667 188.184668,15.2044667 190.111765,15.2231333 C191.8962,15.2418 193.705192,14.8043 195.43116,14.1498 C195.41245,13.7951333 195.408942,13.4416333 195.420636,13.0858 C194.127329,13.4836333 192.831684,13.6014667 191.538378,13.4474667 C189.755111,13.2328 187.994063,12.4966333 186.276281,11.2553 C186.209628,11.2063 186.142974,11.1596333 186.075152,11.1106333 C183.149426,9.03746667 179.518579,7.93963333 175.760273,7.59663333 C172.051079,7.2583 168.230797,7.65263333 164.833821,8.56963333 C165.948216,9.52046667 166.849789,10.6253 167.538539,11.8258 M168.876281,15.3013 C170.679426,14.6538 172.570273,14.2291333 174.468136,14.2396333 C176.753055,14.2548 179.032128,14.8953 181.163861,16.5274667 C181.297168,16.6301333 181.415273,16.7258 181.54741,16.8273 C183.762168,18.5318 186.35112,19.3368 188.893297,19.4558 C191.546563,19.5794667 194.139023,18.9599667 196.202934,17.8376333 C195.99362,17.2823 195.825232,16.7118 195.700111,16.1354667 C193.894628,16.7794667 191.997934,17.1971333 190.091886,17.1784667 C187.756684,17.1551333 185.427329,16.4808 183.264023,14.7798 C183.176321,14.7098 183.092128,14.6444667 183.003257,14.5744667 C180.792007,12.8746333 178.213579,12.0778 175.680757,11.9634667 C173.02866,11.8468 170.43737,12.4744667 168.372289,13.6003 C168.581603,14.1556333 168.748821,14.7249667 168.876281,15.3013 M169.155757,18.3509667 C170.446724,17.9496333 171.740031,17.8271333 173.02866,17.9788 C174.7862,18.1864667 176.518015,18.9016333 178.214749,20.1184667 C178.305958,20.1838 178.39249,20.2468 178.482531,20.3109667 C181.411765,22.3818 185.048458,23.4831333 188.810273,23.8308 C192.519466,24.1726333 196.344426,23.7841333 199.740232,22.8683 C198.627007,21.9174667 197.723095,20.8126333 197.036684,19.6121333 C194.685111,20.8616333 191.76991,21.5488 188.803257,21.4111333 C185.86116,21.2746333 182.857087,20.3284667 180.279829,18.3241333 C180.174587,18.2413 180.071684,18.1573 179.961765,18.0733 C178.213579,16.7374667 176.336765,16.2113 174.454103,16.1996333 C172.672007,16.1879667 170.866523,16.6313 169.144063,17.2881333 C169.162773,17.6404667 169.16745,17.9963 169.155757,18.3509667 M168.331361,22.3993 C168.567571,21.7879667 168.753499,21.1638 168.889144,20.5326333 C170.20116,19.9726333 171.507329,19.7731333 172.794789,19.9248 C174.203861,20.0916333 175.61995,20.6796333 177.032531,21.6853 C177.14245,21.7646333 177.247692,21.8416333 177.358781,21.9186333 C180.582692,24.1948 184.546805,25.4011333 188.626684,25.7768 C193.221079,26.2014667 197.972168,25.5749667 201.977208,24.2414667 C202.308136,24.2379667 202.630878,24.0676333 202.813297,23.7631333 C203.092773,23.2999667 202.938418,22.6979667 202.474184,22.4203 C202.234466,22.2779667 201.988902,22.1181333 201.742168,21.9419667 C201.510636,21.7763 201.279103,21.5954667 201.04874,21.4018 C198.860878,19.5479667 197.631886,16.9836333 197.416724,14.3376333 C197.324345,13.2293 197.412047,12.1058 197.679829,11.0138 C197.684507,11.0884667 197.689184,11.1619667 197.6962,11.2354667 C197.886805,13.5711333 198.971966,15.8356333 200.90374,17.4713 C202.836684,19.1081333 205.250232,19.8093 207.59245,19.6179667 C209.933499,19.4266333 212.202047,18.3439667 213.843821,16.4166333 C215.482087,14.4881333 216.18487,12.0801333 215.994265,9.74446667 C215.879668,8.34913333 215.447007,6.98063333 214.704466,5.75446667 C214.836603,5.87113333 214.967571,5.99363333 215.095031,6.11846667 C216.914547,7.9163 217.930716,10.2683 218.12249,12.6809667 C218.321281,15.1869667 217.624345,17.7571333 216.007128,19.8361333 C215.768579,20.1429667 215.51249,20.4381333 215.251724,20.7274667 C210.624587,25.8316333 204.300716,28.4391333 197.649426,29.0399667 C189.998337,29.7306333 181.926281,27.7706333 175.483136,23.9019667 C175.373216,23.8343 175.272652,23.7701333 175.165071,23.7013 C174.148902,23.0409667 172.832208,22.3409667 171.219668,22.1508 C170.329789,22.0446333 169.362732,22.0971333 168.331361,22.3993 M197.925394,6.03796667 C198.063378,5.85946667 198.20487,5.68213333 198.352208,5.51063333 C200.56112,2.91246667 203.617813,1.4553 206.771563,1.1998 C209.742894,0.957133333 212.803095,1.7808 215.324224,3.7198 C215.670353,3.98696667 215.990757,4.26696667 216.306482,4.5668 C218.57737,6.72863333 219.84495,9.5928 220.078821,12.5281333 C220.312692,15.4763 219.503499,18.5014667 217.623176,20.9608 C217.348378,21.3201333 217.065394,21.6398 216.7637,21.9734667 C211.770555,27.5186333 204.966079,30.3454667 197.824829,30.9906333 C189.741079,31.7198 181.211805,29.6419667 174.414345,25.5423 C174.29741,25.4723 174.195676,25.4116333 174.082249,25.3381333 C173.254345,24.8026333 172.203095,24.2403 170.988136,24.0956333 C169.756805,23.9498 168.306805,24.2298 166.64866,25.4011333 C166.511845,25.5796333 166.370353,25.7546333 166.224184,25.9284667 C164.012934,28.5243 160.95741,29.9826333 157.80366,30.2393 C154.700192,30.4924667 151.502007,29.5836333 148.920071,27.4544667 C148.827692,27.3774667 148.74116,27.2981333 148.65112,27.2188 C146.138176,25.0231333 144.741966,22.0061333 144.497571,18.9109667 C144.267208,16.0013 145.050676,13.0181333 146.877208,10.5774667 C147.25374,10.0746333 147.684063,9.5963 148.109708,9.1378 C153.07362,3.80846667 159.750636,1.07963333 166.749224,0.448466667 C174.8587,-0.2842 183.41487,1.8088 190.222853,5.93296667 C190.328095,5.99713333 190.418136,6.05196667 190.524547,6.1208 C191.346603,6.65046667 192.388499,7.20113333 193.587087,7.3423 C194.817249,7.48813333 196.267249,7.20813333 197.925394,6.03796667 M162.595676,7.19763333 C162.264749,7.19996667 161.944345,7.37146667 161.763095,7.67363333 C161.48362,8.13796667 161.635636,8.73996667 162.101039,9.01763333 C162.341926,9.16113333 162.586321,9.32096667 162.833055,9.49596667 C163.064587,9.6628 163.29612,9.84246667 163.525313,10.0361333 C165.714345,11.8899667 166.942168,14.4543 167.159668,17.1003 C167.250878,18.2086333 167.163176,19.3321333 166.894224,20.4229667 C166.889547,20.3506333 166.88487,20.2759667 166.880192,20.2036333 C166.688418,17.8679667 165.604426,15.6034667 163.670313,13.9678 C161.738539,12.3309667 159.32499,11.6309667 156.983942,11.8211333 C154.642894,12.0113 152.372007,13.0939667 150.732571,15.0213 C149.093136,16.9498 148.390353,19.3578 148.582128,21.6934667 C148.696724,23.0899667 149.129386,24.4596333 149.873095,25.6858 L149.7737,25.5994667 C147.770595,23.7689667 146.655031,21.2956333 146.453902,18.7558 C146.265636,16.3734667 146.884224,13.9328 148.337732,11.9109667 C148.688539,11.4244667 149.079103,10.9753 149.486039,10.5343 C154.096805,5.54563333 160.351684,2.9918 166.925797,2.39913333 C174.600273,1.70613333 182.698055,3.67896667 189.150555,7.57213333 C189.255797,7.63513333 189.348176,7.69813333 189.453418,7.7658 C190.46374,8.4168 191.766402,9.10046667 193.355555,9.2883 C194.245434,9.39446667 195.21249,9.3408 196.245031,9.03863333 C196.007652,9.64996667 195.821724,10.2741333 195.686079,10.9053 C194.375232,11.4618 193.067894,11.6566333 191.773418,11.5026333 C190.323418,11.3276333 188.86874,10.7116333 187.424587,9.6628 C187.355595,9.6138 187.288942,9.5648 187.218781,9.51696667 C183.989023,7.2268 180.02374,6.01813333 175.940353,5.6448 C171.355313,5.22596667 166.607732,5.86063333 162.595676,7.19763333 M153.063095,26.4336333 C151.545273,25.1479667 150.693982,23.3699667 150.543136,21.5336333 C150.392289,19.6996333 150.944224,17.8073 152.232853,16.2918 C153.522652,14.7774667 155.304749,13.9281333 157.142974,13.7776333 C158.983539,13.6283 160.880232,14.1778 162.398055,15.4634667 C163.915878,16.7491333 164.767168,18.5271333 164.918015,20.3611333 C164.956603,20.8383 164.948418,21.3166333 164.893458,21.7903 C164.633861,20.4953 163.950958,19.2738 162.863458,18.3521333 C161.581845,17.2671333 159.980999,16.8039667 158.428095,16.9299667 C156.875192,17.0548 155.371402,17.7746333 154.282732,19.0509667 C153.196402,20.3308 152.730999,21.9279667 152.857289,23.4761333 C152.983579,25.0184667 153.695716,26.5106333 154.964466,27.5944667 C154.289749,27.3144667 153.648942,26.9294667 153.063095,26.4336333 M211.510958,5.0043 C213.028781,6.29113333 213.88124,8.06913333 214.033257,9.9043 C214.182934,11.7394667 213.630999,13.6318 212.3412,15.1461333 C211.05374,16.6616333 209.270474,17.5109667 207.431079,17.6603 C205.592853,17.8108 203.69616,17.2601333 202.178337,15.9756333 C200.659345,14.6888 199.809224,12.9108 199.658378,11.0756333 C199.619789,10.6008 199.625636,10.1213 199.682934,9.64763333 C199.942531,10.9438 200.623095,12.1641333 201.711765,13.0858 C202.993378,14.1719667 204.593055,14.6351333 206.148297,14.5103 C207.700031,14.3819667 209.203821,13.6644667 210.29249,12.3858 C211.378821,11.1083 211.845394,9.51113333 211.717934,7.96063333 C211.592813,6.42063333 210.878337,4.9273 209.610757,3.84346667 C210.284305,4.1223 210.926281,4.50846667 211.510958,5.0043 M156.258942,26.1151333 C157.125434,26.8501333 158.208257,27.1639667 159.259507,27.0776333 C160.309587,26.9924667 161.328095,26.5059667 162.06362,25.6426333 C162.800313,24.7781333 163.11487,23.6954667 163.030676,22.6466333 C162.942974,21.6001333 162.456523,20.5839667 161.590031,19.8489667 C160.72237,19.1151333 159.638378,18.8013 158.589466,18.8864667 C157.538216,18.9716333 156.519708,19.4569667 155.783015,20.3226333 C155.04749,21.1871333 154.732934,22.2686333 154.818297,23.3163 C154.90366,24.3651333 155.391281,25.3801333 156.258942,26.1151333 M208.316281,5.3228 C207.449789,4.58896667 206.365797,4.27396667 205.316886,4.3603 C204.264466,4.44663333 203.247128,4.9308 202.510434,5.79646667 C201.77491,6.66096667 201.460353,7.74246667 201.545716,8.79013333 C201.631079,9.83896667 202.1187,10.8551333 202.984023,11.5889667 C203.852853,12.3239667 204.935676,12.6378 205.986926,12.5514667 C207.035837,12.4674667 208.055515,11.9809667 208.791039,11.1164667 C209.527732,10.2496333 209.843458,9.17046667 209.756926,8.12163333 C209.670394,7.07396667 209.183942,6.0578 208.316281,5.3228" id="Fill-1026" transform="translate(182.288233, 15.719335) scale(-1, 1) translate(-182.288233, -15.719335) "></path>
                <path d="M98.8473645,34.3866833 C97.0524049,33.5291833 95.0925661,32.5911833 93.5092597,32.28785 C93.05555,32.24585 92.6790178,31.8935167 92.6240581,31.4256833 C92.5609129,30.8855167 92.9468,30.3990167 93.487042,30.33485 L93.6016387,31.31135 L93.49055,30.3371833 C95.1662355,30.14235 97.2827678,29.1670167 99.1794613,28.2931833 C101.44684,27.25135 103.438252,26.33435 104.703494,26.8056833 C105.947687,27.2711833 106.318373,28.6000167 105.32559,31.4151833 C106.296155,34.2490167 105.903252,35.5871833 104.640348,36.0480167 C103.320147,36.5275167 101.210631,35.5171833 98.8473645,34.3866833 M96.9962758,31.38485 C97.9036952,31.7675167 98.8181307,32.2050167 99.6928081,32.6226833 C101.660832,33.56535 103.420711,34.4065167 103.971477,34.20585 C104.13051,34.1486833 103.990187,33.4720167 103.361074,31.7465167 L103.358736,31.7476833 C103.265187,31.4921833 103.286236,31.2215167 103.393816,30.99285 C104.011236,29.3385167 104.158574,28.6910167 104.019421,28.6385167 C103.521276,28.4541833 101.875994,29.2101833 100.002687,30.0735167 C99.0344613,30.5191833 98.0147839,30.9881833 96.9962758,31.38485" id="Fill-1032" transform="translate(99.255680, 31.424428) scale(-1, 1) translate(-99.255680, -31.424428) "></path>
                <path d="M140.65994,34.9711833 C141.631673,35.9406833 142.974093,36.54035 144.459173,36.54035 C145.943085,36.54035 147.286673,35.9406833 148.258407,34.9711833 C149.230141,34.0005167 149.832359,32.6611833 149.832359,31.1795167 C149.832359,29.6990167 149.230141,28.3596833 148.258407,27.3901833 C147.286673,26.4195167 145.943085,25.81985 144.459173,25.81985 C142.974093,25.81985 141.631673,26.4195167 140.65994,27.3901833 C139.688206,28.3596833 139.085988,29.6990167 139.085988,31.1795167 C139.085988,32.6611833 139.688206,34.0005167 140.65994,34.9711833 M144.459173,38.50385 C142.432681,38.50385 140.595625,37.6836833 139.269577,36.35835 C137.94002,35.0341833 137.119133,33.20135 137.119133,31.1795167 C137.119133,29.15885 137.94002,27.3271833 139.269577,26.0030167 C140.595625,24.6765167 142.432681,23.85635 144.459173,23.85635 C146.485665,23.85635 148.321552,24.6765167 149.64877,26.0030167 C150.978327,27.3271833 151.799214,29.15885 151.799214,31.1795167 C151.799214,33.20135 150.978327,35.0341833 149.64877,36.35835 C148.321552,37.6836833 146.485665,38.50385 144.459173,38.50385" id="Fill-1040" transform="translate(144.459173, 31.180100) scale(-1, 1) translate(-144.459173, -31.180100) "></path>
                <path d="M190.415705,34.3866833 C192.210665,33.5291833 194.171673,32.5911833 195.75381,32.28785 C196.20752,32.24585 196.582883,31.8935167 196.637842,31.4256833 C196.702157,30.8855167 196.31627,30.3990167 195.776028,30.33485 L195.661431,31.31135 L195.77252,30.3371833 C194.096834,30.14235 191.980302,29.1670167 190.082439,28.2931833 C187.816229,27.25135 185.824818,26.33435 184.559576,26.8056833 C183.315383,27.2711833 182.944697,28.6000167 183.937479,31.4151833 C182.966915,34.2490167 183.359818,35.5871833 184.622721,36.0480167 C185.942923,36.5275167 188.052439,35.5171833 190.415705,34.3866833 M192.266794,31.38485 C191.359375,31.7675167 190.444939,32.2050167 189.570262,32.6226833 C187.602238,33.56535 185.843528,34.4065167 185.291592,34.20585 C185.13256,34.1486833 185.272883,33.4720167 185.901996,31.7465167 L185.904334,31.7476833 C185.997883,31.4921833 185.976834,31.2215167 185.869254,30.99285 C185.251834,29.3385167 185.104496,28.6910167 185.243649,28.6385167 C185.741794,28.4541833 187.387076,29.2101833 189.260383,30.0735167 C190.228608,30.5191833 191.248286,30.9881833 192.266794,31.38485" id="Fill-1048" transform="translate(190.006923, 31.424428) scale(-1, 1) translate(-190.006923, -31.424428) "></path>
                <path d="M67.6586371,33.3100833 L69.9821452,30.99075 L67.6586371,28.67025 L65.3327903,30.99075 L67.6586371,33.3100833 Z M72.0530726,31.7024167 L68.3532339,35.3914167 L68.3544032,35.3914167 C67.9708548,35.77525 67.34525,35.77525 66.9617016,35.3914167 L66.9441613,35.3739167 L63.2466613,31.68375 L63.2466613,31.6849167 C62.8607742,31.30225 62.8607742,30.67925 63.2466613,30.2965833 L63.2630323,30.27675 L66.9617016,26.58775 C67.34525,26.2050833 67.9708548,26.2050833 68.3544032,26.58775 L68.3719435,26.6064167 L72.0694435,30.2965833 C72.4553306,30.67925 72.4553306,31.30225 72.0694435,31.6849167 L72.0530726,31.7024167 Z" id="Fill-1052" transform="translate(67.658052, 30.990021) scale(-1, 1) translate(-67.658052, -30.990021) "></path>
                <path d="M259.189676,34.4106 C260.984635,33.5531 262.944474,32.6139333 264.527781,32.3117667 C264.980321,32.2697667 265.356853,31.9162667 265.411813,31.4484333 C265.474958,30.9094333 265.089071,30.4217667 264.548829,30.3599333 L264.434232,31.3341 L264.54649,30.3599333 C262.870805,30.1662667 260.754273,29.1909333 258.85641,28.3171 C256.5902,27.2741 254.598789,26.3582667 253.333547,26.8296 C252.089353,27.2939333 251.718668,28.6227667 252.71145,31.4379333 C251.740885,34.2729333 252.133789,35.6111 253.396692,36.0707667 C254.716894,36.5502667 256.82641,35.5411 259.189676,34.4106 M261.040764,31.4087667 C260.132176,31.7914333 259.21891,32.2277667 258.343063,32.6466 C256.375039,33.5881 254.616329,34.4304333 254.065563,34.2297667 C253.906531,34.1726 254.045684,33.4959333 254.674797,31.7692667 L254.678305,31.7716 C254.771853,31.5161 254.750805,31.2454333 254.643224,31.0156 C254.024635,29.3612667 253.878466,28.7137667 254.017619,28.6624333 C254.515764,28.4769333 256.161047,29.2341 258.033184,30.0974333 C259.002579,30.5419333 260.021087,31.0121 261.040764,31.4087667" id="Fill-1056" transform="translate(258.780775, 31.447760) scale(-1, 1) translate(-258.780775, -31.447760) "></path>
                <path d="M237.99088,35.8586667 C236.474227,37.1443333 235.621767,38.9235 235.47209,40.7575 C235.321243,42.5915 235.872009,44.485 237.160638,45.9993333 C238.450436,47.5136667 240.231364,48.3641667 242.070759,48.5146667 C243.911323,48.664 245.808017,48.1145 247.32467,46.8276667 C248.843662,45.5431667 249.696122,43.764 249.846969,41.9288333 C249.885557,41.4551667 249.877372,40.9768333 249.821243,40.5008333 C249.562815,41.797 248.879912,43.0185 247.791243,43.9401667 C246.510799,45.024 244.908783,45.4895 243.357049,45.3623333 C241.804146,45.2363333 240.299186,44.5188333 239.211686,43.2401667 C238.124186,41.9615 237.658783,40.3631667 237.785073,38.815 C237.911364,37.2738333 238.62467,35.7805 239.892251,34.6978333 C239.219872,34.9755 238.576727,35.3616667 237.99088,35.8586667 M237.99088,26.4565 C236.474227,25.1708333 235.621767,23.3916667 235.47209,21.5576667 C235.321243,19.7225 235.872009,17.8313333 237.160638,16.3158333 C238.450436,14.8015 240.231364,13.9521667 242.070759,13.8016667 C243.911323,13.6523333 245.808017,14.2018333 247.32467,15.4875 C248.843662,16.772 249.696122,18.5511667 249.846969,20.3851667 C249.885557,20.8611667 249.877372,21.3395 249.821243,21.8131667 C249.562815,20.5193333 248.879912,19.2978333 247.791243,18.3761667 C246.510799,17.2911667 244.908783,16.8268333 243.357049,16.9528333 C241.804146,17.0776667 240.299186,17.7975 239.211686,19.075 C238.124186,20.3536667 237.658783,21.9508333 237.785073,23.5001667 C237.911364,25.0425 238.62467,26.5346667 239.892251,27.6185 C239.219872,27.3385 238.576727,26.9535 237.99088,26.4565 M269.409106,27.783 C266.219106,26.8846667 263.164751,25.5791667 260.41092,23.9248333 C260.301001,23.8595 260.201606,23.793 260.094025,23.7253333 C259.076686,23.0638333 257.759993,22.365 256.148622,22.1736667 C255.257573,22.0675 254.290517,22.1211667 253.259146,22.4221667 C253.495356,21.812 253.681283,21.1878333 253.816928,20.5566667 C254.463582,20.2801667 255.849267,19.9885 257.119186,19.8636667 C258.23709,19.7528333 260.034388,19.9698333 261.116041,20.209 C263.245436,20.6803333 265.146807,21.7501667 266.633057,23.2353333 C267.893622,24.4918333 268.85717,26.047 269.409106,27.783 M261.116041,49.9788333 C260.10338,50.1083333 258.859186,50.0978333 257.843017,50.0103333 C256.166162,49.8668333 254.650678,49.4293333 253.300073,48.692 C253.509388,48.1355 253.676606,47.5673333 253.802896,46.9898333 C256.453823,47.9418333 259.132815,48.6605 261.93342,48.1261667 C265.398219,47.4658333 268.499348,45.7718333 270.897694,43.3801667 C274.025719,40.2593333 275.961001,35.945 275.961001,31.1791667 C275.961001,26.4168333 274.025719,22.1036667 270.897694,18.9828333 C269.842936,17.9305 268.653702,17.0135 267.355719,16.261 C262.755477,13.5881667 258.686122,13.573 253.802896,15.3253333 C253.676606,14.7478333 253.509388,14.1796667 253.300073,13.622 C254.796848,12.8065 256.494751,12.3573333 258.389106,12.2686667 C259.262614,12.2278333 260.116243,12.2628333 260.982735,12.3678333 C265.303501,12.8905 269.177573,14.8621667 272.103299,17.78 C275.538864,21.2076667 277.66709,25.9478333 277.66709,31.1791667 C277.66709,36.4151667 275.538864,41.1541667 272.103299,44.5841667 C269.209146,47.4705 265.384186,49.4316667 261.116041,49.9788333 M261.320678,54.74 C260.041404,54.8811667 258.50838,54.8893333 257.224428,54.8496667 C254.651848,54.768 252.106162,54.355 249.762775,53.7226667 C250.87717,52.773 251.778743,51.6658333 252.466323,50.4653333 C253.99467,51.2796667 255.694912,51.8233333 257.558864,52.0263333 C258.967936,52.1791667 259.732694,52.2223333 261.293783,52.0286667 C266.058904,51.4383333 270.331727,49.2566667 273.559146,46.0366667 C277.370073,42.2356667 279.727493,36.9821667 279.727493,31.1791667 C279.727493,25.3796667 277.370073,20.1273333 273.559146,16.3251667 C270.284952,13.0585 265.934952,10.8628333 261.086807,10.3098333 C259.911606,10.1768333 258.937533,10.157 257.772856,10.2666667 C255.822372,10.4521667 254.050799,11.0051667 252.466323,11.851 C251.778743,10.6493333 250.87717,9.54216667 249.762775,8.59366667 C252.29092,7.91 255.057614,7.483 257.836001,7.45266667 C258.919993,7.44216667 260.087009,7.4935 261.181525,7.60783333 C266.739469,8.19 271.726767,10.6843333 275.469872,14.42 C279.76959,18.7086667 282.428702,24.6365 282.428702,31.1791667 C282.428702,37.7265 279.76959,43.6531667 275.469872,47.9418333 C271.75834,51.646 266.822493,54.1298333 261.320678,54.74 M264.066323,59.3576667 C269.714307,58.2143333 274.763582,55.4248333 278.686767,51.5095 C283.90209,46.3073333 287.12717,39.1195 287.12717,31.1791667 C287.12717,23.2423333 283.90209,16.0533333 278.686767,10.8523333 C274.216323,6.39216667 268.283017,3.39033333 261.667977,2.625 C258.838138,2.296 254.699791,2.16533333 251.853582,2.422 C245.280638,3.01583333 239.025759,5.56966667 234.412654,10.5571667 C234.006888,10.997 233.615154,11.4485 233.265517,11.935 C231.813178,13.9568333 231.19342,16.3963333 231.381686,18.7798333 C231.582815,21.3196667 232.69838,23.7918333 234.701485,25.6235 L234.799711,25.7098333 C234.05834,24.4836667 233.625678,23.1128333 233.509912,21.7175 C233.319307,19.3818333 234.02092,16.9738333 235.661525,15.0441667 C237.300961,13.1168333 239.570678,12.0353333 241.911727,11.8451667 C244.252775,11.6538333 246.667493,12.3538333 248.599267,13.9906667 C250.531041,15.6263333 251.615033,17.892 251.806807,20.2265 C251.812654,20.3 251.818501,20.3746667 251.822009,20.447 C252.09213,19.355 252.178662,18.2326667 252.088622,17.122 C251.871122,14.4783333 250.640961,11.914 248.453098,10.0601667 C248.223904,9.8665 247.992372,9.6845 247.75967,9.52 C247.514106,9.34266667 247.269711,9.184 247.028823,9.04166667 C246.56342,8.76283333 246.411404,8.162 246.688541,7.69766667 C246.873299,7.39433333 247.193702,7.224 247.52463,7.2205 C250.818702,6.12266667 254.601565,5.38766667 258.387936,5.40166667 C259.352654,5.404 260.351283,5.45883333 261.311323,5.5545 C267.387291,6.17166667 272.838823,8.88883333 276.925719,12.9651667 C281.59963,17.6271667 284.489106,24.0671667 284.489106,31.1791667 C284.489106,38.2946667 281.59963,44.7346667 276.926888,49.3966667 C272.878582,53.4345 267.492533,56.14 261.487896,56.7886667 C259.895235,56.9613333 258.334146,56.9555 256.744993,56.8738333 C253.516404,56.7058333 250.341606,56.0326667 247.52463,55.0946667 C247.193702,55.0911667 246.873299,54.922 246.688541,54.6163333 C246.411404,54.1531667 246.56342,53.5523333 247.028823,53.2735 C247.269711,53.1323333 247.514106,52.9725 247.75967,52.7963333 C247.992372,52.6306667 248.223904,52.4498333 248.453098,52.255 C250.640961,50.4011667 251.871122,47.838 252.088622,45.192 C252.178662,44.0836667 252.09213,42.9601667 251.822009,41.8681667 C251.818501,41.9416667 251.812654,42.0151667 251.806807,42.0898333 C251.615033,44.4243333 250.531041,46.6888333 248.599267,48.3256667 C246.667493,49.9613333 244.252775,50.6613333 241.911727,50.47 C239.570678,50.2798333 237.300961,49.1995 235.661525,47.2698333 C234.02092,45.3425 233.319307,42.9333333 233.509912,40.5976667 C233.625678,39.2011667 234.05834,37.8303333 234.799711,36.6065 L234.701485,36.6928333 C232.69838,38.5221667 231.582815,40.9955 231.381686,43.5353333 C231.19342,45.9188333 231.813178,48.3583333 233.265517,50.3801667 C233.615154,50.8666667 234.006888,51.317 234.412654,51.758 C239.025759,56.7443333 245.280638,59.3005 251.853582,59.8943333 C255.53588,60.2256667 260.39338,60.0996667 264.066323,59.3576667 M269.869832,32.3855 C266.127896,33.3375 262.542654,34.818 259.34213,36.75 C259.226364,36.82 259.123461,36.8795 259.011202,36.9541667 C258.18213,37.4896667 257.129711,38.0531667 255.914751,38.1966667 C254.685759,38.3425 253.23459,38.0625 251.576444,36.8911667 C251.440799,36.7126667 251.299307,36.5365 251.151969,36.3638333 C248.941888,33.7656667 245.885194,32.3096667 242.731444,32.0518333 C239.627977,31.7998333 236.429791,32.7086667 233.847856,34.8378333 C233.755477,34.9136667 233.668944,34.993 233.577735,35.0735 C231.065961,37.2703333 229.669751,40.2861667 229.425356,43.3813333 C229.194993,46.291 229.978461,49.2741667 231.804993,51.716 C232.181525,52.2165 232.610678,52.6948333 233.037493,53.1533333 C238.001404,58.4838333 244.67959,61.2115 251.677009,61.8426667 C255.55342,62.1926667 260.572291,62.202 264.431162,61.4308333 C270.515315,60.2116667 275.956323,57.2121667 280.178864,52.997 C285.774227,47.4156667 289.236686,39.7016667 289.236686,31.1791667 C289.236686,22.6601667 285.774227,14.9461667 280.178864,9.36366667 C275.348259,4.54533333 268.926162,1.31366667 261.768541,0.518 C259.148017,0.2275 254.097573,0.253166667 251.677009,0.471333333 C244.67959,1.10366667 238.001404,3.8325 233.037493,9.16183333 C232.610678,9.62033333 232.181525,10.0975 231.804993,10.6003333 C229.978461,13.041 229.194993,16.0241667 229.425356,18.9338333 C229.669751,22.029 231.065961,25.0448333 233.577735,27.2416667 C233.668944,27.3233333 233.755477,27.4015 233.847856,27.4773333 C236.429791,29.6076667 239.627977,30.5165 242.731444,30.2633333 C245.885194,30.0055 248.941888,28.5483333 251.151969,25.9525 C251.299307,25.7786667 251.440799,25.6013333 251.576444,25.4251667 C253.23459,24.2538333 254.685759,23.9726667 255.914751,24.1185 C257.129711,24.2631667 258.18213,24.8255 259.011202,25.361 C259.123461,25.4345 259.226364,25.4951667 259.34213,25.5651667 C262.540315,27.496 266.124388,28.9776667 269.863985,29.9285 C269.90959,30.3403333 269.932977,30.7568333 269.932977,31.1791667 C269.932977,31.5886667 269.910759,31.99 269.869832,32.3855 M260.863461,42.2041667 C258.736404,42.6241667 255.725315,42.5716667 253.816928,41.7596667 C253.681283,41.1273333 253.495356,40.502 253.259146,39.893 C254.290517,40.1951667 255.257573,40.2476667 256.148622,40.1426667 C257.759993,39.9513333 259.076686,39.2513333 260.094025,38.591 C260.201606,38.5221667 260.301001,38.4568333 260.41092,38.3903333 C263.169428,36.7336667 266.228461,35.4258333 269.425477,34.5275 C268.877049,36.2845 267.906485,37.8571667 266.634227,39.1276667 C265.08834,40.67 263.09342,41.7655 260.863461,42.2041667 M261.540517,18.1976667 C264.066323,18.7518333 266.325517,20.0211667 268.090073,21.7816667 C270.501283,24.1861667 271.99338,27.5111667 271.99338,31.1791667 C271.99338,34.8518333 270.501283,38.1756667 268.090073,40.5813333 C266.196888,42.469 263.737735,43.7931667 260.985073,44.2738333 C259.019388,44.618 255.836404,44.4861667 254.083541,43.9413333 C254.094065,44.2948333 254.091727,44.6495 254.073017,45.0041667 C256.064428,45.7625 259.496485,46.5348333 261.791928,46.0576667 C264.744549,45.444 267.386122,43.9763333 269.440678,41.9265 C272.195678,39.1778333 273.901767,35.3768333 273.901767,31.1791667 C273.901767,26.985 272.195678,23.1851667 269.440678,20.4353333 C267.423541,18.4251667 264.843944,16.9738333 261.956807,16.3403333 C259.489469,15.799 256.419912,16.4185 254.073017,17.3121667 C254.091727,17.6645 254.094065,18.0191667 254.083541,18.375 C254.644832,18.1988333 256.041041,18.0063333 257.284065,17.9083333 C258.706001,17.7963333 260.143138,17.8931667 261.540517,18.1976667 M241.185557,26.138 C242.054388,26.8741667 243.136041,27.1868333 244.187291,27.1016667 C245.237372,27.0165 246.254711,26.5311667 246.991404,25.6666667 C247.728098,24.7998333 248.043823,23.7183333 247.957291,22.6706667 C247.871928,21.623 247.384307,20.6068333 246.517815,19.873 C245.651323,19.138 244.567332,18.8241667 243.517251,18.9093333 C242.466001,18.9956667 241.447493,19.481 240.710799,20.3466667 C239.975275,21.2111667 239.660719,22.2926667 239.747251,23.3403333 C239.832614,24.3891667 240.317896,25.4041667 241.185557,26.138 M241.185557,36.176 C242.054388,35.4421667 243.136041,35.1283333 244.187291,35.2135 C245.237372,35.2998333 246.254711,35.7851667 246.991404,36.6496667 C247.728098,37.5153333 248.043823,38.598 247.957291,39.6445 C247.871928,40.6933333 247.384307,41.7083333 246.517815,42.4433333 C245.651323,43.1771667 244.567332,43.491 243.517251,43.4058333 C242.466001,43.3206667 241.447493,42.8341667 240.710799,41.9685 C239.975275,41.104 239.660719,40.0225 239.747251,38.9748333 C239.832614,37.926 240.317896,36.911 241.185557,36.176" id="Fill-1058" transform="translate(259.311414, 31.187453) scale(-1, 1) translate(-259.311414, -31.187453) "></path>
                <path d="M224.624704,31.3139167 L222.300026,28.9945833 L219.974179,31.3139167 L222.300026,33.6320833 L224.624704,31.3139167 Z M223.013333,26.9295833 L226.710833,30.6185833 L226.712002,30.6185833 C227.09672,31.0024167 227.09672,31.6254167 226.712002,32.00925 L226.694462,32.0244167 L222.994623,35.7145833 L222.994623,35.71575 C222.611075,36.0995833 221.987808,36.0995833 221.60426,35.71575 L221.58555,35.69825 L217.886881,32.0080833 L217.886881,32.00925 C217.503333,31.6254167 217.503333,31.0024167 217.886881,30.6185833 L217.905591,30.60225 L221.60426,26.9120833 C221.987808,26.52825 222.611075,26.52825 222.994623,26.9120833 L223.013333,26.9295833 Z" id="Fill-1060" transform="translate(222.299880, 31.313917) scale(-1, 1) translate(-222.299880, -31.313917) "></path>
            </g>
        </g>
    </g>
</svg>